<svg
	xmlns="http://www.w3.org/2000/svg"
	>
	<symbol
		id="icon--for-sale"
		viewbox="0 0 66 78"
		preserveAspectRatio="xMaxYMid meet"
		>

    <path
			fill="currentColor"
			d="M66,76.0222697 C66,77.1159944 65.1453495,78 64.0936688,78 L30.9977126,78 L1.90633118,78 C0.852091653,78 0,77.1159944 0,76.0222697 L0,21.6280501 C0,20.7493538 0.516884426,19.955607 1.30500523,19.6290824 L63.152018,0.157066758 C64.5158764,-0.411032949 66,0.632252962 66,2.15603442 L66,76.0222697 Z"
			/>
    <path
			fill="#FFF"
			fill-rule="nonzero"
			d="M18.864,37.12 C19.0453342,37.12 19.1946661,37.1759994 19.312,37.288 C19.4293339,37.4000006 19.488,37.5466658 19.488,37.728 C19.488,37.8986675 19.4293339,38.0426661 19.312,38.16 C19.1946661,38.2773339 19.0453342,38.336 18.864,38.336 L13.856,38.336 L13.856,43.376 C13.856,43.5466675 13.7973339,43.6933327 13.68,43.816 C13.5626661,43.9386673 13.4133342,44 13.232,44 C13.0613325,44 12.9146673,43.9386673 12.792,43.816 C12.6693327,43.6933327 12.608,43.5466675 12.608,43.376 L12.608,32.128 C12.608,31.9466658 12.6693327,31.7973339 12.792,31.68 C12.9146673,31.5626661 13.0613325,31.504 13.232,31.504 L20.736,31.504 C20.9173342,31.504 21.0666661,31.5626661 21.184,31.68 C21.3013339,31.7973339 21.36,31.9413325 21.36,32.112 C21.36,32.2826675 21.3013339,32.4239994 21.184,32.536 C21.0666661,32.6480006 20.9173342,32.704 20.736,32.704 L13.856,32.704 L13.856,37.12 L18.864,37.12 Z M29.376,31.344 C30.5813394,31.344 31.6719951,31.6213306 32.648,32.176 C33.6240049,32.7306694 34.3866639,33.4933285 34.936,34.464 C35.4853361,35.4346715 35.76,36.5279939 35.76,37.744 C35.76,38.9600061 35.4853361,40.0559951 34.936,41.032 C34.3866639,42.0080049 33.6240049,42.7733306 32.648,43.328 C31.6719951,43.8826694 30.5813394,44.16 29.376,44.16 C28.1599939,44.16 27.0666715,43.8826694 26.096,43.328 C25.1253285,42.7733306 24.3653361,42.0080049 23.816,41.032 C23.2666639,40.0559951 22.992,38.9600061 22.992,37.744 C22.992,36.5279939 23.2666639,35.4346715 23.816,34.464 C24.3653361,33.4933285 25.1253285,32.7306694 26.096,32.176 C27.0666715,31.6213306 28.1599939,31.344 29.376,31.344 Z M29.376,32.528 C28.3946618,32.528 27.5120039,32.757331 26.728,33.216 C25.9439961,33.674669 25.3280022,34.3013294 24.88,35.096 C24.4319978,35.8906706 24.208,36.7733285 24.208,37.744 C24.208,38.7253382 24.4319978,39.6133294 24.88,40.408 C25.3280022,41.2026706 25.9439961,41.829331 26.728,42.288 C27.5120039,42.746669 28.3946618,42.976 29.376,42.976 C30.3466715,42.976 31.2239961,42.746669 32.008,42.288 C32.7920039,41.829331 33.4079978,41.2026706 33.856,40.408 C34.3040022,39.6133294 34.528,38.7253382 34.528,37.744 C34.528,36.7733285 34.3040022,35.8906706 33.856,35.096 C33.4079978,34.3013294 32.7920039,33.674669 32.008,33.216 C31.2239961,32.757331 30.3466715,32.528 29.376,32.528 Z M46.144,43.04 C46.2400005,43.2000008 46.288,43.3439994 46.288,43.472 C46.288,43.6320008 46.2293339,43.7599995 46.112,43.856 C45.9946661,43.9520005 45.840001,44 45.648,44 C45.5199994,44 45.4133338,43.9733336 45.328,43.92 C45.2426662,43.8666664 45.1680003,43.7866672 45.104,43.68 L42.224,39.104 L39.584,39.104 L39.584,43.376 C39.584,43.5573342 39.5253339,43.7066661 39.408,43.824 C39.2906661,43.9413339 39.1413342,44 38.96,44 C38.7786658,44 38.6293339,43.9413339 38.512,43.824 C38.3946661,43.7066661 38.336,43.5573342 38.336,43.376 L38.336,32.128 C38.336,31.9466658 38.3946661,31.7973339 38.512,31.68 C38.6293339,31.5626661 38.7786658,31.504 38.96,31.504 L41.952,31.504 C42.7306706,31.504 43.423997,31.666665 44.032,31.992 C44.640003,32.317335 45.1173316,32.7733304 45.464,33.36 C45.8106684,33.9466696 45.984,34.6133296 45.984,35.36 C45.984,36.1813374 45.7626689,36.9013302 45.32,37.52 C44.8773311,38.1386698 44.2773371,38.581332 43.52,38.848 L46.144,43.04 Z M41.952,37.904 C42.485336,37.904 42.9679978,37.7946678 43.4,37.576 C43.8320022,37.3573322 44.1679988,37.0560019 44.408,36.672 C44.6480012,36.2879981 44.768,35.8506691 44.768,35.36 C44.768,34.8479974 44.6480012,34.3893354 44.408,33.984 C44.1679988,33.5786646 43.8346688,33.2640011 43.408,33.04 C42.9813312,32.8159989 42.4960027,32.704 41.952,32.704 L39.584,32.704 L39.584,37.904 L41.952,37.904 Z M17.44,49.344 C18.2826709,49.344 19.0239968,49.5306648 19.664,49.904 C20.3040032,50.2773352 20.8053315,50.7626637 21.168,51.36 C21.242667,51.4773339 21.28,51.6053326 21.28,51.744 C21.28,51.9466677 21.184001,52.1066661 20.992,52.224 C20.9066662,52.2666669 20.8106672,52.288 20.704,52.288 C20.5866661,52.288 20.4773338,52.258667 20.376,52.2 C20.2746662,52.141333 20.1920003,52.0586672 20.128,51.952 C19.5306637,51.0133286 18.6293394,50.5386667 17.424,50.528 C16.5599957,50.528 15.8773358,50.7093315 15.376,51.072 C14.8746642,51.4346685 14.624,51.9519966 14.624,52.624 C14.624,53.8720062 15.6319899,54.629332 17.648,54.896 C18.9706733,55.088001 19.9573301,55.4933302 20.608,56.112 C21.2586699,56.7306698 21.584,57.5466616 21.584,58.56 C21.584,59.3066704 21.4026685,59.9519973 21.04,60.496 C20.6773315,61.0400027 20.1813365,61.4533319 19.552,61.736 C18.9226635,62.0186681 18.2186706,62.16 17.44,62.16 C16.4266616,62.16 15.5280039,61.9440022 14.744,61.512 C13.9599961,61.0799978 13.397335,60.4960037 13.056,59.76 C13.0133331,59.685333 12.992,59.6000005 12.992,59.504 C12.992,59.3546659 13.0479994,59.2293338 13.16,59.128 C13.2720006,59.0266662 13.423999,58.976 13.616,58.976 C13.7440006,58.976 13.8639994,59.0106663 13.976,59.08 C14.0880006,59.1493337 14.1706664,59.2479994 14.224,59.376 C14.4693346,59.8560024 14.8773305,60.2426652 15.448,60.536 C16.0186695,60.8293348 16.6826629,60.976 17.44,60.976 C18.314671,60.976 19.018664,60.7653354 19.552,60.344 C20.085336,59.9226646 20.352,59.3333371 20.352,58.576 C20.352,57.9039966 20.1040025,57.338669 19.608,56.88 C19.1570887,56.4630282 18.5012268,56.1826999 17.6403978,56.0390084 L17.376,56 C16.1386605,55.8506659 15.1653369,55.4640031 14.456,54.84 C13.7466631,54.2159969 13.392,53.4506712 13.392,52.544 C13.392,51.9039968 13.5653316,51.3413358 13.912,50.856 C14.2586684,50.3706642 14.7386636,49.9973346 15.352,49.736 C15.9653364,49.4746654 16.6613294,49.344 17.44,49.344 Z M33.568,61.12 C33.6106669,61.194667 33.632,61.2799995 33.632,61.376 C33.632,61.5466675 33.5706673,61.6933327 33.448,61.816 C33.3253327,61.9386673 33.1786675,62 33.008,62 C32.7306653,62 32.5333339,61.8720013 32.416,61.616 L31.344,59.024 L25.152,59.024 L24.08,61.616 C23.9946662,61.8720013 23.8026682,62 23.504,62 C23.3226658,62 23.1760006,61.9386673 23.064,61.816 C22.9519994,61.6933327 22.896,61.5466675 22.896,61.376 C22.896,61.2693328 22.9119998,61.178667 22.944,61.104 L27.648,49.936 C27.7653339,49.6479986 27.9679986,49.504 28.256,49.504 C28.5440014,49.504 28.7413328,49.6479986 28.848,49.936 L33.568,61.12 Z M30.912,57.952 L28.256,51.536 L25.6,57.952 L30.912,57.952 Z M42.944,60.816 C43.1253342,60.816 43.2746661,60.8719994 43.392,60.984 C43.5093339,61.0960006 43.568,61.2373325 43.568,61.408 C43.568,61.5786675 43.5093339,61.7199994 43.392,61.832 C43.2746661,61.9440006 43.1253342,62 42.944,62 L36.064,62 C35.8933325,62 35.7466673,61.9386673 35.624,61.816 C35.5013327,61.6933327 35.44,61.5466675 35.44,61.376 L35.44,50.128 C35.44,49.9573325 35.5013327,49.8106673 35.624,49.688 C35.7466673,49.5653327 35.8933325,49.504 36.064,49.504 C36.2453342,49.504 36.3946661,49.5626661 36.512,49.68 C36.6293339,49.7973339 36.688,49.9466658 36.688,50.128 L36.688,60.816 L42.944,60.816 Z M53.696,60.8 C53.8773342,60.8 54.0266661,60.8559994 54.144,60.968 C54.2613339,61.0800006 54.32,61.2213325 54.32,61.392 C54.32,61.5626675 54.2613339,61.7066661 54.144,61.824 C54.0266661,61.9413339 53.8773342,62 53.696,62 L46.192,62 C46.0213325,62 45.8746673,61.9386673 45.752,61.816 C45.6293327,61.6933327 45.568,61.5466675 45.568,61.376 L45.568,50.128 C45.568,49.9466658 45.6293327,49.7973339 45.752,49.68 C45.8746673,49.5626661 46.0213325,49.504 46.192,49.504 L53.696,49.504 C53.8773342,49.504 54.0266661,49.5626661 54.144,49.68 C54.2613339,49.7973339 54.32,49.9413325 54.32,50.112 C54.32,50.2826675 54.2613339,50.4239994 54.144,50.536 C54.0266661,50.6480006 53.8773342,50.704 53.696,50.704 L46.816,50.704 L46.816,55.12 L51.824,55.12 C52.0053342,55.12 52.1546661,55.1786661 52.272,55.296 C52.3893339,55.4133339 52.448,55.5573325 52.448,55.728 C52.448,55.8986675 52.3866673,56.0426661 52.264,56.16 C52.1413327,56.2773339 51.9946675,56.336 51.824,56.336 L46.816,56.336 L46.816,60.8 L53.696,60.8 Z"
			/>
  </symbol>
</svg>
