<svg
	xmlns="http://www.w3.org/2000/svg"
	>
	<defs></defs>
	<symbol
		id="icon--phone"
		viewbox="0 0 15 15"
		preserveAspectRatio="xMaxYMid meet"
		>
		<path fill="currentColor" d="M12,10.1079545 C12,10.3380682 11.8977273,10.7855114 11.8018466,10.9964489 C11.6676136,11.3096591 11.3096591,11.5142045 11.022017,11.6740057 C10.6448864,11.8785511 10.2613636,12 9.83309659,12 C9.23863636,12 8.70170455,11.7571023 8.15838068,11.5589489 C7.76846591,11.4183239 7.39133523,11.2457386 7.03977273,11.0284091 C5.953125,10.3572443 4.64275568,9.046875 3.97159091,7.96022727 C3.75426136,7.60866477 3.58167614,7.23153409 3.44105114,6.84161932 C3.24289773,6.29829545 3,5.76136364 3,5.16690341 C3,4.73863636 3.12144886,4.35511364 3.32599432,3.97798295 C3.48579545,3.69034091 3.69034091,3.33238636 4.00355114,3.19815341 C4.21448864,3.10227273 4.66193182,3 4.89204545,3 C4.93678977,3 4.98153409,3 5.02627841,3.01917614 C5.16051136,3.06392045 5.30113636,3.37713068 5.36505682,3.50497159 C5.56960227,3.86931818 5.76775568,4.24005682 5.97869318,4.59801136 C6.08096591,4.76420455 6.27272727,4.96875 6.27272727,5.16690341 C6.27272727,5.55681818 5.11576705,6.12571023 5.11576705,6.47088068 C5.11576705,6.64346591 5.27556818,6.8671875 5.36505682,7.02059659 C6.01065341,8.18394886 6.81605114,8.98934659 7.97940341,9.63494318 C8.1328125,9.72443182 8.35653409,9.88423295 8.52911932,9.88423295 C8.87428977,9.88423295 9.44318182,8.7272659 9.83309659,8.7272659 C10.03125,8.7272659 10.2357955,8.91903409 10.4019886,9.02130682 C10.7599432,9.23224432 11.1306818,9.43039773 11.4950284,9.63494318 C11.6228693,9.69886364 11.9360795,9.83948864 11.9808239,9.97372159 C12,10.0184659 12,10.0632102 12,10.1079545 Z"/>
	</symbol>
</svg>
