<svg
	xmlns="http://www.w3.org/2000/svg"
	>
	<symbol
		id="icon--valuation-calculator"
		viewbox="0 0 72 72"
		preserveAspectRatio="xMaxYMid meet"
		>
    <defs>
        <polygon id="path-1" points="0 0 41 0 41 32 0 32"></polygon>
    </defs>
    <g id="Page-1" stroke="none" stroke-width="1" fill="none" fill-rule="evenodd">
        <g id="Home-" transform="translate(-760.000000, -535.000000)">
            <g id="Group-17" transform="translate(760.000000, 535.000000)">
                <g id="Fill-3" fill="#143055">
                    <path d="M36.7992658,1.47411806 L36.7992658,5.20336504 L38.1852962,5.20336504 L38.1852962,6.86394545 L41.8969308,10.5958562 L41.8969308,5.20336504 L46.1387988,5.20336504 L46.1387988,14.8610492 L49.8504334,18.59296 L49.8504334,5.20336504 L52,5.20336504 L52,1.47411806 L36.7992658,1.47411806 Z M15.753418,47.532982 L9.371347,47.532982 L9.371347,24.6535191 L5.65971245,28.3854298 L5.65971245,47.9698367 C5.65971245,49.7854472 7.12845926,51.262229 8.93443459,51.262229 L15.7900041,51.262229 C15.7666738,51.0480637 15.753418,50.8312346 15.753418,50.6112091 L15.753418,47.532982 Z M27.752952,3.91144734 L2.62571633,29.1744319 L2.62518609,29.1749646 L0.00106046701,26.5394525 L-3.90798505e-13,26.538387 L25.4347711,0.965874969 C26.0530234,0.343090722 26.8759458,7.10542736e-15 27.7534822,7.10542736e-15 C28.6188233,7.10542736e-15 29.4645457,0.353212964 30.0743143,0.969071466 L41.6737025,12.6043221 L41.6737025,16.7389915 L27.752952,3.91144734 Z" id="Fill-1"></path>
                </g>
                <g id="Group-3" transform="translate(21.000000, 19.000000)">
                    <path d="M35.8436265,8.72829554 L32.2757036,5.15873715 L36.3939709,4.60837945 L35.8436265,8.72829554 Z M23.8213245,2.29678153 L30.1462243,8.62458072 L21.8401802,18.0707549 L14.7124558,12.8436711 L0.521978391,28.6064127 C-0.028843737,29.2184258 -0.156158652,30.1023915 0.19951097,30.8453625 C0.825097767,32.1515957 2.57645416,32.4025187 3.54361756,31.3252228 L15.3256217,18.199801 L22.4201438,23.4025094 L32.9490634,11.4289435 L38.7045097,17.1867892 L41,-1.77635684e-14 L23.8213245,2.29678153 Z" id="Fill-1" fill="#143055" mask="url(#mask-2)"></path>
                </g>
            </g>
        </g>
    </g>
    </symbol>
</svg>