<svg
	xmlns="http://www.w3.org/2000/svg"
	>
	<symbol
		id="icon--bathrooms"
		viewbox="0 0 32 32"
		preserveAspectRatio="xMaxYMid meet"
		>
		<path
			fill="currentColor"
			fill-rule="evenodd"
			d="M7.24874047,6.42130637 C8.88407136,5.52049658 10.9411686,6.11170767 11.8443272,7.74191102 C12.9000582,7.29500442 14.1188839,7.48478667 14.9878453,8.23167169 L14.9878453,8.23167169 C15.1667233,8.05325887 15.4552079,8.05413344 15.6332091,8.23167169 L15.6332091,8.23167169 L16.0505912,8.64796825 C16.2285923,8.82638106 16.2285923,9.11411545 16.0505912,9.29165369 L16.0505912,9.29165369 L11.8092531,13.5219614 C11.6312519,13.6994997 11.3418904,13.6994997 11.1638892,13.5219614 L11.1638892,13.5219614 L10.7465072,13.1056649 C10.5676292,12.9281266 10.568506,12.6395177 10.7465072,12.4619794 C9.81791984,11.3871297 9.77056977,9.81114983 10.6325163,8.68207658 C10.3475391,7.9692999 9.65570203,7.50052898 8.88582507,7.50140355 C7.84763108,7.50227812 7.00672903,8.34186783 7.00760588,9.37648724 L7.00760588,9.37648724 L7.00760588,16.5016303 L27.4961537,16.5016303 C27.8074365,16.5016303 28.0590934,16.7535072 28.0590934,17.063106 L28.0590934,17.063106 L28.0590934,17.4382976 C28.0590934,17.7487709 27.8074365,18.0006478 27.4952769,18.0006478 L27.4952769,18.0006478 L26.5561673,18.0006478 L26.5561673,21.0013064 C26.5570441,22.2816807 26.0098878,23.5017095 25.0523643,24.3544178 L25.0523643,24.3544178 L25.0523643,26.4376498 C25.0523643,26.7481231 24.7998307,27 24.4885478,27 L24.4885478,27 L24.1123779,27 C23.8002182,27 23.5476845,26.7481231 23.5476845,26.4376498 L23.5476845,26.4376498 L23.5476845,25.2447328 C23.0654154,25.4143998 22.5568406,25.5018571 22.0447585,25.5009825 L22.0447585,25.5009825 L10.0143349,25.5009825 C9.50225275,25.5018571 8.99455484,25.4143998 8.51140883,25.2447328 L8.51140883,25.2447328 L8.51140883,26.4376498 C8.51140883,26.7481231 8.25887515,27 7.94671548,27 L7.94671548,27 L7.57142238,27 C7.26013956,27 7.00760588,26.7489977 7.00672903,26.4385244 L7.00672903,26.4385244 L7.00672903,24.3552924 C6.04920553,23.5025841 5.50204924,22.2825553 5.50292609,21.002181 L5.50292609,21.002181 L5.50292609,18.0015224 L4.5638165,18.0015224 C4.25253367,18.0015224 4,17.7496455 4,17.4391722 L4,17.4391722 L4,17.0639805 C4,16.7535072 4.25253367,16.5016303 4.5638165,16.5016303 L4.5638165,16.5016303 L5.50292609,16.5016303 L5.50292609,9.37648724 C5.50204924,8.14858729 6.1710881,7.01601575 7.24874047,6.42130637 Z M25.0523643,18.0006478 L7.00672903,18.0006478 L7.00672903,21.0013064 C7.00848274,22.657747 8.35445213,24.0002159 10.0143349,24.0010905 L10.0143349,24.0010905 L22.0447585,24.0010905 C23.7055181,24.0002159 25.0514875,22.657747 25.0523643,21.0013064 L25.0523643,21.0013064 L25.0523643,18.0006478 Z M13.9180846,9.29865028 C13.319194,8.85611653 12.4861836,8.91733662 11.9591949,9.44208018 C11.4313294,9.96769833 11.3690728,10.7994169 11.8136373,11.3984991 L11.8136373,11.3984991 Z"
			/>
	</symbol>
</svg>
