<svg
	xmlns="http://www.w3.org/2000/svg"
	>
	<symbol
		id="icon--twitter-alt"
		viewbox="0 0 32 32"
		preserveAspectRatio="xMaxYMid meet"
		>

    <path fill="#7B8494" fill-rule="nonzero" d="M16,0 C24.836556,0 32,7.163444 32,16 C32,24.836556 24.836556,32 16,32 C7.163444,32 0,24.836556 0,16 C0,7.163444 7.163444,0 16,0 Z M16,0.914285714 C7.66839006,0.914285714 0.914285714,7.66839006 0.914285714,16 C0.914285714,24.3316099 7.66839006,31.0857143 16,31.0857143 C24.3316099,31.0857143 31.0857143,24.3316099 31.0857143,16 C31.0857143,7.66839006 24.3316099,0.914285714 16,0.914285714 Z"/>
    <path fill="currentColor" d="M24,11.4197888 C23.4111101,11.6607211 22.7792398,11.8241186 22.1153433,11.8970669 C22.7932268,11.5222593 23.3121296,10.9277618 23.5580646,10.2215486 C22.9221943,10.5686445 22.2203108,10.8206808 21.4724403,10.957308 C20.8735635,10.3674211 20.021719,10 19.0768808,10 C17.2642243,10 15.7944964,11.3570272 15.7944964,13.0297695 C15.7944964,13.2670085 15.8234899,13.4987196 15.87949,13.7202923 C13.1520084,13.5938035 10.7334685,12.3872594 9.11477306,10.5538714 C8.83181835,11.000686 8.67085077,11.5213178 8.67085077,12.0770721 C8.67085077,13.1285467 9.25074714,14.0563084 10.1305917,14.5991 C9.59268234,14.5824923 9.08677302,14.4458651 8.64387033,14.2187645 L8.64387033,14.2566146 C8.64387033,15.7244161 9.77566303,16.9494266 11.2763714,17.2282331 C11.0014167,17.2965467 10.7114816,17.3343968 10.4115334,17.3343968 C10.1995853,17.3343968 9.99461764,17.3150131 9.79364999,17.2780803 C10.2115592,18.4827898 11.423352,19.3588457 12.8590929,19.3828641 C11.7362937,20.195241 10.3205528,20.6780469 8.78285095,20.6780469 C8.51790934,20.6780469 8.2569416,20.6632738 8,20.6365035 C9.4527344,21.4978104 11.177417,22 13.031067,22 C19.0689331,22 22.3693307,17.3824094 22.3693307,13.3778069 L22.3583241,12.9854743 C23.0031879,12.5607953 23.5610712,12.0272249 24,11.4197888 L24,11.4197888 Z"/>
  </symbol>
</svg>
