<svg
	xmlns="http://www.w3.org/2000/svg"
	>
	<symbol
		id="icon--moving-calculator"
		viewbox="0 0 72 72"
		preserveAspectRatio="xMaxYMid meet"
		>
    <path fill="currentColor" d="M63.9749207,36.2775829 L60.9225248,28.8390211 C60.7884242,28.5133262 60.3896076,28.2464654 60.0372035,28.2464654 L53.3683082,28.2464654 C53.0159041,28.2464654 52.6759744,28.5307382 52.6132351,28.8778772 L51.9021896,32.8496311 C51.8407344,33.1965869 52.0691275,33.5574721 52.4088737,33.6502136 L63.5986683,36.7022508 C63.9398821,36.7949923 64.1090214,36.6045607 63.9749207,36.2775829 L63.9749207,36.2775829 Z"/>
    <path fill="currentColor" d="M67.933918 42.2978968L66.7426049 47.984818C66.5984145 48.6752471 65.9011276 49.2403102 65.1950352 49.2403102L62.2418849 49.2403102C62.2418849 45.5541119 59.1581193 42.55596 55.3684448 42.55596 51.5787703 42.55596 48.4950047 45.5541119 48.4950047 49.2403102L47.2284778 49.2403102 45.9544296 49.2403102 46.1787868 48.1490401C46.1813551 48.0938717 46.1826392 48.0387034 46.1938296 47.982252L50.3623248 26.9383709C50.4989937 26.2466589 51.1900434 25.6804961 51.8959524 25.6804961L60.5288448 25.6804961C61.2347538 25.6804961 62.0336711 26.2129347 62.3046242 26.8645077L67.7057083 39.8571101C67.976478 40.5086831 68.0793925 41.6074678 67.933918 42.2978968L67.933918 42.2978968zM49.9059054 20.51465C50.189333 19.1314092 49.2662213 18 47.8529358 18L18.0218611 18C16.6085755 18 15.2215231 19.1314092 14.9380955 20.51465L9.56452858 46.7269432C9.28238513 48.108901 10.2054969 49.2403102 11.6187824 49.2403102L13.8559341 49.2403102 15.4686279 49.2403102C15.4686279 45.5541119 18.5523935 42.55596 22.3407839 42.55596 26.1317425 42.55596 29.2142239 45.5541119 29.2142239 49.2403102L41.4498571 49.2403102 44.0282226 49.2403102 45.2633799 43.2275109 45.2509054 43.2275109 49.9059054 20.51465z"/>
    <path fill="currentColor" d="M22.3407839 44.480437C19.6094224 44.480437 17.3948348 46.6116579 17.3948348 49.2403102 17.3948348 51.8687792 19.6094224 54 22.3407839 54 25.0732459 54 27.288017 51.8687792 27.288017 49.2403102 27.288017 46.6116579 25.0732459 44.480437 22.3407839 44.480437L22.3407839 44.480437zM55.3684448 44.480437C52.6357993 44.480437 50.4212117 46.6116579 50.4212117 49.2403102 50.4212117 51.8687792 52.6357993 54 55.3684448 54 58.1009069 54 60.3156779 51.8687792 60.3156779 49.2403102 60.3156779 46.6116579 58.1009069 44.480437 55.3684448 44.480437L55.3684448 44.480437zM4.49456854 27.743902L10.6769589 27.743902C11.0306472 27.743902 11.39681 27.4658609 11.4907355 27.1262365L12.2168238 24.5138965C12.3109327 24.1731724 12.09905 23.894948 11.7453617 23.894948L5.55049682 23.894948C5.19680854 23.894948 4.83192992 24.1731724 4.73782095 24.5138965L4.02182233 27.1249535C3.9289975 27.4658609 4.14088026 27.743902 4.49456854 27.743902L4.49456854 27.743902zM9.61094099 31.592856L5.65451199 31.592856C5.30082371 31.592856 4.92842371 31.8697974 4.82679337 32.2068558L4.03686508 34.8279935C3.93523474 35.1663349 4.14088026 35.44181 4.49456854 35.44181L8.49869408 35.44181C8.85109823 35.44181 9.22092995 35.1650519 9.31889133 34.8254275L10.0750651 32.2094218C10.1728431 31.8710804 9.96334513 31.592856 9.61094099 31.592856L9.61094099 31.592856zM7.87918925 39.9097125L7.15676994 42.5220526C7.06284442 42.8616769 6.69668166 43.139718 6.34427752 43.139718L4.52208578 43.139718C4.16968164 43.139718 3.95394646 42.860394 4.04438646 42.5196699L4.7326844 39.9109955C4.8231244 39.5702714 5.18543475 39.290764 5.53783889 39.290764L7.40882787 39.290764C7.76123201 39.290764 7.97439891 39.5689884 7.87918925 39.9097125L7.87918925 39.9097125z"/>
  </symbol>
</svg>
