<svg
	xmlns="http://www.w3.org/2000/svg"
	>
	<symbol
		id="icon--search"
		viewbox="0 0 24 24"
		preserveAspectRatio="xMaxYMid meet"
		>
		<path fill="currentColor" d="M10.6545588,2 C14.8820549,2 18.3091176,5.60518735 18.3091176,10.0524113 C18.3434245,11.8479059 17.7665226,13.597168 16.6825238,14.9845133 L16.6825238,14.9845133 L21.753669,20.3192358 C22.0772567,20.6966236 22.0826482,21.2685687 21.7662383,21.6526328 C21.4498284,22.0366969 20.9108952,22.1123746 20.5098032,21.8290629 L20.5098032,21.8290629 L20.4141212,21.7284078 L15.3429761,16.3936852 C14.0084897,17.5042656 12.3561373,18.1073267 10.6545588,18.1048227 C6.4270627,18.1048227 3,14.4996353 3,10.0524113 C3,5.60518735 6.4270627,2 10.6545588,2 Z M10.6545588,4.01310283 C7.48393673,4.01310283 4.9136397,6.71699335 4.9136397,10.0524113 C4.9136397,13.3878293 7.48393673,16.0917198 10.6545588,16.0917198 C12.1771452,16.0917198 13.6373704,15.4554374 14.7140016,14.3228473 C15.7906328,13.1902573 16.3954779,11.6541355 16.3954779,10.0524113 C16.3954779,6.71699335 13.8251809,4.01310283 10.6545588,4.01310283 Z"/>
	</symbol>
</svg>
