<svg
	xmlns="http://www.w3.org/2000/svg"
	>
	<symbol
		id="icon--reception"
		viewbox="0 0 32 32"
		preserveAspectRatio="xMaxYMid meet"
		>
		<path
			fill="currentColor" fill-rule="evenodd" d="M20.4379694,11 C22.6141473,11.0026656 24.3766065,12.7966346 24.3748572,15.0073305 L24.3748572,15.0073305 L24.3748572,16.4121175 C25.1611852,16.5756095 25.8617955,17.0252124 26.3419891,17.6774032 C27.4309527,19.1497196 27.1379384,21.240462 25.6877362,22.34581 L25.6877362,22.34581 L25.6877362,25.6662964 C25.6877362,26.4028989 25.100833,27 24.3748572,27 L24.3748572,27 L21.7499738,27 C21.034494,26.980452 20.4607108,26.3931249 20.4458414,25.6662964 L20.4458414,25.6662964 L12.5545724,25.6662964 C12.5405777,26.3940134 11.9659197,26.980452 11.25044,27 L11.25044,27 L8.62555657,27 C7.90045548,27 7.31267752,26.4028989 7.31267752,25.6662964 L7.31267752,25.6662964 L7.31267752,22.34581 C6.67067004,21.8562226 6.22721256,21.1453879 6.06714802,20.3465874 C5.70416014,18.5428444 6.84910264,16.780863 8.62555657,16.4121175 L8.62555657,16.4121175 L8.62555657,15.0073305 C8.62380723,12.7966346 10.3862665,11.0026656 12.5624444,11 L12.5624444,11 Z M23.718855,17.683623 L22.405976,17.683623 C22.0438627,17.6845116 21.7508484,17.9821736 21.7499738,18.3500305 L21.7499738,18.3500305 L21.7499738,25.6662964 L24.3748572,25.6662964 L24.3748572,21.6038763 C25.1506891,21.2902205 25.6676188,20.5358472 25.6877362,19.6872883 C25.6877362,18.5828289 24.8078186,17.6854001 23.718855,17.683623 L23.718855,17.683623 Z M10.5935631,17.683623 L9.28155876,17.683623 C8.19259512,17.6854001 7.31267752,18.5828289 7.31267752,19.6872883 C7.33017091,20.5367357 7.84710064,21.2919976 8.62555657,21.6038763 L8.62555657,21.6038763 L8.62555657,25.6662964 L11.25044,25.6662964 L11.25044,18.3500305 C11.2495653,17.9821736 10.9556764,17.6845116 10.5935631,17.683623 L10.5935631,17.683623 Z M20.4379694,20.3528072 L12.5633191,20.3528072 L12.5633191,24.3325929 L20.4379694,24.3325929 L20.4379694,20.3528072 Z M20.4379694,12.3452546 L12.5624444,12.3452546 C11.1131169,12.3452546 9.93756096,13.5394569 9.93756096,15.0117732 L9.93756096,15.0117732 L9.93756096,16.3454768 L10.5935631,16.3454768 C11.6816521,16.3481424 12.5624444,17.2446826 12.5624444,18.3500305 L12.5624444,18.3500305 L12.5624444,18.9995557 L20.4379694,18.9995557 L20.4379694,18.3500305 C20.4379694,17.2446826 21.317887,16.3481424 22.405976,16.3454768 L22.405976,16.3454768 L23.0619781,16.3454768 L23.0619781,15.0117732 C23.0593541,13.5403454 21.8864222,12.3488088 20.4379694,12.3452546 L20.4379694,12.3452546 Z"/>
	</symbol>
</svg>
