<svg
	xmlns="http://www.w3.org/2000/svg"
	>
	<symbol
		id="icon--floorview"
		viewbox="0 0 24 24"
		preserveAspectRatio="xMaxYMid meet"
		>
		<path
			fill="currentColor"
			d="M24,6.5 L24,2 L19.5,2 L19.5,3.5 L4.5,3.5 L4.5,2 L0,2 L0,6.5 L1.5,6.5 L1.5,18.5 L0,18.5 L0,23 L4.5,23 L4.5,21.5 L19.5,21.5 L19.5,23 L24,23 L24,18.5 L22.5,18.5 L22.5,6.5 L24,6.5 Z M21,3.5 L22.5,3.5 L22.5,5 L21,5 L21,3.5 Z M1.5,3.5 L3,3.5 L3,5 L1.5,5 L1.5,3.5 Z M3,21.5 L1.5,21.5 L1.5,20 L3,20 L3,21.5 Z M19.5,20 L4.5,20 L4.5,18.5 L3,18.5 L3,6.5 L4.5,6.5 L4.5,5 L19.5,5 L19.5,6.5 L21,6.5 L21,18.5 L19.5,18.5 L19.5,20 Z M22.5,21.5 L21,21.5 L21,20 L22.5,20 L22.5,21.5 Z M15,9.5 L15,6.5 L4.5,6.5 L4.5,15.5 L9,15.5 L9,18.5 L19.5,18.5 L19.5,9.5 L15,9.5 Z M6,14 L6,8 L13.5,8 L13.5,14 L6,14 Z M18,17 L10.5,17 L10.5,15.5 L15,15.5 L15,11 L18,11 L18,17 Z"
			/>
	</symbol>
</svg>
