<svg
	xmlns="http://www.w3.org/2000/svg"
	>
	<symbol
		id="icon--how-to-buy"
		viewbox="0 0 72 72"
		preserveAspectRatio="xMaxYMid meet"
		>
    <path fill="currentColor" d="M58.800276,12.4035077 C56.7369121,10.3394885 53.9932875,9.20276749 51.0751766,9.20276749 L35.9402139,9.20276749 L12.5631773,16.5422962 C12.5099426,16.5588523 12.4560278,16.5686952 12.4025664,16.5722786 C10.9337846,16.8551151 9.90770268,18.1833875 10.0065767,19.6906921 C10.1049973,21.1934835 11.3623824,22.4089932 12.8694125,22.4577769 C13.3577519,22.4658282 13.8272733,22.3749739 14.2628315,22.1637367 C14.2901064,22.150764 14.3180613,22.139583 14.3469006,22.1297174 L26.9733961,17.9596085 C29.847432,15.9081311 33.3111299,14.9280349 36.9195454,15.1768748 C37.2982641,15.2028202 37.5839356,15.5308797 37.557749,15.9099227 C37.5318119,16.2885349 37.2051942,16.5772 36.8249111,16.5481022 C32.9095802,16.2827289 29.1799131,17.597575 26.325126,20.2626246 C24.9176274,21.5770171 23.8101065,23.1633146 23.0544603,24.9022 C22.8656904,25.3369894 22.6987993,25.7813722 22.5545126,26.2333754 C22.4104753,26.6854012 22.2892236,27.145002 22.1914605,27.6104314 C21.996161,28.5415171 21.8952918,29.4956678 21.8952918,30.4583007 C21.8952918,33.7874979 23.0763844,36.9067959 25.0974871,39.351219 L25.0954692,39.3523302 C26.7241818,41.321481 28.8971664,42.8527125 31.4477361,43.6980922 C32.2988782,43.9809287 33.2097846,43.8359384 33.9470889,43.3033776 C34.7101037,42.752469 35.1476571,41.8981308 35.1476571,40.9601052 L35.1476571,40.7287286 C35.1476571,39.5024688 34.3649401,38.4315411 33.1536252,38.0005845 C31.9841408,37.5843697 30.9678988,36.9213561 30.1418096,36.0884955 L30.1547781,36.0799907 C28.6101573,34.5104988 27.7252334,32.3298841 27.8453741,30.0291132 C28.0562721,25.9990957 31.3772704,22.6770654 35.4057816,22.4662817 C37.6268543,22.3530428 39.7342932,23.1263923 41.3415577,24.6524756 C42.9497064,26.1794434 43.8355146,28.24124 43.8355146,30.4583007 C43.8355146,31.7263816 43.5346753,32.9452479 42.9906073,34.033208 C42.2054644,35.6035844 40.9104659,36.8964994 39.2853356,37.6747477 C40.0208488,38.0578504 40.702878,38.5519241 41.3055314,39.1556306 C42.0562577,39.9066181 42.6237689,40.7707991 43.0217364,41.6911347 C45.4910938,39.6857421 50.1065918,35.6904017 58.7362947,27.743583 C60.8104052,25.8335125 62,23.1192256 62,20.2961904 L62,20.1314916 C62,17.2122497 60.8636399,14.4679805 58.800276,12.4035077 L58.800276,12.4035077 Z"/>
    <path fill="currentColor" d="M35.6091298 38.1332598C35.6522979 38.1880763 35.6921106 38.245138 35.7326034 38.3017461 36.9406987 40.2465844 36.6066219 42.7670973 34.9825572 44.2342364 34.9071717 44.2971041 34.8320355 44.3602439 34.7517074 44.4181675 34.023132 44.9444688 33.1789049 45.2156707 32.3214825 45.2156707 31.8850627 45.2156707 31.4455142 45.1454322 31.015556 45.0030954 30.2292794 44.7424168 29.4751976 44.422658 28.7577995 44.0498518 28.7186444 44.3472486 28.6915963 44.6475483 28.6915963 44.9525427 28.6915963 46.7748888 29.4011724 48.4884865 30.6896412 49.7773645 31.3003205 50.3882605 32.0116651 50.8715841 32.8042219 51.2142038 32.8044486 51.2144079 32.8046753 51.2144079 32.8046753 51.2144079 32.806217 51.2152924 32.8076001 51.2159728 32.8091418 51.2166305 32.8151953 51.2193294 32.8201152 51.2233664 32.826146 51.2260425 32.860812 51.2423718 32.8946165 51.2600392 32.925927 51.2815167 32.9429312 51.2934008 32.9574415 51.3077116 32.9733348 51.320911 32.99145 51.3359249 33.0104721 51.3500089 33.0270229 51.3667917 33.0431203 51.3833705 33.0563156 51.4019223 33.0706218 51.4195897 33.0840665 51.4363952 33.0986221 51.4522709 33.1104571 51.4704145 33.1225188 51.4885128 33.1312476 51.5082213 33.1415636 51.5274536 33.1520608 51.5473662 33.1639411 51.5668253 33.1724433 51.5878719 33.1811494 51.6093494 33.1862961 51.6317341 33.1930071 51.6538693 33.1990379 51.6742582 33.2066558 51.6939214 33.2106915 51.714968 33.2173798 51.7494182 33.2198511 51.7845488 33.2211888 51.8199289 33.2216196 51.8293182 33.2241135 51.8382539 33.2241135 51.8476659L33.2241135 51.8507957 33.2241135 51.8543564 33.2241135 64.328895 33.7401812 65.277648 33.7401812 50.026658C33.7401812 49.6471386 34.0477541 49.3392412 34.427357 49.3392412 34.8067559 49.3392412 35.1145555 49.6471386 35.1145555 50.026658L35.1145555 67 37.1649281 64.7267394 36.5352494 63.9936688C36.3327854 63.7578469 36.3135593 63.4159303 36.4882723 63.1590391L37.2472514 62.0428885 36.4960942 60.9840263C36.3292032 60.7486354 36.3269813 60.4340022 36.4902675 60.1963887L37.1461554 59.2431224 37.04973 55.6445151C37.0447874 55.4588151 37.115049 55.2788756 37.2448028 55.1459735 37.3743071 55.0135024 37.5514688 54.9387733 37.7367018 54.9387733L37.7384929 54.9387733 38.4404284 54.9405423 38.4102515 54.06831 37.6928535 52.1501883C37.6622231 52.0685419 37.6499121 51.984605 37.6507963 51.9022783L37.6494586 51.9022783C37.6494586 51.8982413 37.6499121 51.8942044 37.6501388 51.8901674 37.6507963 51.8668982 37.6548319 51.8440826 37.6579607 51.821267 37.6606587 51.8002204 37.6619964 51.7791964 37.6666896 51.7586034 37.6716095 51.7364455 37.6798849 51.7151721 37.6870493 51.6936946 37.6937603 51.6735778 37.6993377 51.6529848 37.7078399 51.633299 37.7167728 51.6129327 37.7288571 51.5941314 37.7396038 51.5746724 37.7503505 51.5556442 37.7597368 51.5361852 37.772252 51.518291 37.7847898 51.5001474 37.8000029 51.4840449 37.8143318 51.4670353 37.8286381 51.4500256 37.8418334 51.4323583 37.8579534 51.4169135 37.8740508 51.4010378 37.8928461 51.3878384 37.9107346 51.3735049 37.9281696 51.3598518 37.9442897 51.3450874 37.9630623 51.3329992 37.9834448 51.3197997 38.0062531 51.3097527 38.0281773 51.2987531 38.0451815 51.2900215 38.0606214 51.2793168 38.0785099 51.2721274 38.9207191 50.9311179 39.6796982 50.4281084 40.3344526 49.7760491 41.6218331 48.4884865 42.3316132 46.7748888 42.3316132 44.9525427 42.3316132 43.129743 41.6218331 41.4161227 40.3333416 40.1272446 39.0690415 38.8611595 37.3944402 38.1578671 35.6091298 38.1332598L35.6091298 38.1332598zM14.263489 14.5670901L31.3497462 9.20276749 16.0141334 9.20276749C14.3766693 9.20276749 13.0445563 10.5355077 13.0445563 12.1734692 13.0445563 13.1217913 13.5067092 14.0112827 14.263489 14.5670901L14.263489 14.5670901zM31.200789 7.82793402L18.5170458 7.82793402C18.5922273 6.25642361 19.8900824 5 21.4792318 5 21.8214707 5 22.1561143 5.05726583 22.4746606 5.17095834 22.5086465 5.1875144 22.5439926 5.20182519 22.5809032 5.2130062L31.200789 7.82793402z"/>
  </symbol>
</svg>
