<svg
	xmlns="http://www.w3.org/2000/svg"
	>
	<symbol
		id="icon--mortgage-calculator"
		viewbox="0 0 72 72"
		preserveAspectRatio="xMaxYMid meet"
		>
    <path fill="hsl(214, 62%, 21%)" d="M55.5862955,27.8199113 C58.761864,27.8199113 61.3456919,30.4159999 61.3456919,33.6077026 L61.3456919,58.2122087 C61.3456919,61.4039114 58.761864,64 55.5862955,64 L38.8696237,64 C35.6940553,64 33.1102274,61.4039114 33.1102274,58.2122087 L33.1102274,33.6077026 C33.1102274,30.4159999 35.6940553,27.8199113 38.8696237,27.8199113 L55.5862955,27.8199113 Z M55.5862955,31.3328619 L38.8696237,31.3328619 C37.6219843,31.3328619 36.6065871,32.3536101 36.6065871,33.6077026 L36.6065871,58.2122087 C36.6065871,59.4663012 37.6219843,60.4875821 38.8696237,60.4875821 L55.5862955,60.4875821 C56.8339349,60.4875821 57.8493321,59.4663012 57.8493321,58.2122087 L57.8493321,33.6077026 C57.8493321,32.3536101 56.8339349,31.3328619 55.5862955,31.3328619 Z"/>
    <polygon fill="hsl(214, 62%, 21%)" points="51.185 47.28 55.92 47.28 55.92 43.079 51.185 43.079"/>
    <polygon fill="hsl(214, 62%, 21%)" points="51.185 58.247 55.92 58.247 55.92 48.563 51.185 48.563"/>
    <polygon fill="hsl(214, 62%, 21%)" points="38.535 41.286 55.92 41.286 55.92 33.573 38.535 33.573"/>
    <polygon fill="hsl(214, 62%, 21%)" points="46.799 10.474 46.799 14.203 48.185 14.203 48.185 15.864 51.897 19.596 51.897 14.203 56.139 14.203 56.139 23.861 59.85 27.593 59.85 14.203 62 14.203 62 10.474"/>
    <polygon fill="hsl(214, 62%, 21%)" points="44.861 47.28 49.596 47.28 49.596 43.079 44.861 43.079"/>
    <polygon fill="hsl(214, 62%, 21%)" points="44.861 58.247 49.596 58.247 49.596 54.046 44.861 54.046"/>
    <polygon fill="hsl(214, 62%, 21%)" points="44.861 52.762 49.596 52.762 49.596 48.562 44.861 48.562"/>
    <polygon fill="hsl(214, 62%, 21%)" points="38.535 58.247 43.271 58.247 43.271 54.046 38.535 54.046"/>
    <polygon fill="hsl(214, 62%, 21%)" points="38.535 52.762 43.271 52.762 43.271 48.562 38.535 48.562"/>
    <polygon fill="hsl(214, 62%, 21%)" points="38.535 47.28 43.271 47.28 43.271 43.079 38.535 43.079"/>
    <path fill="hsl(214, 62%, 21%)" d="M29.2209646,56.532982 L19.371347,56.532982 L19.371347,33.6535191 L15.6597125,37.3854298 L15.6597125,56.9698367 C15.6597125,58.7854472 17.1284593,60.262229 18.9344346,60.262229 L29.2575507,60.262229 C29.2342205,60.0480637 29.2209646,59.8312346 29.2209646,59.6112091 L29.2209646,56.532982 Z"/>
    <path fill="hsl(214, 62%, 21%)" d="M37.752952,12.9114473 L12.6257163,38.1744319 L12.6251861,38.1749646 L10.0010605,35.5394525 L10,35.538387 L35.4347711,9.96587497 C36.0530234,9.34309072 36.8759458,9 37.7534822,9 C38.6188233,9 39.4645457,9.35321296 40.0743143,9.96907147 L51.6737025,21.6043221 L51.6737025,25.7389915 L37.752952,12.9114473 Z"/>
  </symbol>
</svg>
