<svg
	xmlns="http://www.w3.org/2000/svg"
	>
	<symbol
		id="icon--facebook-alt"
		viewbox="0 0 32 32"
		preserveAspectRatio="xMaxYMid meet"
		>
    <path fill="#7B8494" fill-rule="nonzero" d="M16,0 C24.836556,0 32,7.163444 32,16 C32,24.836556 24.836556,32 16,32 C7.163444,32 0,24.836556 0,16 C0,7.163444 7.163444,0 16,0 Z M16,0.914285714 C7.66839006,0.914285714 0.914285714,7.66839006 0.914285714,16 C0.914285714,24.3316099 7.66839006,31.0857143 16,31.0857143 C24.3316099,31.0857143 31.0857143,24.3316099 31.0857143,16 C31.0857143,7.66839006 24.3316099,0.914285714 16,0.914285714 Z"/>
    <path fill="currentColor" d="M18.7364005,9.00291293 L17.0574188,9 C15.1711405,9 13.9521445,10.3523298 13.9521445,12.4454189 L13.9521445,14.0339877 L12.2640035,14.0339877 C12.1181281,14.0339877 12,14.1618655 12,14.3196009 L12,16.6212561 C12,16.7789915 12.1182628,16.9067237 12.2640035,16.9067237 L13.9521445,16.9067237 L13.9521445,22.7145324 C13.9521445,22.8722678 14.0702727,23 14.2161481,23 L16.4186919,23 C16.5645673,23 16.6826955,22.8721222 16.6826955,22.7145324 L16.6826955,16.9067237 L18.656526,16.9067237 C18.8024014,16.9067237 18.9205295,16.7789915 18.9205295,16.6212561 L18.9213377,14.3196009 C18.9213377,14.2438646 18.8934557,14.1713326 18.8440224,14.1177346 C18.7945891,14.0641366 18.7272412,14.0339877 18.6571995,14.0339877 L16.6826955,14.0339877 L16.6826955,12.6873381 C16.6826955,12.0400841 16.8253382,11.7115051 17.6050915,11.7115051 L18.7361312,11.7110681 C18.8818719,11.7110681 19,11.5831903 19,11.4256005 L19,9.28838051 C19,9.1309364 18.8820066,9.00320423 18.7364005,9.00291293 L18.7364005,9.00291293 Z"/>
  </symbol>
</svg>
