<svg
	xmlns="http://www.w3.org/2000/svg"
	>
	<symbol
		id="icon--quote"
		viewbox="0 0 36 26"
		preserveAspectRatio="xMaxYMid meet"
		>

		<path
			fill="currentColor"
			fill-rule="evenodd"
			d="M29.2433727,0.178370057 L19.922019,9.80810458 C19.7465618,9.98891216 19.6481532,10.2312712 19.6481532,10.4851712 L19.6481532,25.0297942 C19.6481532,25.5652924 20.0784048,26 20.6101163,26 L35.0387998,26 C35.5689856,26 36,25.5652924 36,25.0297942 L36,11.0599085 C36,10.5236409 35.5689856,10.0904722 35.0387998,10.0904722 L29.0648641,10.0904722 C28.4362696,10.0904722 27.9770295,9.49188367 28.1334153,8.8786767 L30.2152529,0.73002551 C30.3624844,0.152980057 29.6568413,-0.248643579 29.2433727,0.178370057 M10.5670997,0.73002551 L8.48526202,8.8786767 C8.32811341,9.49188367 8.78811638,10.0904722 9.41594796,10.0904722 L15.3898837,10.0904722 C15.9208324,10.0904722 16.3518468,10.5236409 16.3518468,11.0599085 L16.3518468,25.0297942 C16.3518468,25.5652924 15.9208324,26 15.3898837,26 L0.961200229,26 C0.430251531,26 0,25.5652924 0,25.0297942 L0,10.4851712 C0,10.2312712 0.0976457375,9.98891216 0.273102922,9.80810458 L9.59521943,0.178370057 C10.0079252,-0.248643579 10.7143311,0.152980057 10.5670997,0.73002551"
		/>
	</symbol>
</svg>
