<svg
	xmlns="http://www.w3.org/2000/svg"
	>
	<symbol
		id="icon--mail"
		viewbox="0 0 25 25"
		preserveAspectRatio="xMaxYMid meet"
		>
		<path
			fill="currentColor"
			d="M22,9.83664773 C21.6819196,10.1882102 21.3214286,10.4971591 20.9397321,10.7634943 C19.1690848,11.9673295 17.3878348,13.1818182 15.6595982,14.4389205 L15.1973509,14.7771662 C14.4796821,15.2898615 13.6576432,15.7965643 12.7983292,15.8927779 L12.4893973,15.9090909 C11.3337054,15.9090909 10.2310268,15.0994318 9.34040179,14.4389205 C7.61216518,13.1711648 5.83091518,11.9673295 4.07087054,10.7634943 C3.67857143,10.4971591 3.31808036,10.1882102 3,9.83664773 L3,18.2954545 C3,19.2329545 3.76339286,20 4.69642857,20 L20.3035714,20 C21.2366071,20 22,19.2329545 22,18.2954545 L22,9.83664773 Z M22,6.70454545 C22,7.89772727 21.1199777,8.97372159 20.186942,9.62357955 L17.7019392,11.3507635 L17.7019392,11.3507635 L15.2248884,13.0859375 C14.5931455,13.5253906 13.5604887,14.3855699 12.7312587,14.5258813 L12.4893973,14.5454432 C11.6305804,14.5454432 10.4642857,13.5653409 9.77511161,13.0859375 C8.13169643,11.9247159 6.46707589,10.7741477 4.82366071,9.62357955 C4.07087054,9.11221591 3,7.90838068 3,6.93892045 C3,5.89488636 3.56194196,5 4.69642857,5 L20.3035714,5 C21.2260045,5 22,5.76704545 22,6.70454545 Z"
			/>
	</symbol>
</svg>
