<svg xmlns="http://www.w3.org/2000/svg" width="24" height="24" viewBox="0 0 24 24">
  <path fill="#7B8494" d="M22,20.5090909 C22,18.6545455 19.2606534,17.7818182 16.9666193,17.3863636 C16.4943182,17.3045455 16.0490057,17.6181818 15.9680398,18.0954545 C15.8870739,18.5727273 16.1974432,19.0227273 16.6697443,19.1045455 C19.4495739,19.5954545 20.2322443,20.3590909 20.2727273,20.4954545 C20.1377841,20.9863636 17.546875,22.2545455 12.5,22.2545455 C7.453125,22.2545455 4.86221591,20.9863636 4.72727273,20.5227273 C4.76775568,20.3590909 5.55042614,19.5954545 8.33025568,19.1045455 C8.80255682,19.0227273 9.11292614,18.5727273 9.03196023,18.0954545 C8.95099432,17.6181818 8.50568182,17.3045455 8.03338068,17.3863636 C5.73934659,17.7818182 3,18.6545455 3,20.5090909 C3,22.8601113 7.72643974,23.9549279 12.2195305,23.9986351 L12.5,24 C17.0745739,24 22,22.9090909 22,20.5090909 Z M16.8181818,8.29090909 C16.8181818,7.32272727 16.0490057,6.54545455 15.0909091,6.54545455 L9.90909091,6.54545455 C8.95099432,6.54545455 8.18181818,7.32272727 8.18181818,8.29090909 L8.18181818,13.5272727 C8.18181818,14.0045455 8.57315341,14.4 9.04545455,14.4 L9.90909091,14.4 L9.90909091,19.6363636 C9.90909091,20.1136364 10.3004261,20.5090909 10.7727273,20.5090909 L14.2272655,20.5090909 C14.6995739,20.5090909 15.0909091,20.1136364 15.0909091,19.6363636 L15.0909091,14.4 L15.9545455,14.4 C16.4268466,14.4 16.8181818,14.0045455 16.8181818,13.5272727 L16.8181818,8.29090909 Z M15.5227201,3.05454181 C15.5227201,4.74545455 14.1732955,6.10908363 12.4999964,6.10908363 C10.8267045,6.10908363 9.47727273,4.74545455 9.47727273,3.05454181 C9.47727273,1.36363636 10.8267045,0 12.4999964,0 C14.1732955,0 15.5227201,1.36363636 15.5227201,3.05454181 Z"/>
</svg>
