<svg
	xmlns="http://www.w3.org/2000/svg"
	>
	<defs></defs>
	<symbol
		id="icon--instagram"
		viewbox="0 0 14 14"
		preserveAspectRatio="xMaxYMid meet"
		>
 		<path fill="currentColor" d="M10.5 2.907a.59.59 0 0 0 .58.593.583.583 0 0 0 .587-.573.571.571 0 0 0-.571-.594.583.583 0 0 0-.596.574M7.003 9.333a2.344 2.344 0 0 0 2.33-2.336 2.345 2.345 0 0 0-2.336-2.33 2.345 2.345 0 0 0-2.33 2.336 2.346 2.346 0 0 0 2.336 2.33M6.989 10.5C5.046 10.499 3.5 8.937 3.5 6.974 3.501 5.04 5.072 3.498 7.04 3.5c1.922.002 3.462 1.58 3.46 3.54-.002 1.91-1.576 3.46-3.51 3.46m5.843-3.615h-.029c0-.561.012-1.123-.003-1.683a21.22 21.22 0 0 0-.09-1.616c-.121-1.202-.836-2.031-2.02-2.255-.632-.12-1.288-.137-1.934-.149-1.184-.022-2.367-.019-3.55 0-.611.009-1.227.03-1.83.124-1.027.16-1.729.75-2.013 1.77-.09.326-.144.672-.152 1.011-.03 1.288-.05 2.576-.045 3.864.003.82.022 1.641.093 2.457.105 1.207.826 2.033 2.01 2.26.637.123 1.299.139 1.95.15 1.178.023 2.356.016 3.535.003.549-.006 1.1-.036 1.645-.09.507-.05.98-.215 1.388-.54.66-.525.914-1.248.953-2.051.053-1.084.063-2.17.092-3.255M6.994 14c-.945-.017-1.89-.025-2.835-.052-.816-.024-1.607-.171-2.315-.605-.927-.57-1.494-1.406-1.675-2.469a12.761 12.761 0 0 1-.156-1.933C-.008 7.557 0 6.173.015 4.789c.008-.734.032-1.47.277-2.176C.762 1.259 1.715.439 3.107.17 3.74.05 4.396.023 5.042.013 6.432-.008 7.823 0 9.213.015c.73.008 1.463.033 2.164.274 1.36.47 2.187 1.424 2.453 2.823.12.632.147 1.287.157 1.933.021 1.384.013 2.768-.002 4.151-.008.735-.032 1.472-.277 2.177-.47 1.353-1.423 2.175-2.816 2.442-.631.121-1.288.135-1.935.16-.653.025-1.308.005-1.962.005V14"/>
 </symbol>
</svg>
