<svg
	xmlns="http://www.w3.org/2000/svg"
	>
	<symbol
		id="icon--to-let"
		viewbox="0 0 66 78"
		preserveAspectRatio="xMaxYMid meet"
		>
		<path
			fill="currentColor"
			d="M66,76.0222697 C66,77.1159944 65.1453495,78 64.0936688,78 L30.9977126,78 L1.90633118,78 C0.852091653,78 0,77.1159944 0,76.0222697 L0,21.6280501 C0,20.7493538 0.516884426,19.955607 1.30500523,19.6290824 L63.152018,0.157066758 C64.5158764,-0.411032949 66,0.632252962 66,2.15603442 L66,76.0222697 Z"
			/>
		<path
			fill="#FFF"
			fill-rule="nonzero"
			d="M26.424,31.16 C26.5946675,31.16 26.7333328,31.2133328 26.84,31.32 C26.9466672,31.4266672 27,31.5653325 27,31.736 C27,31.8960008 26.9466672,32.0293328 26.84,32.136 C26.7333328,32.2426672 26.5946675,32.296 26.424,32.296 L22.616,32.296 L22.616,43.032 C22.616,43.2026675 22.5573339,43.3493327 22.44,43.472 C22.3226661,43.5946673 22.1733342,43.656 21.992,43.656 C21.8213325,43.656 21.6746673,43.5946673 21.552,43.472 C21.4293327,43.3493327 21.368,43.2026675 21.368,43.032 L21.368,32.296 L17.576,32.296 C17.4053325,32.296 17.2666672,32.2426672 17.16,32.136 C17.0533328,32.0293328 17,31.8960008 17,31.736 C17,31.5653325 17.0533328,31.4266672 17.16,31.32 C17.2666672,31.2133328 17.4053325,31.16 17.576,31.16 L26.424,31.16 Z M34.616,31 C35.8213394,31 36.9119951,31.2773306 37.888,31.832 C38.8640049,32.3866694 39.6266639,33.1493285 40.176,34.12 C40.7253361,35.0906715 41,36.1839939 41,37.4 C41,38.6160061 40.7253361,39.7119951 40.176,40.688 C39.6266639,41.6640049 38.8640049,42.4293306 37.888,42.984 C36.9119951,43.5386694 35.8213394,43.816 34.616,43.816 C33.3999939,43.816 32.3066715,43.5386694 31.336,42.984 C30.3653285,42.4293306 29.6053361,41.6640049 29.056,40.688 C28.5066639,39.7119951 28.232,38.6160061 28.232,37.4 C28.232,36.1839939 28.5066639,35.0906715 29.056,34.12 C29.6053361,33.1493285 30.3653285,32.3866694 31.336,31.832 C32.3066715,31.2773306 33.3999939,31 34.616,31 Z M34.616,32.184 C33.6346618,32.184 32.7520039,32.413331 31.968,32.872 C31.1839961,33.330669 30.5680022,33.9573294 30.12,34.752 C29.6719978,35.5466706 29.448,36.4293285 29.448,37.4 C29.448,38.3813382 29.6719978,39.2693294 30.12,40.064 C30.5680022,40.8586706 31.1839961,41.485331 31.968,41.944 C32.7520039,42.402669 33.6346618,42.632 34.616,42.632 C35.5866715,42.632 36.4639961,42.402669 37.248,41.944 C38.0320039,41.485331 38.6479978,40.8586706 39.096,40.064 C39.5440022,39.2693294 39.768,38.3813382 39.768,37.4 C39.768,36.4293285 39.5440022,35.5466706 39.096,34.752 C38.6479978,33.9573294 38.0320039,33.330669 37.248,32.872 C36.4639961,32.413331 35.5866715,32.184 34.616,32.184 Z M25.864,60.472 C26.0453342,60.472 26.1946661,60.5279994 26.312,60.64 C26.4293339,60.7520006 26.488,60.8933325 26.488,61.064 C26.488,61.2346675 26.4293339,61.3759994 26.312,61.488 C26.1946661,61.6000006 26.0453342,61.656 25.864,61.656 L18.984,61.656 C18.8133325,61.656 18.6666673,61.5946673 18.544,61.472 C18.4213327,61.3493327 18.36,61.2026675 18.36,61.032 L18.36,49.784 C18.36,49.6133325 18.4213327,49.4666673 18.544,49.344 C18.6666673,49.2213327 18.8133325,49.16 18.984,49.16 C19.1653342,49.16 19.3146661,49.2186661 19.432,49.336 C19.5493339,49.4533339 19.608,49.6026658 19.608,49.784 L19.608,60.472 L25.864,60.472 Z M36.616,60.456 C36.7973342,60.456 36.9466661,60.5119994 37.064,60.624 C37.1813339,60.7360006 37.24,60.8773325 37.24,61.048 C37.24,61.2186675 37.1813339,61.3626661 37.064,61.48 C36.9466661,61.5973339 36.7973342,61.656 36.616,61.656 L29.112,61.656 C28.9413325,61.656 28.7946673,61.5946673 28.672,61.472 C28.5493327,61.3493327 28.488,61.2026675 28.488,61.032 L28.488,49.784 C28.488,49.6026658 28.5493327,49.4533339 28.672,49.336 C28.7946673,49.2186661 28.9413325,49.16 29.112,49.16 L36.616,49.16 C36.7973342,49.16 36.9466661,49.2186661 37.064,49.336 C37.1813339,49.4533339 37.24,49.5973325 37.24,49.768 C37.24,49.9386675 37.1813339,50.0799994 37.064,50.192 C36.9466661,50.3040006 36.7973342,50.36 36.616,50.36 L29.736,50.36 L29.736,54.776 L34.744,54.776 C34.9253342,54.776 35.0746661,54.8346661 35.192,54.952 C35.3093339,55.0693339 35.368,55.2133325 35.368,55.384 C35.368,55.5546675 35.3066673,55.6986661 35.184,55.816 C35.0613327,55.9333339 34.9146675,55.992 34.744,55.992 L29.736,55.992 L29.736,60.456 L36.616,60.456 Z M47.624,49.16 C47.7946675,49.16 47.9333328,49.2133328 48.04,49.32 C48.1466672,49.4266672 48.2,49.5653325 48.2,49.736 C48.2,49.8960008 48.1466672,50.0293328 48.04,50.136 C47.9333328,50.2426672 47.7946675,50.296 47.624,50.296 L43.816,50.296 L43.816,61.032 C43.816,61.2026675 43.7573339,61.3493327 43.64,61.472 C43.5226661,61.5946673 43.3733342,61.656 43.192,61.656 C43.0213325,61.656 42.8746673,61.5946673 42.752,61.472 C42.6293327,61.3493327 42.568,61.2026675 42.568,61.032 L42.568,50.296 L38.776,50.296 C38.6053325,50.296 38.4666672,50.2426672 38.36,50.136 C38.2533328,50.0293328 38.2,49.8960008 38.2,49.736 C38.2,49.5653325 38.2533328,49.4266672 38.36,49.32 C38.4666672,49.2133328 38.6053325,49.16 38.776,49.16 L47.624,49.16 Z"
		/>
	</symbol>
</svg>
