<svg
	xmlns="http://www.w3.org/2000/svg"
	>
	<defs></defs>
	<symbol
		id="icon--print"
		viewbox="0 0 25 25"
		preserveAspectRatio="xMaxYMid meet"
		>
		<path
			fill="currentColor"
			d="M22,13.2083333 L22,17.8125 C22,18.000651 21.828726,18.1666667 21.6346154,18.1666667 L19.0769231,18.1666667 L19.0769231,19.9375 C19.0769231,20.5240885 18.5859375,21 17.9807692,21 L7.01923077,21 C6.4140625,21 5.92307692,20.5240885 5.92307692,19.9375 L5.92307692,18.1666667 L3.36538462,18.1666667 C3.17127404,18.1666667 3,18.000651 3,17.8125 L3,13.2083333 C3,12.046224 3.99338942,11.0833333 5.19230769,11.0833333 L5.92307692,11.0833333 L5.92307692,5.0625 C5.92307692,4.47591146 6.4140625,4 7.01923077,4 L14.6923077,4 C15.297476,4 16.1310096,4.33203125 16.5649038,4.75260417 L18.3004808,6.43489583 C18.734375,6.85546875 19.0769231,7.66341146 19.0769231,8.25 L19.0769231,11.0833333 L19.8076923,11.0833333 C21.0066106,11.0833333 22,12.046224 22,13.2083333 Z M20.5384615,13.2083333 C20.5384615,12.8209635 20.2073317,12.5 19.8076923,12.5 C19.4080529,12.5 19.0769231,12.8209635 19.0769231,13.2083333 C19.0769231,13.5957031 19.4080529,13.9166667 19.8076923,13.9166667 C20.2073317,13.9166667 20.5384615,13.5957031 20.5384615,13.2083333 Z M7.38461538,12.5 L17.6153846,12.5 L17.6153846,8.25 L15.7884615,8.25 C15.1832933,8.25 14.6923077,7.77408854 14.6923077,7.1875 L14.6923077,5.41666667 L7.38461538,5.41666667 L7.38461538,12.5 Z M7.38461538,19.5833333 L17.6153846,19.5833333 L17.6153846,16.75 L7.38461538,16.75 L7.38461538,19.5833333 Z"
			/>
	</symbol>
</svg>
