<svg
	xmlns="http://www.w3.org/2000/svg"
	>
	<symbol
		id="icon--epc"
		viewbox="0 0 24 24"
		preserveAspectRatio="xMaxYMid meet"
		>
		<path
			fill="currentColor"
			d="M12.0000143,3 C18.6160936,3 24.0000286,8.42471591 24.0000286,15.0909091 C24.0000286,17.4119318 23.3437778,19.6519886 22.1116335,21.6086648 C21.950919,21.8515625 21.6830616,22 21.3884184,22 L2.61161026,22 C2.31696705,22 2.04910959,21.8515625 1.88839511,21.6086648 C0.656250782,19.665483 0,17.4119318 0,15.0909091 C0,8.42471591 5.38393499,3 12.0000143,3 Z M14.1830526,9.32883523 C13.7276949,9.20738636 13.2589444,9.49076705 13.1384085,9.94957386 L13.1384085,9.94957386 L11.7857283,15.1044034 C10.7276914,15.1853693 9.80358312,15.9275568 9.50893991,17.0205966 C9.14733233,18.4105114 9.97769047,19.8274148 11.3437635,20.1917614 C12.7232295,20.556108 14.1294811,19.7194602 14.4910887,18.3430398 C14.772339,17.25 14.3169814,16.1434659 13.4464446,15.5362216 L13.4464446,15.5362216 L14.7991248,10.381392 C14.9062678,9.92258523 14.6384103,9.45028409 14.1830526,9.32883523 Z M3.42857552,13.3636364 C2.47768153,13.3636364 1.71428776,14.1328125 1.71428776,15.0909091 C1.71428776,16.0490057 2.47768153,16.8181818 3.42857552,16.8181818 C4.37946951,16.8181818 5.14286327,16.0490057 5.14286327,15.0909091 C5.14286327,14.1328125 4.37946951,13.3636364 3.42857552,13.3636364 Z M20.5714531,13.3636364 C19.6205591,13.3636364 18.8571653,14.1328125 18.8571653,15.0909091 C18.8571653,16.0490057 19.6205591,16.8181818 20.5714531,16.8181818 C21.5223471,16.8181818 22.2857409,16.0490057 22.2857409,15.0909091 C22.2857409,14.1328125 21.5223471,13.3636364 20.5714531,13.3636364 Z M6.00000715,7.31818182 C5.04911316,7.31818182 4.28571939,8.08735795 4.28571939,9.04545455 C4.28571939,10.0035511 5.04911316,10.7727273 6.00000715,10.7727273 C6.95090114,10.7727273 7.71429491,10.0035511 7.71429491,9.04545455 C7.71429491,8.08735795 6.95090114,7.31818182 6.00000715,7.31818182 Z M18.0000215,7.31818182 C17.0491275,7.31818182 16.2857337,8.08735795 16.2857337,9.04545455 C16.2857337,10.0035511 17.0491275,10.7727273 18.0000215,10.7727273 C18.9509154,10.7727273 19.7143092,10.0035511 19.7143092,9.04545455 C19.7143092,8.08735795 18.9509154,7.31818182 18.0000215,7.31818182 Z M12.0000143,4.72727273 C11.0491203,4.72727273 10.2857265,5.49644886 10.2857265,6.45454545 C10.2857265,7.41264205 11.0491203,8.18181818 12.0000143,8.18181818 C12.9509083,8.18181818 13.7143021,7.41264205 13.7143021,6.45454545 C13.7143021,5.49644886 12.9509083,4.72727273 12.0000143,4.72727273 Z"/>
	</symbol>
</svg>
