<svg
	xmlns="http://www.w3.org/2000/svg"
	>
	<symbol
		id="icon--testimonial"
		viewbox="0 0 72 72"
		preserveAspectRatio="xMaxYMid meet"
		>
		<path d="M28.4868317,12.2750861 L38.215778,12.2750861 L38.215778,22.3994685 C38.215778,24.2962613 37.6657298,25.7673066 36.5667265,26.8119056 C35.1456445,28.1619364 33.0955101,28.3789039 30.7663268,28.3789039 L30.7663268,26.0634527 C32.0602071,25.9332523 33.2046253,25.4553847 33.9496499,24.7079303 C34.3557018,24.2993566 34.5591252,23.2639435 34.5591252,22.3994685 L34.5591252,21.2366507 L28.4868317,21.2366507 L28.4868317,12.2750861 Z M14.7841227,12.2750861 L24.5131683,12.2750861 L24.5131683,22.3994685 C24.5131683,24.2962613 23.9631201,25.7673066 22.8640175,26.8119056 C21.4430348,28.1619364 19.3927016,28.3789039 17.0637171,28.3789039 L17.0637171,26.0634527 C18.3575974,25.9332523 19.5020157,25.4553847 20.2469409,24.7079303 C20.6530921,24.2993566 20.8564162,23.2639435 20.8564162,22.3994685 L20.8564162,21.2366507 L14.7841227,21.2366507 L14.7841227,12.2750861 Z M49.6945433,35.3126765 C49.6945433,35.7959358 49.3045904,36.1878352 48.8236088,36.1878352 L41.7825945,36.1878352 C40.8697232,36.1878352 40.1298662,36.9311958 40.1298662,37.8482902 L40.1298662,46.688441 L28.6109528,36.5967085 C28.3099418,36.3330127 27.9241627,36.1878352 27.5247691,36.1878352 L4.17639118,36.1878352 C3.69531019,36.1878352 3.30535732,35.7959358 3.30535732,35.3126765 L3.30535732,4.19606872 C3.30535732,3.71280941 3.69531019,3.32100991 4.17639118,3.32100991 L48.8236088,3.32100991 C49.3045904,3.32100991 49.6945433,3.71280941 49.6945433,4.19616856 L49.6945433,35.3126765 Z M48.8236088,0 L4.17639118,0 C1.86976633,0 0,1.87862065 0,4.19606872 L0,35.3126765 C0,37.6301246 1.86976633,39.5087453 4.17639118,39.5087453 L26.9054556,39.5087453 L40.6964108,51.5910268 C41.0033844,51.8600146 41.3909523,52 41.7828926,52 C42.1139153,52 42.448118,51.9002529 42.7396883,51.6937694 C43.1863851,51.3774542 43.4353229,50.8480656 43.4353229,50.2989073 L43.4352235,39.5087453 L48.8236088,39.5087453 C51.1301343,39.5087453 53,37.6301246 53,35.3126765 L53,4.19606872 C53,1.87862065 51.1301343,0 48.8236088,0 L48.8236088,0 Z" id="Fill-1" fill="#143055" mask="url(#mask-2)"></path>
	</symbol>
</svg>
