<svg
	xmlns="http://www.w3.org/2000/svg"
	>
	<symbol
		id="icon--instagram-alt"
		viewbox="0 0 32 32"
		preserveAspectRatio="xMaxYMid meet"
		>
    <path fill="#7B8494" fill-rule="nonzero" d="M16,0 C24.836556,0 32,7.163444 32,16 C32,24.836556 24.836556,32 16,32 C7.163444,32 0,24.836556 0,16 C0,7.163444 7.163444,0 16,0 Z M16,0.914285714 C7.66839006,0.914285714 0.914285714,7.66839006 0.914285714,16 C0.914285714,24.3316099 7.66839006,31.0857143 16,31.0857143 C24.3316099,31.0857143 31.0857143,24.3316099 31.0857143,16 C31.0857143,7.66839006 24.3316099,0.914285714 16,0.914285714 Z"/>
    <path fill="currentColor" d="M19.000077,12.4916774 C18.9947444,12.7641651 19.2207868,12.9951872 19.4977851,12.9999261 C19.7679696,13.0046651 19.9969746,12.7807513 19.9999371,12.5088559 C20.0034922,12.2233362 19.7910775,12.0026805 19.5108204,12.0000148 C19.2299707,11.9979416 19.0054095,12.2135622 19.000077,12.4916774 M16.0025641,18 C17.1004383,17.9978544 18.0021258,17.0940237 17.9999879,15.9974328 C17.9978423,14.8999853 17.0922995,13.9965829 15.9974238,14 C14.8982646,14.0034366 13.9982904,14.9059822 14.0000014,16.0025731 C14.0021456,17.1000207 14.90726,18.002138 16.0025641,18 M15.9908219,19 C14.3249028,18.9991662 12.9991714,17.6601825 13.0000048,15.9776987 C13.000839,14.320227 14.3478321,12.9979181 16.034596,13 C17.6813379,13.0016699 19.0020665,14.3535765 18.9999845,16.0343929 C18.9983144,17.671438 17.6492368,19.0004168 15.9908219,19 M20.9999777,15.9018107 C20.9917199,15.9018107 20.983462,15.9018107 20.9752042,15.9013757 C20.9752042,15.4202865 20.9847659,14.9391974 20.9721618,14.4589782 C20.960427,13.9965933 20.9426074,13.5333383 20.8956681,13.0735633 C20.7913585,12.0430929 20.1785393,11.3327687 19.1636934,11.140507 C18.6221526,11.0378515 18.0593151,11.0234971 17.5056048,11.0134926 C16.4911935,10.9943534 15.4767823,10.9969633 14.4628056,11.0126226 C13.9390843,11.0204523 13.4110168,11.0391564 12.8951187,11.119193 C12.0141368,11.256212 11.4126179,11.7616601 11.1692287,12.6359722 C11.0914311,12.9161001 11.0457956,13.2127572 11.0392763,13.5033246 C11.0127643,14.6068718 10.9966832,15.7108539 11.0005948,16.8152711 C11.0032025,17.5173306 11.0192836,18.2220001 11.0796963,18.9210148 C11.170098,19.9558349 11.7881326,20.6639843 12.8029785,20.8588558 C13.348431,20.9636863 13.9160493,20.9771707 14.4741058,20.9876102 C15.4837362,21.0067494 16.4938013,21.0006597 17.5038663,20.9897851 C17.9745635,20.9841304 18.4465647,20.9584665 18.9146542,20.9123585 C19.3488431,20.8697303 19.7547814,20.7279265 20.1037841,20.4499735 C20.6692293,19.999768 20.8878449,19.3794849 20.9208763,18.6913448 C20.9660771,17.762225 20.9752042,16.8322353 20.9999777,15.9018107 M15.995269,22 C15.1849208,21.9854599 14.3745727,21.9781898 13.5646526,21.9550966 C12.8651762,21.934997 12.1875316,21.8088399 11.5805196,21.4367832 C10.7855822,20.9484054 10.2997158,20.2316618 10.1447522,19.3207646 C10.0522878,18.7763644 10.0193259,18.2169965 10.0107644,17.6636157 C9.99278517,16.4777387 10.0000149,15.2910063 10.0129047,14.1047016 C10.019754,13.4760541 10.0403016,12.8444132 10.250487,12.2392866 C10.6528786,11.0794962 11.4696479,10.3760098 12.6635523,10.1467887 C13.2054967,10.0424418 13.7679888,10.0197763 14.3219193,10.0112233 C15.5136833,9.99283425 16.7054473,9.99967667 17.8972113,10.0129339 C18.5226306,10.0197763 19.1506183,10.0407312 19.7520653,10.2481421 C20.9181448,10.6501343 21.6261827,11.4682313 21.8539192,12.6673655 C21.9570856,13.2091997 21.9806298,13.7707059 21.9891913,14.3245143 C22.0071705,15.5103914 21.9999744,16.6966961 21.987479,17.8825732 C21.9802017,18.5120759 21.959654,19.1437169 21.7498967,19.7484159 C21.3475051,20.9082062 20.5303078,21.6125479 19.3364034,21.8413414 C18.794887,21.9452606 18.2319669,21.9568072 17.6776083,21.9786174 C17.1181127,22 16.5564768,21.9828939 15.9956971,21.9828939 C15.9956971,21.9888811 15.995269,21.9944405 15.995269,22"/>
  </symbol>
</svg>
