<svg
	xmlns="http://www.w3.org/2000/svg"
	>
	<symbol
		id="icon--viewing"
		viewbox="0 0 24 24"
		preserveAspectRatio="xMaxYMid meet"
		>
		<path
			fill="currentColor"
			d="M12.0000143,4.57141018 C16.7544843,4.57141018 21.2678825,7.24068101 23.7321711,11.1729727 C23.8928856,11.4464102 24.0000286,11.7458893 24.0000286,12.0714102 C24.0000286,12.396931 23.8928856,12.6964102 23.7321711,12.9698477 C21.2678825,16.9151602 16.7544843,19.5714102 12.0000143,19.5714102 C7.24554435,19.5714102 2.73214611,16.9021393 0.267857462,12.9698477 C0.107142985,12.6964102 0,12.396931 0,12.0714102 C0,11.7458893 0.107142985,11.4464102 0.267857462,11.1729727 C2.73214611,7.24068101 7.24554435,4.57141018 12.0000143,4.57141018 Z M17.1830562,7.47505601 C17.7187711,8.36047268 18.0000215,9.37609768 18.0000215,10.4047435 C18.0000215,13.6208893 15.308054,16.2380768 12.0000143,16.2380768 C8.69197465,16.2380768 6.00000715,13.6208893 6.00000715,10.4047435 C6.00000715,9.37609768 6.28125749,8.36047268 6.81697241,7.47505601 C4.72768421,8.51672268 2.9866107,10.1573477 1.71428776,12.0714102 C4.00446906,15.5089102 7.70090204,17.9047435 12.0000143,17.9047435 C16.2991266,17.9047435 19.9955596,15.5089102 22.2857409,12.0714102 C21.0134179,10.1573477 19.2723444,8.51672268 17.1830562,7.47505601 Z M12.0000143,6.44641018 C9.7634045,6.44641018 7.92858088,8.23026435 7.92858088,10.4047435 C7.92858088,10.7432852 8.22322409,11.0297435 8.57143879,11.0297435 C8.91965349,11.0297435 9.2142967,10.7432852 9.2142967,10.4047435 C9.2142967,8.92036851 10.4732268,7.69641018 12.0000143,7.69641018 C12.348229,7.69641018 12.6428722,7.40995185 12.6428722,7.07141018 C12.6428722,6.73286851 12.348229,6.44641018 12.0000143,6.44641018 Z"
			/>
	</symbol>
</svg>
