<svg
	xmlns="http://www.w3.org/2000/svg"
	>
	<symbol
		id="icon--bedrooms"
		viewbox="0 0 32 32"
		preserveAspectRatio="xMaxYMid meet"
		>
		<path
			fill="currentColor" fill-rule="evenodd" d="M3.97464263,11 C4.15397688,11 4.29952351,11.1492753 4.29952351,11.3332038 L4.29952351,11.3332038 L4.29952351,22.9997779 L13.3996535,22.9997779 L13.3996535,15.6666296 C13.3996535,15.2978842 13.6907467,15.0002221 14.0494152,15.0002221 L14.0494152,15.0002221 L24.449935,15.0002221 C26.9632135,15.0002221 29,17.0891875 29,19.6659632 L29,19.6659632 L29,26.6659077 C29,26.8507247 28.8544534,27 28.6751191,27 L28.6751191,27 L28.0253574,27 C27.8460231,27 27.7004765,26.8507247 27.7004765,26.6659077 L27.7004765,26.6659077 L27.7004765,24.3325929 L4.29952351,24.3325929 L4.29952351,26.6659077 C4.29952351,26.8507247 4.15397688,27 3.97464263,27 L3.97464263,27 L3.32488088,27 C3.14554663,27 3,26.8507247 3,26.6659077 L3,26.6659077 L3,11.3332038 C3,11.1492753 3.14554663,11 3.32488088,11 L3.32488088,11 Z M24.449935,16.3330372 L14.7000433,16.3330372 L14.7000433,22.9997779 L27.7004765,22.9997779 L27.7004765,19.6659632 C27.6978774,17.8266785 26.2441438,16.3348142 24.449935,16.3330372 L24.449935,16.3330372 Z M8.84958848,15.0002221 C10.6446636,15.0002221 12.0992636,16.4920864 12.0992636,18.3331482 C12.0992636,20.17421 10.6446636,21.6660743 8.84958848,21.6660743 C7.05537969,21.6642972 5.60164606,20.1733215 5.59991337,18.3331482 C5.59991337,16.4920864 7.05451335,15.0002221 8.84958848,15.0002221 Z M8.84958848,16.3330372 C7.77271667,16.3339257 6.90030322,17.2286888 6.89943687,18.3331482 C6.89943687,19.4376076 7.77271667,20.3332593 8.84958848,20.3332593 C9.9264603,20.3332593 10.7997401,19.4376076 10.7997401,18.3331482 C10.7997401,17.2286888 9.9264603,16.3330372 8.84958848,16.3330372 Z"/>
		</symbol>
</svg>
