<svg
	xmlns="http://www.w3.org/2000/svg"
	>
	<defs></defs>
	<symbol
		id="icon--twitter"
		viewbox="0 0 25 25"
		preserveAspectRatio="xMaxYMid meet"
		>
		<path fill="currentColor" d="M21.2946644,7.41069928 C20.8035924,8.12498584 20.1897524,8.76114732 19.4866265,9.27454079 C19.4977873,9.43079097 19.4977873,9.58704116 19.4977873,9.74329134 C19.4977873,14.508922 15.8705508,20 9.24107861,20 C7.19866546,20 5.30134177,19.4084814 3.70535773,18.3816945 C3.99553665,18.4151767 4.27455484,18.4263374 4.57589448,18.4263374 C6.26116435,18.4263374 7.81250548,17.8571403 9.05134624,16.886157 C7.46652293,16.8526748 6.13839634,15.8147272 5.68080651,14.386154 C5.90402106,14.4196362 6.12723562,14.4419577 6.36161089,14.4419577 C6.68527199,14.4419577 7.00893309,14.3973147 7.31027274,14.3191897 C5.65848506,13.9843678 4.41964429,12.5334732 4.41964429,10.781239 C4.41964429,10.7700783 4.41964429,10.7477568 4.41964429,10.7365961 C4.89955558,11.0044536 5.45759196,11.1718645 6.04911052,11.1941859 C5.07812722,10.5468637 4.44196575,9.4419517 4.44196575,8.19195021 C4.44196575,7.52230655 4.62053739,6.90846654 4.93303776,6.37275161 C6.70759345,8.56025422 9.37500734,9.98882735 12.3660823,10.1450775 C12.3102787,9.87722008 12.2767965,9.59820189 12.2767965,9.3191837 C12.2767965,7.33257418 13.8839413,5.71426868 15.8817115,5.71426868 C16.9196592,5.71426868 17.8571603,6.14953706 18.5156432,6.8526629 C19.3303764,6.69641271 20.1116273,6.39507307 20.8035924,5.98212615 C20.5357349,6.81918072 19.9665378,7.52230655 19.2187691,7.96873566 C19.9442164,7.89061056 20.6473422,7.68971747 21.2946644,7.41069928 Z"/>
	</symbol>
</svg>
