<svg
	xmlns="http://www.w3.org/2000/svg"
	>
	<symbol
		id="icon--stamp-duty-calculator"
		viewbox="0 0 72 72"
		preserveAspectRatio="xMaxYMid meet"
		>
    <path fill="hsl(214, 62%, 21%)" d="M54 58.55136C54 62.6712 45.93456 66 36 66 26.05872 66 18 62.6712 18 58.55136 18 54.42312 26.05872 51.09408 36 51.09408 45.93456 51.09408 54 54.42312 54 58.55136L54 58.55136zM28.43088 31.4352C28.07448 31.92216 27.87336 32.44488 27.87336 32.99808 27.87336 35.37216 31.51176 37.29504 35.99976 37.29504 40.48776 37.29504 44.12592 35.37216 44.12592 32.99808 44.12592 32.44488 43.92504 31.92216 43.5684 31.4352 42.9264 30.40752 40.85736 28.59264 40.85736 27.27624L40.85736 27.234C40.85736 25.7496 41.18136 24.56568 41.67456 23.628 39.94944 24.06072 38.01 24.31296 35.99976 24.31296 33.98928 24.31296 32.04984 24.06072 30.32496 23.628 30.81768 24.56568 31.14192 25.7496 31.14192 27.234L31.14192 27.27624C31.14192 28.59264 29.07312 30.40752 28.43088 31.4352L28.43088 31.4352z"/>
    <path fill="hsl(0, 0%, 100%)" d="M49.72392,58.55136 C49.72392,55.4136 43.56624,52.85856 36,52.85856 C28.42704,52.85856 22.26288,55.4136 22.26288,58.55136 C22.26288,61.68864 28.42704,64.24368 36,64.24368 C43.56624,64.24368 49.72392,61.68864 49.72392,58.55136 L49.72392,58.55136 Z"/>
    <path fill="hsl(214, 62%, 21%)" d="M43.10496,55.0476 C40.99824,55.61304 38.97264,56.36256 37.08432,57.26952 C35.43864,58.05192 33.99936,58.9176 32.77128,59.82456 C31.92336,58.98408 31.15056,58.59264 30.2784,58.59264 C29.67984,58.59264 29.04408,58.75104 28.32744,59.034 L27.492,59.37528 L28.6452,59.43312 C28.92552,59.442 29.20608,59.54184 29.49936,59.73288 C29.86032,59.96592 30.3156,60.38256 30.85776,60.98136 L31.11336,61.26432 C31.39368,61.58064 31.48752,61.72224 31.52448,61.79712 L31.6992,62.22144 L32.42208,61.93032 C32.70888,61.81368 33.05808,61.69728 33.45696,61.58064 L34.09248,61.38936 L34.15512,61.31424 C34.9464,60.34056 36.28632,59.3088 38.1,58.2768 C39.91992,57.2364 41.9208,56.36256 44.05224,55.6884 L44.43216,55.572 L43.59096,54.92256 L43.10496,55.0476 Z"/>
    <path fill="hsl(214, 62%, 21%)" d="M35.99976 48.426C45.93888 48.426 54 44.69712 54 40.0668L53.49504 36.9492C53.49504 33.73536 50.05056 30.93504 44.27592 29.5416 44.57712 29.89752 44.8548 30.23856 45.06408 30.56328 45.61344 31.33104 45.89208 32.14992 45.89208 32.99808 45.89208 36.32544 41.54688 38.93208 35.99976 38.93208 30.4524 38.93208 26.1072 36.32544 26.1072 32.99808 26.1072 32.14992 26.38584 31.33104 26.93544 30.56328 27.14448 30.23856 27.42216 29.89728 27.7236 29.5416 21.94872 30.9348 18.50448 33.73536 18.50448 36.9492L18 40.0668C18 44.69712 26.05992 48.426 35.99976 48.426L35.99976 48.426zM35.99976 23.0328C42.26472 23.0328 47.3496 20.44272 47.3496 18.19464 47.3496 17.8824 45.42312 12.13032 45.42312 12.13032 43.94448 14.09568 40.3776 15.41208 35.99976 15.41208 31.62192 15.41208 28.05504 14.09568 26.58264 12.13032 26.58264 12.13032 24.64992 17.8824 24.64992 18.19464 24.64992 20.44272 29.7348 23.0328 35.99976 23.0328L35.99976 23.0328z"/>
    <path fill="hsl(214, 62%, 21%)" d="M27.23784,10.06272 C27.23784,7.82688 31.16136,6 35.99976,6 C40.83792,6 44.76168,7.82688 44.76168,10.06272 C44.76168,12.31656 40.83792,14.13192 35.99976,14.13192 C31.16136,14.13192 27.23784,12.31656 27.23784,10.06272 L27.23784,10.06272 Z"/>
	</symbol>
</svg>
