<svg
	xmlns="http://www.w3.org/2000/svg"
	>
	<symbol
		id="icon--map"
		viewbox="0 0 24 24"
		preserveAspectRatio="xMaxYMid meet"
		>
		<path
			fill="currentColor"
			d="M6.85715103,0.428546906 C6.79018667,0.428546906 6.7232223,0.441939779 6.65625793,0.482118398 L0.227678843,3.91069391 C0.0937501118,3.97765828 0,4.12497988 0,4.28569436 L0,24.0000036 C0,24.2276824 0.200893097,24.4285755 0.428571939,24.4285755 C0.495536305,24.4285755 0.562500671,24.4151826 0.629465036,24.375004 L7.05804413,20.9464285 C7.19197286,20.8794641 7.28572297,20.7321425 7.28572297,20.5714281 L7.28572297,0.857118845 C7.28572297,0.629440002 7.08482987,0.428546906 6.85715103,0.428546906 Z M23.5714567,0.428546906 C23.5044923,0.428546906 23.4375279,0.441939779 23.3705636,0.482118398 L16.9419845,3.91069391 C16.8080558,3.97765828 16.7143056,4.12497988 16.7143056,4.28569436 L16.7143056,24.0000036 C16.7143056,24.2276824 16.9151987,24.4285755 17.1428776,24.4285755 C17.2098419,24.4285755 17.2768063,24.4151826 17.3437707,24.375004 L23.7723498,20.9464285 C23.9062785,20.8794641 24.0000286,20.7321425 24.0000286,20.5714281 L24.0000286,0.857118845 C24.0000286,0.629440002 23.7991355,0.428546906 23.5714567,0.428546906 Z M8.57143879,0.428546906 C8.63840315,0.428546906 8.70536752,0.441939779 8.75893901,0.468725525 L15.61609,3.89730104 C15.7634116,3.97765828 15.8571618,4.12497988 15.8571618,4.28569436 L15.8571618,24.0000036 C15.8571618,24.2276824 15.6562687,24.4285755 15.4285898,24.4285755 C15.3616255,24.4285755 15.2946611,24.4151826 15.2410896,24.3883969 L8.38393857,20.9598214 C8.23661696,20.8794641 8.14286685,20.7321425 8.14286685,20.5714281 L8.14286685,0.857118845 C8.14286685,0.629440002 8.34375995,0.428546906 8.57143879,0.428546906 Z"/>
	</symbol>
</svg>
