<svg version="1" xmlns="http://www.w3.org/2000/svg" width="800" height="800" viewBox="0 0 600.000000 600.000000"><path d="M83 14c-1.1 1.1-2 3.1-2 4.4 0 1.8 38.7 41.1 163.5 165.9C375.8 315.7 408 348.4 408 350.5c0 1.4-.9 3.4-2 4.5-1.9 1.9-3.3 2-31.4 2-26.7 0-29.6.2-31.6 1.8l-2.2 1.8v225.9l2.2 1.7c2.1 1.7 8.8 1.8 122.6 1.8 119.1 0 120.4 0 122.4-2s2-3.3 2-287 0-285-2-287-3.3-2-252.5-2S85 12 83 14zM15 410c-2 2-2 3.3-2 89s0 87 2 89 3.3 2 56 2 54 0 56-2 2-3.3 2-89 0-87-2-89-3.3-2-56-2-54 0-56 2z"/></svg>