<svg
	xmlns="http://www.w3.org/2000/svg"
	>
	<symbol
		id="logo-taylor-cole-signature"
		viewbox="0 0 226 184"
		preserveAspectRatio="xMaxYMid meet"
		>

		<g fill="none" fill-rule="evenodd">
			<path fill="currentColor" d="M30 3.02976036L30 2.10850381C30 1.44471226 29.5599271 1 28.9030604 1L1.09786603 1C.443778759 1 0 1.44471226 0 2.10850381L0 3.02976036C0 3.69261568.443778759 4.13826418 1.09786603 4.13826418L13.3615392 4.13826418 13.3615392 46.8905599C13.3615392 47.5534153 13.8025385 48 14.4566258 48L15.5452271 48C16.2002409 48 16.6412402 47.5534153 16.6412402 46.8905599L16.6412402 4.13826418 28.9030604 4.13826418C29.5599271 4.13826418 30 3.69261568 30 3.02976036M65.6410047 47.1929643C65.8459744 47.706958 66.272684 48 66.8111952 48L67.9730006 48C68.4938099 48 68.7444319 47.7509611 68.8469167 47.6030358 68.9503332 47.453238 69.0947437 47.1293002 68.9139977 46.6349674L51.4254265 1.80609948C51.2213885 1.29304197 50.7946789 1 50.2543043 1L48.7449822 1C48.2046076 1 47.777898 1.29304197 47.57386 1.80890819L30.0862205 46.6349674C29.9054745 47.1293002 30.0489533 47.453238 30.1533015 47.6020996 30.256718 47.7509611 30.5054767 48 31.029081 48L32.189023 48C32.7284659 48 33.1542438 47.706958 33.3601451 47.1901556L37.7567446 35.8392263 61.2434736 35.8392263 65.6410047 47.1929643zM60.0285625 32.7000259L38.9744507 32.7000259 49.5015066 5.52108524 60.0285625 32.7000259 60.0285625 32.7000259zM80.8377858 26.0400781L80.8377858 46.8915183C80.8377858 47.5637226 81.272415 48 81.9430123 48L83.0370467 48C83.7076441 48 84.1404079 47.5637226 84.1404079 46.8915183L84.1404079 26.0719095 99.7823947 2.49701207C100.020228 2.14873909 100.064997 1.77799689 99.9073739 1.4765348 99.7488182 1.17413649 99.4130532 1 98.9858855 1L97.7706026 1C97.2762819 1 96.8854887 1.2115852 96.6075499 1.62726585L82.5007553 22.9028126 68.3920955 1.62632963C68.1150893 1.2115852 67.7233635 1 67.2309081 1L66.0137599 1C65.5875248 1 65.2508271 1.17413649 65.0922714 1.47747102 64.9346484 1.77893311 64.9812824 2.14967531 65.2144526 2.49139477L80.8377858 26.0400781"/>
			<path fill="currentColor" d="M25.7846707 47.4103774L25.7846707 46.4820755C25.7846707 45.8132075 25.3376951 45.3650943 24.6728659 45.3650943L3.32696341 45.3650943 3.32696341 2.28490566C3.32696341 1.61792453 2.8799878 1.16886792 2.21609756 1.16886792L1.1127439 1.16886792C.448853659 1.16886792.00187804878 1.61792453.00187804878 2.28490566L.00187804878 47.4103774C.00187804878 48.0783019.448853659 48.5273585 1.1127439 48.5273585L24.6728659 48.5273585C25.3376951 48.5273585 25.7846707 48.0783019 25.7846707 47.4103774M76.0966585 24.8481132C76.0966585 11.4018868 65.2058537.462264151 51.821939.462264151 38.4361463.462264151 27.5472195 11.4018868 27.5472195 24.8481132 27.5472195 38.295283 38.4361463 49.2349057 51.821939 49.2349057 65.2058537 49.2349057 76.0966585 38.295283 76.0966585 24.8481132M51.821939 46.0283019C40.2681829 46.0283019 30.8704268 36.5273585 30.8704268 24.8481132 30.8704268 13.1688679 40.2681829 3.66698113 51.821939 3.66698113 63.3738171 3.66698113 72.7725122 13.1688679 72.7725122 24.8481132 72.7725122 36.5273585 63.3738171 46.0283019 51.821939 46.0283019" transform="translate(107)"/>
			<path fill="currentColor" d="M221.431106 47.4841235C221.734856 47.8314741 222.11244 48 222.585356 48L223.992886 48C224.439632 48 224.780767 47.8155578 224.927501 47.4962948 225.07704 47.1704781 224.992924 46.7866135 224.696651 46.4392629L208.716602 28.3171116C214.945812 26.8621713 219.387103 21.3139243 219.387103 14.8397211 219.387103 7.20830677 213.187801 1 205.569753 1L191.107519 1C190.445811 1 190 1.44565737 190 2.10946215L190 46.8924104C190 47.5552789 190.445811 48 191.107519 48L192.202888 48C192.864595 48 193.309472 47.5552789 193.309472 46.8924104L193.309472 28.682251 204.883746 28.682251 221.431106 47.4841235zM216.077631 14.8406574C216.077631 20.7418725 211.364367 25.5420518 205.569753 25.5420518L193.309472 25.5420518 193.309472 4.13832669 205.569753 4.13832669C211.364367 4.13832669 216.077631 8.94037849 216.077631 14.8406574L216.077631 14.8406574zM44.9355176 91.6005416L43.6509461 91.6005416C43.1056624 91.6005416 42.6912845 91.8659188 42.4520755 92.3852998 39.5222353 99.3059574 32.4570918 103.778511 24.452064 103.778511 12.4134438 103.778511 3.3329169 94.6324758 3.3329169 82.4990522 3.3329169 70.3703675 12.4134438 61.2205416 24.452064 61.2205416 32.4561501 61.2205416 39.5212935 65.6940426 42.4586678 72.6308124 42.6931681 73.1359768 43.1056624 73.3994584 43.6509461 73.3994584L44.8950216 73.3994584C45.2802047 73.3994584 45.5928717 73.2563443 45.7727494 72.9938104 45.9545106 72.7303288 45.9827636 72.3862863 45.8443237 72.0109671 42.5566117 63.6297872 33.9601535 58 24.452064 58 10.512956 58 0 68.5326306 0 82.4990522 0 96.4673694 10.512956 107 24.452064 107 34.1136617 107 42.5368346 101.476364 45.9130728 92.9302708 46.0468039 92.6070793 46.0251432 92.2867311 45.855625 92.0317795 45.672922 91.7578723 45.3385943 91.6005416 44.9355176 91.6005416M75.4995261 58C61.989671 58 51 68.991354 51 82.4990522 51 96.0105416 61.989671 107 75.4995261 107 89.0084334 107 100 96.0105416 100 82.4990522 100 68.991354 89.0084334 58 75.4995261 58M75.4995261 103.778511C63.8397648 103.778511 54.353295 94.2334623 54.353295 82.4990522 54.353295 70.7674855 63.8397648 61.2205416 75.4995261 61.2205416 87.1592874 61.2205416 96.6448094 70.7674855 96.6448094 82.4990522 96.6448094 94.2334623 87.1592874 103.778511 75.4995261 103.778511M133.876976 102.861736L112.353922 102.861736 112.353922 60.1085038C112.353922 59.4456485 111.901304 59 111.231845 59L110.122077 59C109.451672 59 109 59.4456485 109 60.1085038L109 104.891496C109 105.555288 109.451672 106 110.122077 106L133.876976 106C134.548328 106 135 105.555288 135 104.891496L135 103.97024C135 103.307384 134.548328 102.861736 133.876976 102.861736M166.889202 102.861736L145.324883 102.861736 145.324883 83.8720543 164.907042 83.8720543C165.571831 83.8720543 166.018779 83.4273421 166.018779 82.7635505L166.018779 81.8413577C166.018779 81.1785024 165.571831 80.7337902 164.907042 80.7337902L145.324883 80.7337902 145.324883 62.1401367 166.557746 62.1401367C167.222535 62.1401367 167.670423 61.6935519 167.670423 61.0316328L167.670423 60.1085038C167.670423 59.4456485 167.222535 59 166.557746 59L143.110798 59C142.446948 59 142 59.4456485 142 60.1085038L142 104.891496C142 105.555288 142.446948 106 143.110798 106L166.889202 106C167.553052 106 168 105.555288 168 104.891496L168 103.97024C168 103.307384 167.553052 102.861736 166.889202 102.861736"/>
			<path fill="#CAAF7D" d="M187.535664 91L179.466139 91C179.208275 91 179 91.221149 179 91.4918658L179 105.508134C179 105.779804 179.208275 106 179.466139 106L187.535664 106C187.791725 106 188 105.779804 188 105.508134L188 91.4918658C188 91.221149 187.791725 91 187.535664 91M225.496545 59L184.514902 59C184.058081 59 183.826815 59.5469261 184.1523 59.8668263L210.839238 86.1755689C211.170434 86.5029741 210.935361 87.0630339 210.465216 87.0630339L205.939828 87.0630339C205.659073 87.0630339 205.434469 87.2863074 205.434469 87.5621158L205.434469 105.505609C205.434469 105.778603 205.658122 106 205.936021 106L225.496545 106C225.775396 106 226 105.776727 226 105.502794L226 59.4972056C226 59.2232735 225.775396 59 225.496545 59"/>
			<path fill="currentColor" d="M48.5624191,110 L48.8397091,110 C49.9112707,110 50.7440809,110.157453 51.3353197,110.47236 C51.8344418,110.732582 52.2367474,111.052203 52.5431764,111.431223 C52.8467855,111.812128 53,112.271288 53,112.808704 C53,113.365919 52.7866276,113.996675 52.3617629,114.700973 C51.6774674,115.573094 49.9488694,117.157056 47.1759688,119.458515 C44.7527357,121.47901 42.4056398,123.559845 40.1309213,125.703851 C37.8580828,127.844085 36.5158109,129.556272 36.1097455,130.834756 L36.1097455,130.892269 C36.1097455,131.040294 36.2122018,131.197747 36.4152345,131.364629 C36.6182673,131.530568 36.8410393,131.697449 37.0807307,131.865274 C37.3392214,132.032156 37.5704531,132.198094 37.7734859,132.364976 C37.9765186,132.532801 38.0789749,132.690254 38.0789749,132.837336 C38.0789749,133.135272 37.5149951,133.40398 36.3870356,133.645345 C36.0909462,133.719829 35.7863971,133.7566 35.4715084,133.7566 C34.7505542,133.7566 34.1029174,133.524663 33.530478,133.061731 C32.9570985,132.596913 32.6704088,131.911473 32.6704088,131.00258 C32.6704088,130.797985 32.6892081,130.576419 32.7258668,130.335054 C33.3180456,128.702064 35.3239337,126.245981 38.744471,122.963031 C42.1659484,119.679139 46.1673849,116.388646 50.7534805,113.087783 L50.7534805,113.059498 C50.7534805,112.855846 50.2919571,112.744591 49.3660903,112.724792 C48.3311874,112.724792 46.8385209,112.919958 44.8871508,113.309349 C42.9367208,113.69874 40.6808016,114.357781 38.1203334,115.28553 C35.5589252,116.211393 32.8189235,117.492705 29.8975082,119.123809 C28.4922586,119.901647 27.1838255,120.951022 25.9731489,122.267219 C24.7615323,123.584359 23.7783276,125.119293 23.0197748,126.87108 C22.261222,128.623809 21.8824155,130.548134 21.8824155,132.643112 C21.8824155,134.072449 22.0948479,135.564956 22.5197127,137.121576 C24.7577725,136.585103 26.9337944,136.204198 29.0515385,135.981689 C31.1683426,135.75918 33.2061896,135.647926 35.1669593,135.647926 L35.2496763,135.647926 C35.8042565,135.647926 36.2310012,135.717696 36.5261506,135.856292 C36.8213,135.996775 36.9688747,136.149514 36.9688747,136.316395 C36.9688747,136.481391 36.8353995,136.639788 36.5675091,136.788755 C36.2986787,136.937723 35.8879135,137.029178 35.3333333,137.066892 C31.3760752,137.307314 27.3454997,138.004069 23.2406668,139.152441 L23.4906979,139.737942 C24.100736,141.054139 24.8771482,142.384478 25.8208743,143.729903 C26.7636605,145.074385 27.7619048,146.432066 28.815607,147.80389 C29.9078478,149.214371 30.9371109,150.61448 31.9080961,152.004218 C32.8781413,153.396784 33.6780527,154.778037 34.3068901,156.150804 C34.9357276,157.522628 35.2496763,158.848253 35.2496763,160.128622 C35.2496763,161.425963 34.8614702,162.669561 34.0850581,163.85659 C33.2898466,164.950278 31.8751973,165.746973 29.8420502,166.248561 C27.8079631,166.750149 25.5332447,167 23.0197748,167 C20.3935089,167 17.768183,166.759577 15.1428571,166.275903 C14.2179303,166.109021 13.1134699,165.784686 11.828536,165.302898 C10.5426621,164.820167 9.22106943,164.204496 7.86281813,163.453057 C6.50456682,162.702561 5.22809258,161.825724 4.03527534,160.824434 C2.84339807,159.821258 1.87147291,158.714371 1.12325973,157.499057 C0.375046555,156.283744 0,154.982632 0,153.591951 C0,153.442983 0.00939966303,153.28553 0.0272590228,153.118648 C0.101516361,151.634627 0.947486034,149.877183 2.56516804,147.846318 C4.18285005,145.816395 6.70195974,143.845871 10.1224971,141.935689 C13.3578611,140.172588 16.5302474,138.829049 19.6358961,137.9013 C18.9882593,135.954347 18.6649109,133.997965 18.6649109,132.032156 C18.6649109,129.862694 19.1452337,127.686632 20.1068192,125.508684 C21.0684047,123.327908 22.6597677,121.192388 24.8771482,119.096467 C27.5024741,116.814807 31.2379002,114.760371 36.0815465,112.934101 C40.9261328,111.106888 45.0854837,110.129168 48.5624191,110 M20.3841092,140.015135 C16.0207857,141.443529 12.2862995,143.241514 9.17971092,145.411919 C6.07406225,147.583267 4.17815022,149.975238 3.49479471,152.588775 C3.42053738,152.961195 3.38387869,153.323243 3.38387869,153.674921 C3.38387869,154.879863 3.78054447,155.998065 4.57575596,157.026697 C5.37096746,158.055329 6.38331116,158.987793 7.61278709,159.821258 C8.84226301,160.65661 10.1318968,161.371278 11.4816884,161.965264 C12.83242,162.558307 14.0788153,163.03161 15.2255742,163.38423 C16.205959,163.679337 17.5143921,163.943331 19.1499335,164.175268 C20.7864148,164.408148 22.454855,164.524117 24.156194,164.524117 C26.0793651,164.524117 27.7797641,164.310093 29.260211,163.883932 C30.738778,163.457771 31.5791079,162.706332 31.7830806,161.630558 C31.8197393,161.389192 31.8385386,161.148769 31.8385386,160.908347 C31.8385386,159.776002 31.5612486,158.593688 31.0066684,157.361403 C30.4520883,156.12629 29.7499335,154.870435 28.899264,153.591951 C28.0485945,152.310639 27.1603263,151.042527 26.2363395,149.780071 C25.4232686,148.666584 24.6553161,147.583267 23.934362,146.525407 C22.510313,144.411572 21.3287754,142.24211 20.3841092,140.015135"/>
			<path fill="currentColor" d="M42.5274366,154 L42.4445889,154 C39.4799605,154 38,153.068775 38,151.203508 C38,150.760425 38.0819062,150.271344 38.2494844,149.734387 C38.9527481,147.185721 41.5539765,143.945208 46.0550525,140.013785 C46.2405182,139.847628 46.4900027,139.764081 46.8053887,139.764081 C47.0266296,139.764081 47.2855286,139.811018 47.583027,139.903014 C48.1573119,140.124555 48.4614005,140.475642 48.4990585,140.955336 L48.4990585,140.983498 C48.4990585,141.222875 48.3333632,141.500741 48.0000897,141.814279 C43.3144894,146.393429 40.9712185,149.292243 40.9712185,150.509783 C40.9712185,151.028903 41.3223796,151.397826 42.0265848,151.618429 C42.6564153,151.823073 43.388864,151.922579 44.2211064,151.922579 C47.277997,151.922579 51.7574195,150.529496 57.6659643,147.740514 C57.8890881,147.630682 58.101856,147.574358 58.3042679,147.574358 C58.4163005,147.574358 58.5273917,147.594071 58.6375415,147.630682 C58.8785529,147.740514 59,147.888834 59,148.073765 C59,148.111314 58.9943513,148.189229 58.9858782,148.308449 C58.9755223,148.429545 58.7768762,148.627619 58.3871156,148.904545 C57.3148032,149.734387 56.1285753,150.428113 54.8321976,150.981028 C50.4986999,152.938291 46.3977405,153.945553 42.5274366,154 M53.2778625,136.550791 C52.8890433,137.585277 52.4983413,138.10252 52.1104636,138.10252 L50.5551869,138.10252 C50.0364476,138.10252 49.7766072,137.843429 49.7766072,137.326186 C49.7766072,136.034486 50.296288,135.258152 51.3328252,135 C51.7028154,135.018775 52.3514749,135.535079 53.2778625,136.550791"/>
			<path fill="currentColor" d="M74.5100279,140.951823 C74.5654481,140.877876 74.6208682,140.812462 74.6762884,140.756528 C74.8237624,140.569766 74.9815689,140.474963 75.1478294,140.474963 C75.1844631,140.474963 75.2633663,140.49582 75.3826606,140.532793 C75.5028941,140.569766 75.6738512,140.644661 75.8955319,140.756528 C76.3022595,140.979316 76.6347804,141.17461 76.8930947,141.343359 C77.2077685,141.586055 77.3646357,141.838231 77.3646357,142.09894 C77.3646357,142.247781 77.2998223,142.406102 77.1711348,142.573903 L70.7132775,150.322158 L63.5349581,160.168405 L62.7036558,161.343963 C68.6523991,159.776868 72.9488703,158.992847 75.5911907,158.992847 L76.0617923,158.992847 C77.2998223,158.992847 78.1780909,159.124623 78.6947195,159.384383 C78.8985529,159.497199 79,159.693441 79,159.972162 L79,160.113419 C78.962427,160.410153 78.4082254,160.577954 77.3373953,160.615875 C70.7780909,160.989399 64.8744351,162.675946 59.6273674,165.678359 C51.3678853,177.893734 46.0747906,184 43.7462046,184 C43.6907845,184 43.6269104,183.99052 43.5527037,183.973455 C42.8500889,183.841679 42.3794872,183.365767 42.1390201,182.546669 C42.0460269,182.285012 42,181.948462 42,181.538912 C42,180.737826 42.1756537,179.674136 42.5269612,178.349737 C43.37705,175.254417 45.3167555,172.33543 48.347017,169.594674 C51.211018,167.114626 54.841508,164.626045 59.2394263,162.127036 C62.3241686,157.687408 64.958035,153.921831 67.1382077,150.824614 C67.4707286,150.154357 67.9873572,149.268896 68.6899721,148.168232 L66.3613861,149.622511 C61.4280528,152.644833 58.2691038,154.155046 56.8835999,154.155046 C55.5525768,153.985349 54.8875349,153.389037 54.8875349,152.364216 C54.8875349,152.195467 54.9063214,152.009653 54.9429551,151.80393 C55.5525768,150.126864 57.0958873,148.351202 59.5719472,146.475998 C62.0480071,144.602689 63.4513582,143.590192 63.7848185,143.441351 C67.4791825,141.147117 70.2783701,140 72.1823813,140 C72.8098502,140 73.3368114,140.122296 73.7623255,140.364044 C74.0384869,140.549858 74.2883473,140.7461 74.5100279,140.951823 M47.5438944,174.238128 C45.5478294,176.997845 44.4854532,179.236146 44.3558264,180.951133 L44.3558264,181.202361 C44.3558264,181.483927 44.4112465,181.622339 44.5220868,181.622339 C44.6517136,181.622339 44.8367606,181.47255 45.0762884,181.175817 C46.388525,179.645695 47.6453415,178.061536 48.8457984,176.419547 C51.6910129,172.540205 53.7143184,169.734982 54.9157146,168.000086 C51.9596598,169.623115 49.5023864,171.702146 47.5438944,174.238128 M71.9607007,142.489529 C71.7756537,142.378609 71.5539731,142.321727 71.2956588,142.321727 C70.7968774,142.321727 70.0566895,142.584332 69.0779132,143.1048 C68.0981975,143.627165 66.9991876,144.288891 65.7799441,145.090925 C64.1173394,146.191588 62.7036558,147.22115 61.5398324,148.182453 C60.3750698,149.143756 59.7006347,149.864259 59.516527,150.349651 C59.4423204,150.481427 59.4056867,150.582867 59.4056867,150.657761 C59.4056867,150.769629 59.4883473,150.824614 59.6546078,150.824614 C60.1909622,150.824614 61.58492,150.219771 63.8402386,149.00724 C64.819015,148.40998 65.724524,147.850642 66.5558264,147.330173 C68.9952526,145.782039 70.6024372,144.652935 71.3783194,143.943808 C71.8958873,143.478325 72.1542016,143.1048 72.1542016,142.826079 C72.1542016,142.696199 72.0893882,142.584332 71.9607007,142.489529"/>
			<path fill="currentColor" d="M109,149.287772 C108.907092,150.369849 105.233454,152.087884 97.979084,154.440927 C96.8423891,154.813009 95.6099425,155 94.2864846,155 C94.006814,155 93.7271434,154.991457 93.4474729,154.972473 C91.7324762,154.749414 90.8754518,154.103964 90.8754518,153.040871 C90.8754518,152.797878 90.9200095,152.527359 91.0148131,152.227415 C91.7779819,150.28727 94.0807608,147.21474 97.9240979,143.013624 C94.7908396,143.836572 88.7755525,147.569738 79.8820288,154.215969 C79.4336079,154.608934 78.9491616,154.804467 78.4267939,154.804467 C78.296913,154.804467 78.165136,154.795924 78.0352551,154.775991 C77.3460331,154.645952 77,154.309939 77,153.7689 C77,153.543942 77.0474018,153.301898 77.1393613,153.040871 C78.4637673,150.070854 82.7811222,145.086655 90.0914262,138.084478 C90.2412159,138.029425 90.3900575,138 90.5388991,138 C91.0802275,138 91.4613379,138.429983 91.6860224,139.28995 C91.6860224,139.643998 90.6128459,140.895031 88.469337,143.042099 L84.7767376,147.130262 C92.179949,142.800056 96.6091722,140.634003 98.0634591,140.634003 C99.2371275,140.634003 100.217396,141.277554 101.000474,142.566555 L101.000474,142.705137 C101.000474,143.732161 99.7888843,145.534673 97.3638087,148.111725 C95.8725484,149.697822 95.1264443,150.8378 95.1264443,151.526912 C95.1264443,152.013847 95.4810097,152.293858 96.1901404,152.368844 C99.4712923,152.031882 103.526989,150.734338 108.357232,148.474316 L108.440659,148.474316 C108.814185,148.474316 109,148.708766 109,149.175768 L109,149.287772"/>
			<path fill="currentColor" d="M132.860929,147.785681 C132.953956,147.841834 133,147.897052 133,147.95227 C133,148.025269 132.953956,148.099204 132.860929,148.17314 C128.590143,151.762284 124.830536,153.576977 121.577409,153.613477 L121.271078,153.613477 C118.185212,153.613477 116.642279,152.508189 116.642279,150.299485 C116.642279,149.784745 116.725909,149.204492 116.89223,148.559663 L114.562796,149.995321 C110.256302,152.664483 107.400655,154 105.995853,154 C104.665284,153.833411 104,153.236313 104,152.205896 C104,152.038372 104.017854,151.855873 104.05544,151.651848 C104.665284,150.014038 106.208217,148.265793 108.685179,146.406177 C111.162141,144.546561 112.5754,143.543285 112.926836,143.39635 C116.623485,141.132429 119.423693,140 121.327458,140 C121.936362,140 122.455058,140.119794 122.879787,140.358446 C124.081621,141.150211 124.681129,142.199345 124.681129,143.506785 C124.608775,144.445484 123.951947,145.421619 122.714406,146.434254 C121.734333,147.336453 120.967565,148.17314 120.412222,148.946186 C120.209254,149.297146 120.10777,149.600374 120.10777,149.856809 C120.10777,150.593355 120.893332,150.963032 122.464455,150.963032 C122.668362,150.963032 122.87133,150.953673 123.073359,150.934956 C125.052297,150.879738 128.186086,149.830604 132.471907,147.785681 C132.546141,147.749181 132.621314,147.731399 132.695548,147.731399 C132.750049,147.731399 132.806429,147.749181 132.860929,147.785681 M121.105696,142.456715 C120.920582,142.34628 120.69976,142.291062 120.440412,142.291062 C119.940509,142.291062 119.196293,142.554048 118.208703,143.078147 C117.220174,143.603182 116.115125,144.261114 114.895438,145.051942 C113.232227,146.12073 111.822727,147.127749 110.667876,148.076743 C109.512086,149.024801 108.832707,149.737015 108.629739,150.216191 C108.555505,150.34628 108.518858,150.447356 108.518858,150.51942 C108.518858,150.629855 108.610945,150.686008 108.79606,150.686008 C109.33167,150.686008 110.727075,150.087974 112.982276,148.891905 C113.943555,148.302293 114.839997,147.749181 115.670663,147.234441 C118.111918,145.724848 119.719688,144.620496 120.495853,143.921385 C121.031463,143.442209 121.300207,143.064109 121.300207,142.788956 C121.300207,142.660739 121.234431,142.550304 121.105696,142.456715"/>
			<path fill="currentColor" d="M162.972948,133.413596 C162.717351,135.023954 162.277052,135.830562 161.652052,135.830562 C161.597015,135.830562 161.54291,135.820086 161.48694,135.801993 C159.357276,135.333455 157.148321,135.099187 154.854478,135.099187 C152.229478,135.099187 149.504664,135.407736 146.679104,136.02769 C145.340485,136.532415 142.210821,140.01597 137.294776,146.478353 C132.39459,152.885503 129.945896,156.941396 129.945896,158.646033 L129.945896,158.67365 C130,159.79833 130.558769,160.360193 131.624067,160.360193 C131.807836,160.360193 132.017724,160.340195 132.25653,160.303055 C141.175373,158.449857 149.304104,154.477767 156.643657,148.388689 C156.752799,148.314409 156.872201,148.276317 157.000933,148.276317 C157.128731,148.276317 157.266791,148.314409 157.413246,148.388689 C157.633396,148.501062 157.74347,148.66105 157.74347,148.86675 C157.74347,149.054355 157.633396,149.289576 157.413246,149.569555 C153.70709,153.804483 148.018657,157.456597 140.348881,160.5278 C138.202425,161.389642 135.916978,162.081972 133.495336,162.606695 C132.284515,162.869533 131.25653,163 130.413246,163 C129.586754,163 128.954291,162.869533 128.514925,162.606695 C127.504664,161.969599 127,160.912534 127,159.43169 L127,159.038385 C127.165112,155.891949 132.091418,148.399165 141.779851,136.560032 C138.183769,137.084756 134.751866,137.346641 131.486007,137.346641 C130.036381,137.234269 129.274254,136.588602 129.202425,135.407736 L129.202425,135.352502 C129.202425,134.827778 129.412313,134.433521 129.835821,134.172588 C135.522388,134.153542 140.458955,133.834518 144.642724,133.21742 C146.550373,131.09948 148.972948,128.505384 151.909515,125.434181 C152.882463,124.47806 153.688433,124 154.330224,124 C154.403918,124 154.469216,124.010475 154.523321,124.028569 C154.926306,124.122848 155.303172,124.308549 155.652052,124.590433 C155.945896,124.834225 156.128731,125.115156 156.202425,125.434181 L156.202425,125.545601 C156.202425,125.826533 155.904851,126.158889 155.307836,126.544575 C154.711754,126.927405 153.725746,127.727346 152.348881,128.945352 C150.807836,130.44429 149.615672,131.689913 148.770522,132.682221 C152.86194,132.120357 156.569963,131.839426 159.889925,131.839426 C161.963619,131.858472 163,132.317486 163,133.21742 L162.972948,133.413596"/>
			<path fill="currentColor" d="M182.890278,148.061353 C182.962806,148.171672 183,148.29134 183,148.419423 C183,148.69522 182.797294,149.018698 182.394671,149.385182 C178.718994,152.292743 175.408747,154.295314 172.464858,155.398504 C171.111004,155.968797 169.729255,156.400725 168.32147,156.69522 C167.442766,156.89716 166.747243,157 166.235828,157 C165.92433,157 165.688149,156.962604 165.522637,156.889681 C164.497948,156.482996 163.985603,155.812668 163.985603,154.874956 C163.985603,153.716606 164.762954,152.153442 166.318584,150.186397 C162.458798,152.209536 159.614403,153.459507 157.786328,153.937244 C157.089874,154.102723 156.486405,154.184995 155.97499,154.184995 C154.988425,154.184995 154.374727,153.872736 154.137617,153.247283 C154.045562,152.897628 154,152.529274 154,152.144093 C154,149.587122 156.112607,145.946593 160.338752,141.220638 C160.557266,141.073858 160.767411,141 160.968257,141 C161.242561,141 161.516865,141.137431 161.79117,141.413229 C161.992016,141.617039 162.111036,141.854505 162.14823,142.131238 L162.175196,142.323828 C162.175196,142.489307 162.129633,142.627673 162.038508,142.737057 C158.727331,147.132991 157.072207,149.689027 157.072207,150.4061 L157.072207,150.572514 C157.072207,151.012855 157.264685,151.234428 157.647781,151.234428 C157.721239,151.234428 157.803065,151.224144 157.89698,151.205446 C163.547647,149.495501 168.146659,146.461727 171.694947,142.102255 C171.878126,141.881617 172.106868,141.772233 172.381172,141.772233 C172.69174,141.772233 173.049731,141.909665 173.451424,142.185462 C173.83545,142.535117 174.027927,142.903471 174.027927,143.290522 C174.027927,143.61961 173.899609,143.951502 173.642972,144.282459 C170.094684,148.732617 168.32147,151.022204 168.32147,151.150286 C167.516224,152.403062 167.113601,153.303377 167.113601,153.854038 C167.113601,154.295314 167.378607,154.515952 167.909549,154.515952 L168.101097,154.515952 C169.454951,154.369171 170.872034,154.002688 172.354207,153.412761 C175.829037,151.959916 178.874279,150.186397 181.490862,148.088466 C181.727972,147.850999 181.974381,147.731331 182.231948,147.731331 C182.504393,147.731331 182.724766,147.840715 182.890278,148.061353"/>
			<path fill="currentColor" d="M202.555119 144.769744C202.128147 145.144601 201.535286 145.331553 200.775596 145.331553 200.348623 145.331553 199.866983 145.27623 199.328791 145.163678 197.956447 144.882297 197.131721 143.868371 196.85367 142.123808 195.277736 142.630294 192.181479 144.778329 187.564898 148.567913 183.690099 152.190576 181.169736 154 180.000982 154 179.90767 154 179.824726 153.991415 179.750265 153.971385 179.249774 153.80351 179 153.531667 179 153.15681 179 152.967951 179.133841 152.615986 179.403409 152.099962 179.672034 151.583937 180.000982 151.064098 180.390253 150.538535 184.895613 144.25372 187.88065 140.557612 189.345364 139.449256 189.585713 139.262304 189.818521 139.169783 190.040961 139.169783 190.319012 139.169783 190.568786 139.299504 190.791226 139.563716 191.013667 139.826021 191.124887 140.15414 191.124887 140.548073L191.124887 140.716902C191.087185 141.054559 190.216275 142.227776 188.511212 144.234643 187.54699 145.341091 186.480972 146.58966 185.31316 147.97749 191.950556 141.992179 196.270235 139 198.272199 139L198.299533 139C199.004556 141.326402 200.496603 142.865891 202.77756 143.615605 202.925539 143.74628 203 143.888401 203 144.0372 203 144.245135 202.851078 144.488363 202.555119 144.769744M212.307514 151.775463C216.346537 151.359971 220.332829 150.075806 224.263614 147.922969 224.372777 147.887119 224.471763 147.869653 224.563349 147.869653 224.853833 147.869653 225 148.086591 225 148.521387 219.650099 152.099951 214.308524 153.9283 208.977125 154L208.568227 154C204.855767 154 203 152.607366 203 149.823018L203 149.443375C203.399647 146.875965 205.255414 144.381174 208.568227 141.956245 211.37038 139.986334 213.663723 139 215.447332 139 216.319709 139 217.066271 139.245434 217.685169 139.731707 218.139397 140.184888 218.366974 140.682191 218.366974 141.224537 218.366974 142.76149 216.601867 144.679005 213.070729 146.974323 211.597956 147.914695 209.213027 149.062814 205.920567 150.418679 206.102813 151.359971 207.631092 151.828778 210.505403 151.828778 211.052142 151.828778 211.652538 151.812232 212.307514 151.775463M214.682267 142.228337C214.66469 141.902929 214.473193 141.740226 214.1087 141.740226 213.379715 141.740226 211.970775 142.382767 209.87818 143.666013 207.476599 145.238816 205.975148 146.856661 205.374753 148.521387 206.994618 148.050742 208.968799 147.000981 211.296371 145.374862 213.55456 143.80114 214.682267 142.770683 214.682267 142.282571L214.682267 142.228337"/>
		</g>

	</symbol>
</svg>
