<svg
	xmlns="http://www.w3.org/2000/svg"
	>
	<symbol
		id="logo-taylor-cole-lettings"
		viewbox="0 0 283 173"
		preserveAspectRatio="xMaxYMid meet"
		>

		<g fill="none" fill-rule="evenodd" transform="translate(.031 .123)">
			<path fill="currentColor" d="M38.2169717 3.44306883L38.2169717 2.28177328C38.2169717 1.44587045 37.6535709.883619433 36.8188178.883619433L1.39930364.883619433C.562251012.883619433 0 1.44587045 0 2.28177328L0 3.44306883C0 4.27897166.562251012 4.84007287 1.39930364 4.84007287L17.0193036 4.84007287 17.0193036 58.7333846C17.0193036 59.5692874 17.5804049 60.1303887 18.4151579 60.1303887L19.800664 60.1303887C20.6365668 60.1303887 21.197668 59.5692874 21.197668 58.7333846L21.197668 4.84007287 36.8188178 4.84007287C37.6535709 4.84007287 38.2169717 4.27897166 38.2169717 3.44306883M82.2562883 59.1128178C82.5149927 59.7601538 83.0542478 60.1303887 83.7383773 60.1303887L85.2089684 60.1303887C85.8689522 60.1303887 86.1862964 59.8164939 86.3162235 59.6290769 86.4473004 59.4416599 86.6324178 59.032332 86.4001587 58.4091417L64.2481587 1.89889069C63.9894543 1.25270445 63.4501992.883619433 62.7660696.883619433L60.8528065.883619433C60.1686769.883619433 59.6282721 1.25270445 59.367268 1.90234008L37.2187174 58.4091417C36.9864583 59.032332 37.1715757 59.4405101 37.3026526 59.6290769 37.4325798 59.8164939 37.7499239 60.1303887 38.4110575 60.1303887L39.8804988 60.1303887C40.5634785 60.1303887 41.1038834 59.7601538 41.3648874 59.1093684L46.9345069 44.8001377 76.6843692 44.8001377 82.2562883 59.1128178zM75.1447903 40.8425344L48.4752356 40.8425344 61.8117377 6.58316599 75.1447903 40.8425344zM101.809056 32.4482073L101.809056 58.7337296C101.809056 59.5822802 102.357509 60.1307336 103.20606 60.1307336L104.591566 60.1307336C105.440117 60.1307336 105.98742 59.5822802 105.98742 58.7337296L105.98742 32.4896 125.781185 2.76963239C126.081283 2.33155951 126.138772 1.86244211 125.939857 1.4841587 125.738643 1.10242591 125.313218.883964372 124.772813.883964372L123.234384.883964372C122.610044.883964372 122.115631 1.14956761 121.763793 1.6738753L103.912036 28.4929036 86.0591287 1.67272551C85.7095903 1.14956761 85.2151773.883964372 84.5896874.883964372L83.0512583.883964372C82.5108534.883964372 82.0854283 1.10357571 81.8842138 1.4853085 81.6852988 1.8647417 81.7439385 2.33270931 82.0394364 2.7638834L101.809056 32.4482073zM166.949457 58.7334996L166.949457 57.572204C166.949457 56.7363012 166.388356 56.1740502 165.553603 56.1740502L138.724227 56.1740502 138.724227 2.28188826C138.724227 1.44598543 138.163126.883734413 137.327223.883734413L135.941717.883734413C135.106964.883734413 134.545862 1.44598543 134.545862 2.28188826L134.545862 58.7334996C134.545862 59.5694024 135.106964 60.1305036 135.941717 60.1305036L165.553603 60.1305036C166.388356 60.1305036 166.949457 59.5694024 166.949457 58.7334996M230.18269 30.5075789C230.18269 13.6860405 216.497799 0 199.673961 0 182.851273 0 169.166382 13.6860405 169.166382 30.5075789 169.166382 47.3302672 182.851273 61.0163077 199.673961 61.0163077 216.497799 61.0163077 230.18269 47.3302672 230.18269 30.5075789M199.673961 57.004664C185.154317 57.004664 173.341297 45.1180567 173.341297 30.5064291 173.341297 15.8959514 185.154317 4.01049393 199.673961 4.01049393 214.193605 4.01049393 226.005475 15.8959514 226.005475 30.5064291 226.005475 45.1180567 214.193605 57.004664 199.673961 57.004664M277.592753 59.4805231C277.975636 59.918596 278.452802 60.1313085 279.051846 60.1313085L280.827134 60.1313085C281.392834 60.1313085 281.821709 59.8990494 282.007976 59.4943206 282.197692 59.0861425 282.090761 58.6009279 281.717077 58.1640049L261.53698 35.3198267C269.402745 33.4836 275.011457 26.491681 275.011457 18.3304178 275.011457 8.71006154 267.183636.884539271 257.564429.884539271L239.301045.884539271C238.466291.884539271 237.901741 1.44564049 237.901741 2.28154332L237.901741 58.7331547C237.901741 59.5690575 238.466291 60.1313085 239.301045 60.1313085L240.684251 60.1313085C241.520154 60.1313085 242.081255 59.5690575 242.081255 58.7331547L242.081255 35.778596 256.697482 35.778596 277.592753 59.4805231zM270.834243 18.3315676C270.834243 25.7696081 264.880591 31.8221425 257.564429 31.8221425L242.081255 31.8221425 242.081255 4.84099271 257.564429 4.84099271C264.880591 4.84099271 270.834243 10.8935271 270.834243 18.3315676L270.834243 18.3315676zM56.3151304 113.593446L54.7054138 113.593446C54.0201344 113.593446 53.5027255 113.924588 53.2014785 114.568474 49.5313247 123.188507 40.6778834 128.758126 30.6481992 128.758126 15.5559563 128.758126 4.17755951 117.367082 4.17755951 102.259891 4.17755951 87.1550008 15.5559563 75.7639563 30.6481992 75.7639563 40.6755838 75.7639563 49.5290251 81.3324259 53.2083773 89.9720049 53.5038753 90.5974947 54.0201344 90.9286364 54.7054138 90.9286364L56.2622397 90.9286364C56.7463045 90.9286364 57.1360858 90.749268 57.3648955 90.4215757 57.5925555 90.0950332 57.6258996 89.6650089 57.4522802 89.1981911 53.3325555 78.7637781 42.560102 71.7523126 30.6481992 71.7523126 13.1747255 71.7523126.000344939271 84.8680534.000344939271 102.259891.000344939271 119.654029 13.1747255 132.76862 30.6481992 132.76862 42.7509684 132.76862 53.3084097 125.890531 57.5396648 115.249155 57.7052356 114.844426 57.6787903 114.446596 57.4660777 114.128102 57.237268 113.787762 56.8175919 113.593446 56.3151304 113.593446M94.7626364 71.7520826C77.9399482 71.7520826 64.2539077 85.4381231 64.2539077 102.259662 64.2539077 119.0835 77.9399482 132.76954 94.7626364 132.76954 111.584175 132.76954 125.271365 119.0835 125.271365 102.259662 125.271365 85.4381231 111.584175 71.7520826 94.7626364 71.7520826M94.7626364 128.756747C80.2429927 128.756747 68.4311223 116.870139 68.4311223 102.259662 68.4311223 87.6491838 80.2429927 75.7625765 94.7626364 75.7625765 109.28113 75.7625765 121.094151 87.6491838 121.094151 102.259662 121.094151 116.870139 109.28113 128.756747 94.7626364 128.756747M167.316588 127.926823L140.490661 127.926823 140.490661 74.0335109C140.490661 73.1987579 139.92956 72.6365069 139.092507 72.6365069L137.7093 72.6365069C136.873398 72.6365069 136.312296 73.1987579 136.312296 74.0335109L136.312296 130.486272C136.312296 131.321025 136.873398 131.883276 137.7093 131.883276L167.316588 131.883276C168.15479 131.883276 168.717041 131.321025 168.717041 130.486272L168.717041 129.323827C168.717041 128.489074 168.15479 127.926823 167.316588 127.926823M208.85636 127.926823L181.752181 127.926823 181.752181 103.989187 206.365898 103.989187C207.201801 103.989187 207.762902 103.426936 207.762902 102.592183L207.762902 101.429738C207.762902 100.593835 207.201801 100.032734 206.365898 100.032734L181.752181 100.032734 181.752181 76.5929603 208.440133 76.5929603C209.274886 76.5929603 209.838287 76.0318591 209.838287 75.1959563L209.838287 74.0335109C209.838287 73.1987579 209.274886 72.6365069 208.440133 72.6365069L178.970821 72.6365069C178.133768 72.6365069 177.571517 73.1987579 177.571517 74.0335109L177.571517 130.486272C177.571517 131.321025 178.133768 131.883276 178.970821 131.883276L208.85636 131.883276C209.692262 131.883276 210.253364 131.321025 210.253364 130.486272L210.253364 129.323827C210.253364 128.489074 209.692262 127.926823 208.85636 127.926823"/>
			<g fill="currentColor" transform="translate(5.776 150.58)">
				<path d="M12.1583045,16.6126202 C12.2882316,16.7643935 12.2284421,16.9012194 12.0295271,16.9012194 L11.5328146,16.9012194 C11.4155352,16.9012194 11.3247012,16.8655757 11.2430656,16.7735919 L5.35150283,10.0886688 L1.03286316,10.0886688 L1.03286316,16.6689603 C1.03286316,16.8161344 0.94662834,16.9012194 0.800604049,16.9012194 L0.413122267,16.9012194 C0.264798381,16.9012194 0.180863158,16.8161344 0.180863158,16.6689603 L0.180863158,0.876490688 C0.180863158,0.729316599 0.264798381,0.644231579 0.413122267,0.644231579 L1.03286316,0.644231579 L5.52167287,0.644231579 C8.12251498,0.644231579 10.2438915,2.7656081 10.2438915,5.3664502 C10.2438915,7.68329231 8.55023968,9.63104939 6.33342996,10.0185312 L12.1571547,16.6126202 L12.1583045,16.6126202 Z M1.03286316,9.29875789 L5.52167287,9.29875789 C7.65109798,9.29875789 9.3930413,7.52691984 9.3930413,5.3664502 C9.3930413,3.19908178 7.65109798,1.43414251 5.52167287,1.43414251 L1.03286316,1.43414251 L1.03286316,9.29875789 Z"/>
				<path d="M12.0291822 17.0813927L11.5324696 17.0813927C11.3588502 17.0813927 11.2197247 17.0193036 11.1081943 16.8928259L5.26952227 10.2688421 1.21188664 10.2688421 1.21188664 16.6686154C1.21188664 16.9158219 1.04746559 17.0813927.800259109 17.0813927L.412777328 17.0813927C.16557085 17.0813927 1.63396062e-14 16.9158219 1.63396062e-14 16.6686154L1.63396062e-14.877295547C1.63396062e-14.630089069.16557085.464518219.412777328.464518219L5.52132794.464518219C8.22450202.464518219 10.4240648 2.66408097 10.4240648 5.36610526 10.4240648 7.64730364 8.86493927 9.60310931 6.6745749 10.1320162L12.2947854 16.494996C12.405166 16.6237733 12.4362105 16.7686478 12.3798704 16.8905263 12.3246802 17.0124049 12.1970526 17.0813927 12.0291822 17.0813927L12.0291822 17.0813927zM.852 9.90895547L5.43279352 9.90895547 11.3783968 16.6548178C11.4220891 16.7031093 11.4611822 16.7215061 11.5324696 16.7215061L12.013085 16.7215061 5.98469636 9.89630769 6.30204049 9.84111741C8.48090688 9.45938462 10.0641781 7.57716599 10.0641781 5.36610526 10.0641781 2.86299595 8.02558704.824404858 5.52132794.824404858L.412777328.824404858C.36448583.824404858.361036437.829004049.361036437.877295547L.361036437 16.6686154C.361036437 16.7169069.36448583 16.7215061.412777328 16.7215061L.800259109 16.7215061C.84740081 16.7215061.852 16.7157571.852 16.6686154L.852 9.90895547zM5.52132794 9.47893117L.852 9.47893117.852 1.25327935 5.52132794 1.25327935C7.75538462 1.25327935 9.57321457 3.09755466 9.57321457 5.36610526 9.57321457 7.63465587 7.75538462 9.47893117 5.52132794 9.47893117L5.52132794 9.47893117zM1.21188664 9.11904453L5.52132794 9.11904453C7.55646964 9.11904453 9.21217814 7.43574089 9.21217814 5.36610526 9.21217814 3.29646964 7.55646964 1.61431579 5.52132794 1.61431579L1.21188664 1.61431579 1.21188664 9.11904453zM28.4811757 11.1411935L28.4811757 11.3113636C28.4742769 11.4631368 28.3845927 11.5367239 28.2420178 11.5367239L27.6763174 11.5367239 17.8811919 11.5367239C18.0709085 14.4434121 20.1347951 16.3750721 22.9380016 16.3750721 24.9156534 16.3750721 26.4724794 15.4264891 27.1025684 14.0133879 27.1658073 13.9018575 27.2474429 13.8443676 27.37737 13.8443676L27.7901474 13.8443676C27.9637668 13.8443676 28.0523012 13.9352016 27.9971109 14.0731773 27.2612405 15.9197522 25.3445279 17.1488858 22.929953 17.1488858 19.4552648 17.1488858 17.0464389 14.6020842 17.0464389 11.0952016 17.0464389 7.68145263 19.3782283 5.04151741 22.8690138 5.04151741 26.3908437 5.04151741 28.4811757 7.95970364 28.4811757 11.1411935M17.8754429 10.7617603L27.6636696 10.7617603C27.4613053 7.70099919 25.4227142 5.81533117 22.8690138 5.81533117 20.033613 5.81533117 18.0180178 7.85622186 17.8754429 10.7617603"/>
				<path d="M22.930413 17.329519C19.4166316 17.329519 16.8663806 14.7068308 16.8663806 11.0953166 16.8663806 7.48265263 19.3901862 4.86111417 22.8683239 4.86111417 25.747417 4.86111417 28.661004 7.01813441 28.661004 11.1413085L28.661004 11.3114785C28.6495061 11.5621344 28.485085 11.7173571 28.2413279 11.7173571L18.0771174 11.7173571C18.3346721 14.404434 20.2674818 16.1946688 22.9384615 16.1946688 24.7850364 16.1946688 26.3177166 15.3300211 26.9374575 13.9399158 27.0443887 13.7501992 27.1892632 13.6639644 27.37783 13.6639644L27.7906073 13.6639644C27.9481296 13.6639644 28.0723077 13.7191547 28.1412955 13.8203368 28.2022348 13.9123206 28.2114332 14.0250008 28.1654413 14.1399806 27.3812794 16.108434 25.3748826 17.329519 22.930413 17.329519L22.930413 17.329519zM22.8683239 5.22215061C19.5994494 5.22215061 17.2262672 7.69191579 17.2262672 11.0953166 17.2262672 14.5539077 19.5718543 16.9696324 22.930413 16.9696324 25.2162105 16.9696324 27.0892308 15.8405312 27.8228016 14.0250008 27.814753 14.0250008 27.8032551 14.023851 27.7906073 14.023851L27.37783 14.023851C27.3249393 14.023851 27.2984939 14.035349 27.2594008 14.1020372 26.5890688 15.6094219 24.9299109 16.5545555 22.9384615 16.5545555 20.0018785 16.5545555 17.8965992 14.5435595 17.7022834 11.5483368L17.6884858 11.3563206 28.2413279 11.3563206C28.297668 11.3563206 28.2988178 11.3482721 28.3011174 11.30343L28.3011174 11.1413085C28.3011174 8.20012632 26.434996 5.22215061 22.8683239 5.22215061L22.8683239 5.22215061zM27.8561457 10.9423935L17.6861862 10.9423935 17.6953846 10.7538267C17.8425587 7.73905749 19.9696842 5.63492794 22.8683239 5.63492794 25.6416356 5.63492794 27.6411336 7.69076599 27.843498 10.7503773L27.8561457 10.9423935zM18.067919 10.5825069L27.4675142 10.5825069C27.2099595 7.8298915 25.3829312 5.99596437 22.8683239 5.99596437 20.2341377 5.99596437 18.2829312 7.87243401 18.067919 10.5825069L18.067919 10.5825069zM43.1562721 14.0292551C43.1562721 15.8562834 41.4994138 17.1498057 38.936515 17.1498057 36.4678996 17.1498057 34.8489846 15.8953765 34.7259563 14.0832955 34.7190575 13.9292227 34.8110413 13.8441377 34.9582154 13.8441377L35.3146526 13.8441377C35.4537781 13.8441377 35.5308146 13.9292227 35.5538105 14.0683482 35.6699401 15.5469879 37.0554462 16.3748421 38.936515 16.3748421 40.89577 16.3748421 42.3353166 15.5619352 42.3353166 14.0304049 42.3353166 10.3062105 34.9501668 12.5667126 34.9501668 8.16068826 34.9501668 6.33480972 36.5288389 5.04243725 38.936515 5.04243725 41.197017 5.04243725 42.7296972 6.2957166 42.8538753 8.10664777 42.8619239 8.26187045 42.7687903 8.34695547 42.622766 8.34695547L42.2651789 8.34695547C42.1260534 8.34695547 42.049017 8.26187045 42.0260211 8.12274494 41.9098915 6.64410526 40.6094704 5.81510121 38.936515 5.81510121 37.1336324 5.81510121 35.7699725 6.62915789 35.7699725 8.16068826 35.7699725 11.8078462 43.1562721 9.54734413 43.1562721 14.0292551"/>
				<path d="M38.93663 17.329519C36.4036259 17.329519 34.6800794 16.0601425 34.545553 14.0962883 34.5386543 13.9364664 34.5984437 13.8387336 34.6501846 13.7846931 34.7260713 13.7042073 34.8330024 13.6639644 34.9583304 13.6639644L35.3147676 13.6639644C35.5366785 13.6639644 35.693051 13.8042397 35.7309943 14.0387984 35.8379255 15.3737134 37.0659093 16.1946688 38.93663 16.1946688 40.4923061 16.1946688 42.1549134 15.625519 42.1549134 14.0296 42.1549134 12.3876891 40.6153344 12.0151547 38.8319984 11.5828308 36.9279336 11.1217619 34.7697636 10.598604 34.7697636 8.1610332 34.7697636 6.2178753 36.4829619 4.86111417 38.93663 4.86111417 41.2557717 4.86111417 42.9022818 6.16038543 43.0333587 8.09434494 43.0425571 8.253017 42.9827676 8.3518996 42.9298769 8.40594008 42.8551401 8.48527611 42.7482089 8.52781862 42.622881 8.52781862L42.2652939 8.52781862C42.0422332 8.52781862 41.8858607 8.38754332 41.8479174 8.15183482 41.7432858 6.8364664 40.6026866 5.99596437 38.93663 5.99596437 37.493634 5.99596437 35.9506057 6.56511417 35.9506057 8.1610332 35.9506057 9.74890364 37.4660389 10.1145393 39.22063 10.5376648 41.1499903 11.0033328 43.3369053 11.5310899 43.3369053 14.0296 43.3369053 16.0026526 41.5685166 17.329519 38.93663 17.329519L38.93663 17.329519zM34.9583304 14.023851C34.9272858 14.023851 34.9123385 14.0307498 34.9111887 14.0330494 35.0261684 15.8313328 36.6082899 16.9696324 38.93663 16.9696324 41.3523547 16.9696324 42.9758688 15.7876405 42.9758688 14.0296 42.9758688 11.8139401 41.0235126 11.3425231 39.1355449 10.8872032 37.3924518 10.4675271 35.590719 10.0329036 35.590719 8.1610332 35.590719 6.62605344 36.9037879 5.63492794 38.93663 5.63492794 40.8039012 5.63492794 42.0870753 6.60535709 42.2055045 8.10814251 42.2170024 8.16678219 42.236549 8.16678219 42.2652939 8.16678219L42.622881 8.16678219C42.6527757 8.16678219 42.6665733 8.1598834 42.6688729 8.15758381 42.5550429 6.38689555 41.0534073 5.22215061 38.93663 5.22215061 36.6600308 5.22215061 35.1296502 6.40414251 35.1296502 8.1610332 35.1296502 10.314604 36.9704761 10.7595757 38.9182332 11.2321425 40.6866219 11.661017 42.5159498 12.1036891 42.5159498 14.0296 42.5159498 15.5875757 41.1442413 16.5545555 38.93663 16.5545555 36.8589457 16.5545555 35.494136 15.6071223 35.3734073 14.0824907 35.3630591 14.023851 35.3446623 14.023851 35.3147676 14.023851L34.9583304 14.023851zM50.4772632 2.73479352L50.4772632.876720648C50.4772632.729546559 50.5623482.644461538 50.7095223.644461538L51.0648097.644461538C51.2119838.644461538 51.2970688.729546559 51.2970688.876720648L51.2970688 2.73479352C51.2970688 2.88081781 51.2119838 2.96590283 51.0648097 2.96590283L50.7095223 2.96590283C50.5623482 2.96590283 50.4772632 2.88081781 50.4772632 2.73479352M50.4772632 16.6691903L50.4772632 5.52190283C50.4772632 5.37472874 50.5623482 5.28849393 50.7095223 5.28849393L51.0648097 5.28849393C51.2119838 5.28849393 51.2970688 5.37472874 51.2970688 5.52190283L51.2970688 16.6691903C51.2970688 16.8163644 51.2119838 16.9014494 51.0648097 16.9014494L50.7095223 16.9014494C50.5623482 16.9014494 50.4772632 16.8163644 50.4772632 16.6691903"/>
				<path d="M51.0650397 17.0813927L50.7097522 17.0813927C50.4625457 17.0813927 50.2969749 16.9158219 50.2969749 16.6686154L50.2969749 5.52132794C50.2969749 5.27412146 50.4625457 5.10855061 50.7097522 5.10855061L51.0650397 5.10855061C51.3122462 5.10855061 51.477817 5.27412146 51.477817 5.52132794L51.477817 16.6686154C51.477817 16.9158219 51.3122462 17.0813927 51.0650397 17.0813927L51.0650397 17.0813927zM50.7097522 5.46843725C50.6626105 5.46843725 50.6568615 5.47418623 50.6568615 5.52132794L50.6568615 16.6686154C50.6568615 16.7169069 50.6614607 16.7215061 50.7097522 16.7215061L51.0650397 16.7215061C51.1121814 16.7215061 51.1179304 16.7157571 51.1179304 16.6686154L51.1179304 5.52132794C51.1179304 5.47418623 51.1121814 5.46843725 51.0650397 5.46843725L50.7097522 5.46843725zM51.0650397 3.14584615L50.7097522 3.14584615C50.4625457 3.14584615 50.2969749 2.9814251 50.2969749 2.73421862L50.2969749.877295547C50.2969749.630089069 50.4625457.464518219 50.7097522.464518219L51.0650397.464518219C51.3122462.464518219 51.477817.630089069 51.477817.877295547L51.477817 2.73421862C51.477817 2.9814251 51.3122462 3.14584615 51.0650397 3.14584615L51.0650397 3.14584615zM50.7097522.824404858C50.6614607.824404858 50.6568615.829004049 50.6568615.877295547L50.6568615 2.73421862C50.6568615 2.78021053 50.6591611 2.78595951 50.7097522 2.78595951L51.0650397 2.78595951C51.114481 2.78595951 51.1179304 2.78021053 51.1179304 2.73421862L51.1179304.877295547C51.1179304.830153846 51.1121814.824404858 51.0650397.824404858L50.7097522.824404858zM70.4184324.643426721C70.5644567.643426721 70.6506915.729661538 70.6506915.87568583L70.6506915 16.6693053C70.6506915 16.8153296 70.5644567 16.9015644 70.4184324 16.9015644L70.0619951 16.9015644C69.9148211 16.9015644 69.829736 16.8153296 69.829736 16.6693053L69.829736 13.7775644C68.9110478 15.7989085 66.9517927 17.1487709 64.5349182 17.1487709 61.1970559 17.1487709 58.4961814 14.5168842 58.4961814 11.0950866 58.4961814 7.67328907 61.1970559 5.04140243 64.5349182 5.04140243 66.9517927 5.04140243 68.9110478 6.39011498 69.829736 8.41260891L69.829736.876835628C69.829736.729661538 69.9148211.644576518 70.0619951.644576518L70.4184324.644576518 70.4184324.643426721zM69.829736 11.0939368C69.829736 8.1297587 67.5232421 5.8140664 64.5740113 5.8140664 61.6236308 5.8140664 59.3171368 8.1297587 59.3171368 11.0939368 59.3171368 14.0592648 61.6236308 16.3749571 64.5740113 16.3749571 67.5232421 16.3749571 69.829736 14.0592648 69.829736 11.0939368L69.829736 11.0939368z"/>
				<path d="M64.5346883 17.3283692C61.0473522 17.3283692 58.3154332 14.5895514 58.3154332 11.0953166 58.3154332 7.59993198 61.0473522 4.86111417 64.5346883 4.86111417 66.6756113 4.86111417 68.5750769 5.92697652 69.6501377 7.6873166L69.6501377.877065587C69.6501377.629859109 69.8157085.464288259 70.062915.464288259L70.4182024.463138462C70.6654089.463138462 70.8309798.628709312 70.8309798.875915789L70.8309798 16.6695352C70.8309798 16.9155919 70.6654089 17.0811628 70.4182024 17.0811628L70.062915 17.0811628C69.8157085 17.0811628 69.6501377 16.9155919 69.6501377 16.6695352L69.6501377 14.5033166C68.5750769 16.2625069 66.6756113 17.3283692 64.5346883 17.3283692M64.5346883 5.22215061C61.2497166 5.22215061 58.6764696 7.80229636 58.6764696 11.0953166 58.6764696 14.3883368 61.2497166 16.9684826 64.5346883 16.9684826 66.8181862 16.9684826 68.7360486 15.7473976 69.665085 13.7030575L70.0100243 12.9441911 70.0100243 16.6695352C70.0100243 16.7166769 70.0157733 16.7212761 70.062915 16.7212761L70.4182024 16.7212761C70.4653441 16.7212761 70.4710931 16.7166769 70.4710931 16.6695352L70.4710931.875915789C70.4710931.839122267 70.4676437.827624291 70.443498.824174899L70.062915.824174899C70.0146235.824174899 70.0100243.828774089 70.0100243.877065587L70.0100243 9.24529231 69.665085 8.48642591C68.7371984 6.44208583 66.8181862 5.22215061 64.5346883 5.22215061M64.5737814 16.5545555C61.5245182 16.5545555 59.1363887 14.1572275 59.1363887 11.0941668 59.1363887 8.03225587 61.5245182 5.63377814 64.5737814 5.63377814 67.6230445 5.63377814 70.0100243 8.03225587 70.0100243 11.0941668 70.0100243 14.1572275 67.6230445 16.5545555 64.5737814 16.5545555M64.5737814 5.99481457C61.7280324 5.99481457 59.4962753 8.23462024 59.4962753 11.0941668 59.4962753 13.9537134 61.7280324 16.1946688 64.5737814 16.1946688 67.4195304 16.1946688 69.6501377 13.9537134 69.6501377 11.0941668 69.6501377 8.23462024 67.4195304 5.99481457 64.5737814 5.99481457M89.2744227 11.1411935L89.2744227 11.3113636C89.2675239 11.4631368 89.1778397 11.5367239 89.0352648 11.5367239L88.4695644 11.5367239 78.6744389 11.5367239C78.8641555 14.4434121 80.9291919 16.3750721 83.7323984 16.3750721 85.7100502 16.3750721 87.2657263 15.4264891 87.8958154 14.0133879 87.9590543 13.9018575 88.0406899 13.8443676 88.1717668 13.8443676L88.5833943 13.8443676C88.7570138 13.8443676 88.8455482 13.9352016 88.7903579 14.0731773 88.0544874 15.9197522 86.1377749 17.1488858 83.7232 17.1488858 80.2485117 17.1488858 77.8396858 14.6020842 77.8396858 11.0952016 77.8396858 7.68145263 80.1714753 5.04151741 83.6622607 5.04151741 87.1840907 5.04151741 89.2744227 7.95970364 89.2744227 11.1411935M78.6686899 10.7617603L88.4569166 10.7617603C88.2545522 7.70099919 86.2159611 5.81533117 83.6622607 5.81533117 80.8268599 5.81533117 78.8112648 7.85622186 78.6686899 10.7617603"/>
				<path d="M83.7236599 17.329519C80.2098785 17.329519 77.6596275 14.7068308 77.6596275 11.0953166 77.6596275 7.48265263 80.1834332 4.86111417 83.6615709 4.86111417 86.540664 4.86111417 89.454251 7.01813441 89.454251 11.1413085L89.454251 11.3114785C89.442753 11.5621344 89.278332 11.7173571 89.0345749 11.7173571L78.8703644 11.7173571C79.127919 14.404434 81.0607287 16.1946688 83.7317085 16.1946688 85.5782834 16.1946688 87.1109636 15.3300211 87.7307045 13.9399158 87.8376356 13.7501992 87.9825101 13.6639644 88.1710769 13.6639644L88.5838543 13.6639644C88.7413765 13.6639644 88.8667045 13.7191547 88.9356923 13.8203368 88.9954818 13.9123206 89.0046802 14.0250008 88.9586883 14.1399806 88.1745263 16.108434 86.1681296 17.329519 83.7236599 17.329519L83.7236599 17.329519zM83.6615709 5.22215061C80.3926964 5.22215061 78.0195142 7.69191579 78.0195142 11.0953166 78.0195142 14.5539077 80.366251 16.9696324 83.7236599 16.9696324 86.0094575 16.9696324 87.8824777 15.8405312 88.6160486 14.0250008 88.608 14.0250008 88.596502 14.023851 88.5838543 14.023851L88.1710769 14.023851C88.1181862 14.023851 88.0917409 14.035349 88.0526478 14.1020372 87.3823158 15.6094219 85.7231579 16.5545555 83.7317085 16.5545555 80.7951255 16.5545555 78.6898462 14.5435595 78.4955304 11.5483368L78.4817328 11.3563206 89.0345749 11.3563206C89.090915 11.3563206 89.0920648 11.3482721 89.0943644 11.30343L89.0943644 11.1413085C89.0943644 8.20012632 87.2282429 5.22215061 83.6615709 5.22215061L83.6615709 5.22215061zM88.6493927 10.9423935L78.4794332 10.9423935 78.4886316 10.7538267C78.6358057 7.73905749 80.7629312 5.63492794 83.6615709 5.63492794 86.4348826 5.63492794 88.4343806 7.69076599 88.6367449 10.7503773L88.6493927 10.9423935zM78.861166 10.5825069L88.2607611 10.5825069C88.0032065 7.8298915 86.1761781 5.99596437 83.6615709 5.99596437 81.0273846 5.99596437 79.0761781 7.87243401 78.861166 10.5825069L78.861166 10.5825069zM104.99434 9.15238866L104.99434 16.6686154C104.99434 16.8169393 104.909255 16.9020243 104.763231 16.9020243L104.405644 16.9020243C104.259619 16.9020243 104.174534 16.8169393 104.174534 16.6686154L104.174534 9.15238866C104.174534 7.02296356 102.881012 5.81567611 101.030988 5.81567611 98.9866478 5.81567611 97.0664858 7.28626721 97.0664858 10.3516275L97.0664858 16.6686154C97.0664858 16.8169393 96.9825506 16.9020243 96.8342267 16.9020243L96.4789393 16.9020243C96.3317652 16.9020243 96.2466802 16.8169393 96.2466802 16.6686154L96.2466802 5.52132794C96.2466802 5.37530364 96.3317652 5.28906883 96.4789393 5.28906883L96.8342267 5.28906883C96.9825506 5.28906883 97.0664858 5.37530364 97.0664858 5.52132794L97.0664858 7.60706073C97.8989393 5.74323887 99.5339514 5.04186235 101.122972 5.04186235 103.283441 5.04186235 104.99434 6.48140891 104.99434 9.15238866"/>
				<path d="M104.763001 17.0813927L104.405414 17.0813927C104.160507 17.0813927 103.994936 16.9158219 103.994936 16.6686154L103.994936 9.15238866C103.994936 7.20578138 102.858936 5.99504453 101.030758 5.99504453 99.1485393 5.99504453 97.2467741 7.34260729 97.2467741 10.3516275L97.2467741 16.6686154C97.2467741 16.9158219 97.0812032 17.0813927 96.8339968 17.0813927L96.4787093 17.0813927C96.2326526 17.0813927 96.0670818 16.9158219 96.0670818 16.6686154L96.0670818 5.52132794C96.0670818 5.27412146 96.2326526 5.10855061 96.4787093 5.10855061L96.8339968 5.10855061C97.0812032 5.10855061 97.2467741 5.27412146 97.2467741 5.52132794L97.2467741 6.89188664C98.0780777 5.59261538 99.4555352 4.86134413 101.122742 4.86134413 103.546515 4.86134413 105.173479 6.58604049 105.173479 9.15238866L105.173479 16.6686154C105.173479 16.9158219 105.009057 17.0813927 104.763001 17.0813927M101.030758 5.63515789C103.049802 5.63515789 104.354823 7.01606478 104.354823 9.15238866L104.354823 16.6686154C104.354823 16.7192065 104.360572 16.7215061 104.405414 16.7215061L104.763001 16.7215061C104.807843 16.7215061 104.813592 16.7192065 104.813592 16.6686154L104.813592 9.15238866C104.813592 6.76425911 103.365997 5.22238057 101.122742 5.22238057 100.079875 5.22238057 98.1861587 5.54202429 97.2318267 7.68064777L96.8868874 8.45561134 96.8868874 5.52132794C96.8868874 5.47418623 96.8822883 5.46843725 96.8339968 5.46843725L96.4787093 5.46843725C96.4315676 5.46843725 96.4269684 5.47418623 96.4269684 5.52132794L96.4269684 16.6686154C96.4269684 16.7157571 96.4315676 16.7215061 96.4787093 16.7215061L96.8339968 16.7215061C96.8822883 16.7215061 96.8868874 16.7169069 96.8868874 16.6686154L96.8868874 10.3516275C96.8868874 7.09310121 98.9680211 5.63515789 101.030758 5.63515789M117.54898 5.52132794L117.54898 5.83062348C117.54898 5.97779757 117.463895 6.06288259 117.31787 6.06288259L114.886049 6.06288259 114.886049 16.6686154C114.886049 16.8169393 114.800964 16.9008745 114.653789 16.9008745L114.297352 16.9008745C114.151328 16.9008745 114.065093 16.8169393 114.065093 16.6686154L114.065093 6.06288259 111.627522 6.06288259C111.480348 6.06288259 111.395263 5.97779757 111.395263 5.83062348L111.395263 5.52132794C111.395263 5.37530364 111.480348 5.28906883 111.627522 5.28906883L114.065093 5.28906883 114.065093 1.80518219C114.065093 1.65915789 114.151328 1.57292308 114.297352 1.57292308L114.653789 1.57292308C114.800964 1.57292308 114.886049 1.65915789 114.886049 1.80518219L114.886049 5.28906883 117.31787 5.28906883C117.463895 5.28906883 117.54898 5.37530364 117.54898 5.52132794"/>
				<path d="M114.653674 17.0813927L114.297237 17.0813927C114.051181 17.0813927 113.88561 16.9158219 113.88561 16.6686154L113.88561 6.24340081 111.627407 6.24340081C111.380201 6.24340081 111.21463 6.07782996 111.21463 5.83062348L111.21463 5.52132794C111.21463 5.27412146 111.380201 5.10855061 111.627407 5.10855061L113.88561 5.10855061 113.88561 1.80518219C113.88561 1.55797571 114.051181 1.39240486 114.297237 1.39240486L114.653674 1.39240486C114.900881 1.39240486 115.065302 1.55797571 115.065302 1.80518219L115.065302 5.10855061 117.317755 5.10855061C117.563812 5.10855061 117.728233 5.27412146 117.728233 5.52132794L117.728233 5.83062348C117.728233 6.07782996 117.563812 6.24340081 117.317755 6.24340081L115.065302 6.24340081 115.065302 16.6686154C115.065302 16.9158219 114.900881 17.0813927 114.653674 17.0813927L114.653674 17.0813927zM111.627407 5.46843725C111.580266 5.46843725 111.574517 5.47418623 111.574517 5.52132794L111.574517 5.83062348C111.574517 5.87776518 111.580266 5.88351417 111.627407 5.88351417L114.245496 5.88351417 114.245496 16.6686154C114.245496 16.7157571 114.250096 16.7215061 114.297237 16.7215061L114.653674 16.7215061C114.701966 16.7215061 114.705415 16.7169069 114.705415 16.6686154L114.705415 5.88351417 117.317755 5.88351417C117.362598 5.88351417 117.368347 5.88006478 117.368347 5.83062348L117.368347 5.52132794C117.368347 5.47188664 117.362598 5.46843725 117.317755 5.46843725L114.705415 5.46843725 114.705415 1.80518219C114.705415 1.75804049 114.700816 1.7534413 114.653674 1.7534413L114.297237 1.7534413C114.250096 1.7534413 114.245496 1.75804049 114.245496 1.80518219L114.245496 5.46843725 111.627407 5.46843725zM124.274836 2.73479352L124.274836.876720648C124.274836.729546559 124.359921.644461538 124.507095.644461538L124.863532.644461538C125.009556.644461538 125.095791.729546559 125.095791.876720648L125.095791 2.73479352C125.095791 2.88081781 125.009556 2.96590283 124.863532 2.96590283L124.507095 2.96590283C124.359921 2.96590283 124.274836 2.88081781 124.274836 2.73479352M124.274836 16.6691903L124.274836 5.52190283C124.274836 5.37472874 124.359921 5.28849393 124.507095 5.28849393L124.863532 5.28849393C125.009556 5.28849393 125.095791 5.37472874 125.095791 5.52190283L125.095791 16.6691903C125.095791 16.8163644 125.009556 16.9014494 124.863532 16.9014494L124.507095 16.9014494C124.359921 16.9014494 124.274836 16.8163644 124.274836 16.6691903"/>
				<path d="M124.863187 17.0813927L124.50675 17.0813927C124.260693 17.0813927 124.095122 16.9158219 124.095122 16.6686154L124.095122 5.52132794C124.095122 5.27412146 124.260693 5.10855061 124.50675 5.10855061L124.863187 5.10855061C125.110394 5.10855061 125.275964 5.27412146 125.275964 5.52132794L125.275964 16.6686154C125.275964 16.9158219 125.110394 17.0813927 124.863187 17.0813927L124.863187 17.0813927zM124.50675 5.46843725C124.459608 5.46843725 124.455009 5.47418623 124.455009 5.52132794L124.455009 16.6686154C124.455009 16.7169069 124.459608 16.7215061 124.50675 16.7215061L124.863187 16.7215061C124.910329 16.7215061 124.914928 16.7157571 124.914928 16.6686154L124.914928 5.52132794C124.914928 5.47418623 124.910329 5.46843725 124.863187 5.46843725L124.50675 5.46843725zM124.863187 3.14584615L124.50675 3.14584615C124.260693 3.14584615 124.095122 2.9814251 124.095122 2.73421862L124.095122.877295547C124.095122.630089069 124.260693.464518219 124.50675.464518219L124.863187.464518219C125.110394.464518219 125.275964.630089069 125.275964.877295547L125.275964 2.73421862C125.275964 2.9814251 125.110394 3.14584615 124.863187 3.14584615L124.863187 3.14584615zM124.50675.824404858C124.459608.824404858 124.455009.829004049 124.455009.877295547L124.455009 2.73421862C124.455009 2.78021053 124.457309 2.78595951 124.50675 2.78595951L124.863187 2.78595951C124.912628 2.78595951 124.914928 2.78021053 124.914928 2.73421862L124.914928.877295547C124.914928.830153846 124.910329.824404858 124.863187.824404858L124.50675.824404858zM137.015743 5.04082753C139.354431 5.04082753 141.196406 6.50451984 141.196406 9.19849555L141.196406 16.6687304C141.196406 16.8159045 141.111321 16.9009895 140.964147 16.9009895L140.60886 16.9009895C140.460536 16.9009895 140.375451 16.8159045 140.375451 16.6687304L140.375451 15.3809571C139.671775 16.6549328 138.200034 17.1493457 136.528228 17.1493457 134.328666 17.1493457 132.37056 15.9179126 132.37056 13.5642769 132.37056 11.2117911 134.328666 9.98035789 136.528228 9.98035789 138.216131 9.98035789 139.656828 10.5725036 140.375451 11.7303498L140.375451 9.19849555C140.375451 6.95294089 138.889913 5.81579109 137.015743 5.81579109 135.203662 5.81579109 133.79516 6.78392065 133.670981 8.5097668 133.646836 8.64889231 133.570949 8.73512713 133.430674 8.73512713L133.075386 8.73512713C132.928212 8.73512713 132.835079 8.64889231 132.843127 8.49366964 132.974204 6.45852794 134.616115 5.04197733 137.015743 5.04197733L137.015743 5.04082753zM140.375451 13.5654267C140.375451 11.5440826 138.587516 10.7392243 136.651257 10.7392243 134.476989 10.7392243 133.191516 11.8844227 133.191516 13.5642769 133.191516 15.2441312 134.476989 16.3904794 136.651257 16.3904794 138.664552 16.3904794 140.375451 15.5545765 140.375451 13.5654267L140.375451 13.5654267z"/>
				<path d="M136.527883 17.329519C134.438701 17.329519 132.190847 16.1521263 132.190847 13.563932 132.190847 10.9780372 134.438701 9.80064453 136.527883 9.80064453 138.100806 9.80064453 139.403527 10.2996567 140.195738 11.1896L140.195738 9.19815061C140.195738 6.83761619 138.552677 5.99596437 137.015398 5.99596437 135.204466 5.99596437 133.961535 6.98823968 133.851155 8.52206964 133.808612 8.7761749 133.653389 8.9153004 133.431479 8.9153004L133.075041 8.9153004C132.949713 8.9153004 132.843932 8.87275789 132.766896 8.79457166 132.716304 8.74053117 132.655365 8.64164858 132.662264 8.48527611 132.79909 6.37079838 134.467446 4.93355142 136.836029 4.86341377L136.836029 4.86111417 137.015398 4.86111417C139.624288 4.86111417 141.37658 6.60305749 141.37658 9.19815061L141.37658 16.6695352C141.37658 16.9155919 141.211009 17.0811628 140.963802 17.0811628L140.608515 17.0811628C140.361309 17.0811628 140.195738 16.9155919 140.195738 16.6695352L140.195738 15.9635595C139.44607 16.8592518 138.19279 17.329519 136.527883 17.329519M136.527883 10.1605312C134.549082 10.1605312 132.550734 11.2137457 132.550734 13.563932 132.550734 15.9164178 134.549082 16.9696324 136.527883 16.9696324 137.788062 16.9696324 139.451819 16.6787336 140.217584 15.2943773L140.555624 14.682685 140.555624 16.6695352C140.555624 16.7166769 140.561373 16.7212761 140.608515 16.7212761L140.963802 16.7212761C141.010944 16.7212761 141.016693 16.7166769 141.016693 16.6695352L141.016693 9.19815061C141.016693 6.81806964 139.492062 5.26814251 137.124628 5.22215061L137.015398 5.22215061C134.754896 5.22215061 133.149778 6.54211822 133.022151 8.50597247 133.030199 8.54736518 133.043997 8.55426397 133.075041 8.55426397L133.431479 8.55426397C133.461373 8.55426397 133.48092 8.55426397 133.493568 8.47952713 133.616596 6.75828016 134.999802 5.63492794 137.015398 5.63492794 139.166669 5.63492794 140.555624 7.03423158 140.555624 9.19815061L140.555624 12.3623935 140.223333 11.8254381C139.565649 10.7676243 138.218086 10.1605312 136.527883 10.1605312M136.650912 16.5706526C134.439851 16.5706526 133.010653 15.3909603 133.010653 13.563932 133.010653 11.7392032 134.439851 10.5595109 136.650912 10.5595109 138.538879 10.5595109 140.555624 11.3482721 140.555624 13.5650818 140.555624 15.4473004 139.096531 16.5706526 136.650912 16.5706526M136.650912 10.9193976C134.628418 10.9193976 133.370539 11.933519 133.370539 13.563932 133.370539 15.1966445 134.628418 16.210766 136.650912 16.210766 137.483365 16.210766 140.195738 16.0187498 140.195738 13.5650818 140.195738 11.1114138 137.483365 10.9193976 136.650912 10.9193976M148.912928 16.6689603L148.912928.41197247C148.912928.264798381 148.998013.17971336 149.145187.17971336L149.501624.17971336C149.647649.17971336 149.733883.264798381 149.733883.41197247L149.733883 16.6689603C149.733883 16.8161344 149.647649 16.9012194 149.501624 16.9012194L149.145187 16.9012194C148.998013 16.9012194 148.912928 16.8161344 148.912928 16.6689603"/>
				<path d="M149.501279 17.0813927L149.144842 17.0813927C148.898785 17.0813927 148.733215 16.9158219 148.733215 16.6686154L148.733215.41162753C148.733215.16557085 148.898785 0 149.144842 0L149.501279 0C149.748486 0 149.914057.16557085 149.914057.41162753L149.914057 16.6686154C149.914057 16.9158219 149.748486 17.0813927 149.501279 17.0813927L149.501279 17.0813927zM149.144842.35988664C149.096551.35988664 149.093101.36448583 149.093101.41162753L149.093101 16.6686154C149.093101 16.7169069 149.096551 16.7215061 149.144842 16.7215061L149.501279 16.7215061C149.548421 16.7215061 149.55302 16.7157571 149.55302 16.6686154L149.55302.41162753C149.55302.36448583 149.548421.35988664 149.501279.35988664L149.144842.35988664zM177.514143 16.3433377L177.514143 16.6687304C177.514143 16.8170543 177.429057 16.9009895 177.281883 16.9009895L169.214904 16.9009895 168.998742 16.9009895C168.851568 16.9009895 168.766483 16.8170543 168.766483 16.6687304L168.766483.877410526C168.766483.72908664 168.851568.644001619 168.998742.644001619L169.386223.644001619C169.533398.644001619 169.617333.72908664 169.617333.877410526L169.617333 16.1122283 177.281883 16.1122283C177.429057 16.1122283 177.514143 16.1973134 177.514143 16.3433377"/>
				<path d="M177.281653 17.0813927L168.998512 17.0813927C168.751305 17.0813927 168.586884 16.9158219 168.586884 16.6686154L168.586884.877295547C168.586884.630089069 168.751305.464518219 168.998512.464518219L169.385994.464518219C169.63205.464518219 169.797621.630089069 169.797621.877295547L169.797621 15.9315951 177.281653 15.9315951C177.52886 15.9315951 177.693281 16.097166 177.693281 16.3432227L177.693281 16.6686154C177.693281 16.9158219 177.52886 17.0813927 177.281653 17.0813927L177.281653 17.0813927zM168.998512.824404858C168.95137.824404858 168.946771.829004049 168.946771.877295547L168.946771 16.6686154C168.946771 16.7169069 168.95137 16.7215061 168.998512 16.7215061L177.281653 16.7215061C177.328795 16.7215061 177.334544 16.7157571 177.334544 16.6686154L177.334544 16.3432227C177.334544 16.2983806 177.331095 16.2914818 177.281653 16.2914818L169.437734 16.2914818 169.437734.877295547C169.437734.826704453 169.430836.824404858 169.385994.824404858L168.998512.824404858zM194.25807 11.1411935L194.25807 11.3113636C194.250021 11.4631368 194.161487 11.5367239 194.017762 11.5367239L193.453211 11.5367239 183.658086 11.5367239C183.847802 14.4434121 185.911689 16.3750721 188.716045 16.3750721 190.692547 16.3750721 192.249373 15.4264891 192.879462 14.0133879 192.942701 13.9018575 193.025487 13.8443676 193.154264 13.8443676L193.565891 13.8443676C193.740661 13.8443676 193.829195 13.9352016 193.774005 14.0731773 193.038134 15.9197522 191.121422 17.1488858 188.706847 17.1488858 185.231009 17.1488858 182.823333 14.6020842 182.823333 11.0952016 182.823333 7.68145263 185.153972 5.04151741 188.644758 5.04151741 192.167738 5.04151741 194.25807 7.95970364 194.25807 11.1411935M183.651187 10.7617603L193.440564 10.7617603C193.238199 7.70099919 191.199608 5.81533117 188.644758 5.81533117 185.810507 5.81533117 183.793762 7.85622186 183.651187 10.7617603"/>
				<path d="M188.706732 17.329519C185.192951 17.329519 182.643849 14.7068308 182.643849 11.0953166 182.643849 7.48265263 185.166505 4.86111417 188.644643 4.86111417 191.523736 4.86111417 194.437323 7.01813441 194.437323 11.1413085L194.437323 11.3114785C194.426975 11.5621344 194.261404 11.7173571 194.017647 11.7173571L183.853436 11.7173571C184.112141 14.404434 186.044951 16.1946688 188.71593 16.1946688 190.561355 16.1946688 192.094036 15.3300211 192.714926 13.9399158 192.820708 13.7501992 192.965582 13.6639644 193.154149 13.6639644L193.566926 13.6639644C193.724449 13.6639644 193.849777 13.7191547 193.918764 13.8203368 193.979704 13.9123206 193.987752 14.0250008 193.94176 14.1399806 193.157598 16.108434 191.152351 17.329519 188.706732 17.329519L188.706732 17.329519zM188.644643 5.22215061C185.376918 5.22215061 183.002586 7.69191579 183.002586 11.0953166 183.002586 14.5539077 185.349323 16.9696324 188.706732 16.9696324 190.99253 16.9696324 192.86555 15.8405312 193.599121 14.0250008 193.591072 14.0250008 193.580724 14.023851 193.566926 14.023851L193.154149 14.023851C193.101258 14.023851 193.074813 14.035349 193.03687 14.1020372 192.365388 15.6094219 190.70623 16.5545555 188.71593 16.5545555 185.778198 16.5545555 183.672918 14.5435595 183.478602 11.5483368L183.465955 11.3563206 194.017647 11.3563206C194.075137 11.3563206 194.075137 11.3482721 194.077436 11.30343L194.077436 11.1413085C194.077436 8.20012632 192.211315 5.22215061 188.644643 5.22215061L188.644643 5.22215061zM193.632465 10.9423935L183.462505 10.9423935 183.471704 10.7538267C183.620028 7.73905749 185.747153 5.63492794 188.644643 5.63492794 191.417955 5.63492794 193.418602 7.69076599 193.619817 10.7503773L193.632465 10.9423935zM183.844238 10.5825069L193.243833 10.5825069C192.987428 7.8298915 191.15925 5.99596437 188.644643 5.99596437 186.010457 5.99596437 184.0604 7.87243401 183.844238 10.5825069L183.844238 10.5825069zM205.951396 5.52132794L205.951396 5.83062348C205.951396 5.97779757 205.867461 6.06288259 205.720287 6.06288259L203.289615 6.06288259 203.289615 16.6686154C203.289615 16.8169393 203.20338 16.9008745 203.056206 16.9008745L202.700918 16.9008745C202.553744 16.9008745 202.468659 16.8169393 202.468659 16.6686154L202.468659 6.06288259 200.031088 6.06288259C199.882764 6.06288259 199.797679 5.97779757 199.797679 5.83062348L199.797679 5.52132794C199.797679 5.37530364 199.882764 5.28906883 200.031088 5.28906883L202.468659 5.28906883 202.468659 1.80518219C202.468659 1.65915789 202.553744 1.57292308 202.700918 1.57292308L203.056206 1.57292308C203.20338 1.57292308 203.289615 1.65915789 203.289615 1.80518219L203.289615 5.28906883 205.720287 5.28906883C205.867461 5.28906883 205.951396 5.37530364 205.951396 5.52132794"/>
				<path d="M203.056666 17.0813927L202.700228 17.0813927C202.454172 17.0813927 202.288601 16.9158219 202.288601 16.6686154L202.288601 6.24340081 200.030398 6.24340081C199.783192 6.24340081 199.618771 6.07782996 199.618771 5.83062348L199.618771 5.52132794C199.618771 5.27412146 199.783192 5.10855061 200.030398 5.10855061L202.288601 5.10855061 202.288601 1.80518219C202.288601 1.55797571 202.454172 1.39240486 202.700228 1.39240486L203.056666 1.39240486C203.303872 1.39240486 203.468293 1.55797571 203.468293 1.80518219L203.468293 5.10855061 205.719597 5.10855061C205.965653 5.10855061 206.132374 5.27412146 206.132374 5.52132794L206.132374 5.83062348C206.132374 6.07782996 205.965653 6.24340081 205.719597 6.24340081L203.468293 6.24340081 203.468293 16.6686154C203.468293 16.9158219 203.303872 17.0813927 203.056666 17.0813927L203.056666 17.0813927zM200.030398 5.46843725C199.983257 5.46843725 199.977508 5.47418623 199.977508 5.52132794L199.977508 5.83062348C199.977508 5.87776518 199.983257 5.88351417 200.030398 5.88351417L202.648487 5.88351417 202.648487 16.6686154C202.648487 16.7157571 202.653087 16.7215061 202.700228 16.7215061L203.056666 16.7215061C203.104957 16.7215061 203.108406 16.7169069 203.108406 16.6686154L203.108406 5.88351417 205.719597 5.88351417C205.764439 5.88351417 205.771338 5.88006478 205.771338 5.83062348L205.771338 5.52132794C205.771338 5.47188664 205.764439 5.46843725 205.719597 5.46843725L203.108406 5.46843725 203.108406 1.80518219C203.108406 1.75804049 203.103807 1.7534413 203.056666 1.7534413L202.700228 1.7534413C202.653087 1.7534413 202.648487 1.75804049 202.648487 1.80518219L202.648487 5.46843725 200.030398 5.46843725zM217.5156 5.52132794L217.5156 5.83062348C217.5156 5.97779757 217.431665 6.06288259 217.284491 6.06288259L214.853819 6.06288259 214.853819 16.6686154C214.853819 16.8169393 214.767584 16.9008745 214.62041 16.9008745L214.265122 16.9008745C214.117948 16.9008745 214.032863 16.8169393 214.032863 16.6686154L214.032863 6.06288259 211.595292 6.06288259C211.446968 6.06288259 211.361883 5.97779757 211.361883 5.83062348L211.361883 5.52132794C211.361883 5.37530364 211.446968 5.28906883 211.595292 5.28906883L214.032863 5.28906883 214.032863 1.80518219C214.032863 1.65915789 214.117948 1.57292308 214.265122 1.57292308L214.62041 1.57292308C214.767584 1.57292308 214.853819 1.65915789 214.853819 1.80518219L214.853819 5.28906883 217.284491 5.28906883C217.431665 5.28906883 217.5156 5.37530364 217.5156 5.52132794"/>
				<path d="M214.620985 17.0813927L214.264547 17.0813927C214.018491 17.0813927 213.85292 16.9158219 213.85292 16.6686154L213.85292 6.24340081 211.594717 6.24340081C211.347511 6.24340081 211.18309 6.07782996 211.18309 5.83062348L211.18309 5.52132794C211.18309 5.27412146 211.347511 5.10855061 211.594717 5.10855061L213.85292 5.10855061 213.85292 1.80518219C213.85292 1.55797571 214.018491 1.39240486 214.264547 1.39240486L214.620985 1.39240486C214.868191 1.39240486 215.032612 1.55797571 215.032612 1.80518219L215.032612 5.10855061 217.283916 5.10855061C217.529972 5.10855061 217.696693 5.27412146 217.696693 5.52132794L217.696693 5.83062348C217.696693 6.07782996 217.529972 6.24340081 217.283916 6.24340081L215.032612 6.24340081 215.032612 16.6686154C215.032612 16.9158219 214.868191 17.0813927 214.620985 17.0813927L214.620985 17.0813927zM211.594717 5.46843725C211.547576 5.46843725 211.541827 5.47418623 211.541827 5.52132794L211.541827 5.83062348C211.541827 5.87776518 211.547576 5.88351417 211.594717 5.88351417L214.212806 5.88351417 214.212806 16.6686154C214.212806 16.7157571 214.217406 16.7215061 214.264547 16.7215061L214.620985 16.7215061C214.669276 16.7215061 214.673875 16.7169069 214.673875 16.6686154L214.673875 5.88351417 217.283916 5.88351417C217.329908 5.88351417 217.335657 5.88006478 217.335657 5.83062348L217.335657 5.52132794C217.335657 5.47188664 217.329908 5.46843725 217.283916 5.46843725L214.673875 5.46843725 214.673875 1.80518219C214.673875 1.75804049 214.668126 1.7534413 214.620985 1.7534413L214.264547 1.7534413C214.217406 1.7534413 214.212806 1.75804049 214.212806 1.80518219L214.212806 5.46843725 211.594717 5.46843725zM224.242606 2.73479352L224.242606.876720648C224.242606.729546559 224.326541.644461538 224.474865.644461538L224.831302.644461538C224.977326.644461538 225.063561.729546559 225.063561.876720648L225.063561 2.73479352C225.063561 2.88081781 224.977326 2.96590283 224.831302 2.96590283L224.474865 2.96590283C224.326541 2.96590283 224.242606 2.88081781 224.242606 2.73479352M224.242606 16.6691903L224.242606 5.52190283C224.242606 5.37472874 224.326541 5.28849393 224.474865 5.28849393L224.831302 5.28849393C224.977326 5.28849393 225.063561 5.37472874 225.063561 5.52190283L225.063561 16.6691903C225.063561 16.8163644 224.977326 16.9014494 224.831302 16.9014494L224.474865 16.9014494C224.326541 16.9014494 224.242606 16.8163644 224.242606 16.6691903"/>
				<path d="M224.830957 17.0813927L224.47452 17.0813927C224.228463 17.0813927 224.062892 16.9158219 224.062892 16.6686154L224.062892 5.52132794C224.062892 5.27412146 224.228463 5.10855061 224.47452 5.10855061L224.830957 5.10855061C225.078164 5.10855061 225.242585 5.27412146 225.242585 5.52132794L225.242585 16.6686154C225.242585 16.9158219 225.078164 17.0813927 224.830957 17.0813927L224.830957 17.0813927zM224.47452 5.46843725C224.427378 5.46843725 224.422779 5.47418623 224.422779 5.52132794L224.422779 16.6686154C224.422779 16.7169069 224.426228 16.7215061 224.47452 16.7215061L224.830957 16.7215061C224.878099 16.7215061 224.882698 16.7157571 224.882698 16.6686154L224.882698 5.52132794C224.882698 5.47418623 224.878099 5.46843725 224.830957 5.46843725L224.47452 5.46843725zM224.830957 3.14584615L224.47452 3.14584615C224.228463 3.14584615 224.062892 2.9814251 224.062892 2.73421862L224.062892.877295547C224.062892.630089069 224.228463.464518219 224.47452.464518219L224.830957.464518219C225.078164.464518219 225.242585.630089069 225.242585.877295547L225.242585 2.73421862C225.242585 2.9814251 225.078164 3.14584615 224.830957 3.14584615L224.830957 3.14584615zM224.47452.824404858C224.426228.824404858 224.422779.829004049 224.422779.877295547L224.422779 2.73421862C224.422779 2.78021053 224.423929 2.78595951 224.47452 2.78595951L224.830957 2.78595951C224.880398 2.78595951 224.882698 2.78021053 224.882698 2.73421862L224.882698.877295547C224.882698.830153846 224.878099.824404858 224.830957.824404858L224.47452.824404858zM241.861299 9.15238866L241.861299 16.6686154C241.861299 16.8169393 241.776214 16.9020243 241.630189 16.9020243L241.272602 16.9020243C241.125428 16.9020243 241.041493 16.8169393 241.041493 16.6686154L241.041493 9.15238866C241.041493 7.02296356 239.747971 5.81567611 237.899096 5.81567611 235.853606 5.81567611 233.933445 7.28626721 233.933445 10.3516275L233.933445 16.6686154C233.933445 16.8169393 233.849509 16.9020243 233.701185 16.9020243L233.345898 16.9020243C233.199874 16.9020243 233.113639 16.8169393 233.113639 16.6686154L233.113639 5.52132794C233.113639 5.37530364 233.199874 5.28906883 233.345898 5.28906883L233.701185 5.28906883C233.849509 5.28906883 233.933445 5.37530364 233.933445 5.52132794L233.933445 7.60706073C234.764748 5.74323887 236.40091 5.04186235 237.99108 5.04186235 240.15155 5.04186235 241.861299 6.48140891 241.861299 9.15238866"/>
				<path d="M241.62996 17.0813927L241.272372 17.0813927C241.027466 17.0813927 240.861895 16.9158219 240.861895 16.6686154L240.861895 9.15238866C240.861895 7.20578138 239.725895 5.99504453 237.898866 5.99504453 236.014348 5.99504453 234.114883 7.34260729 234.114883 10.3516275L234.114883 16.6686154C234.114883 16.9158219 233.948162 17.0813927 233.700955 17.0813927L233.345668 17.0813927C233.098462 17.0813927 232.93404 16.9158219 232.93404 16.6686154L232.93404 5.52132794C232.93404 5.27412146 233.098462 5.10855061 233.345668 5.10855061L233.700955 5.10855061C233.948162 5.10855061 234.114883 5.27412146 234.114883 5.52132794L234.114883 6.89188664C234.946186 5.59261538 236.323644 4.86134413 237.99085 4.86134413 240.413474 4.86134413 242.040437 6.58604049 242.040437 9.15238866L242.040437 16.6686154C242.040437 16.9158219 241.876016 17.0813927 241.62996 17.0813927M237.898866 5.63515789C239.917911 5.63515789 241.221781 7.01606478 241.221781 9.15238866L241.221781 16.6686154C241.221781 16.7192065 241.22753 16.7215061 241.272372 16.7215061L241.62996 16.7215061C241.674802 16.7215061 241.6817 16.7192065 241.6817 16.6686154L241.6817 9.15238866C241.6817 6.76425911 240.231806 5.22238057 237.99085 5.22238057 236.946834 5.22238057 235.053117 5.54202429 234.098785 7.68064777L233.753846 8.45561134 233.753846 5.52132794C233.753846 5.47418623 233.749247 5.46843725 233.700955 5.46843725L233.345668 5.46843725C233.298526 5.46843725 233.293927 5.47418623 233.293927 5.52132794L233.293927 16.6686154C233.293927 16.7157571 233.298526 16.7215061 233.345668 16.7215061L233.700955 16.7215061C233.749247 16.7215061 233.753846 16.7169069 233.753846 16.6686154L233.753846 10.3516275C233.753846 7.09310121 235.83498 5.63515789 237.898866 5.63515789M261.033943 5.52132794L261.033943 16.2661862C261.033943 19.7029312 258.735498 21.7932632 255.282656 21.7932632 252.263287 21.7932632 249.956794 19.9271417 249.786623 17.9230445 249.778575 17.7678219 249.870559 17.6827368 250.018883 17.6827368L250.37417 17.6827368C250.514445 17.6827368 250.591482 17.7609231 250.613328 17.9000486 250.776599 19.3775385 252.549587 21.0194494 255.282656 21.0194494 258.449198 21.0194494 260.212988 19.1613765 260.212988 16.2661862L260.212988 13.7780243C259.2943 15.7993684 257.335045 17.148081 254.91817 17.148081 251.580308 17.148081 248.879433 14.5161943 248.879433 11.0955466 248.879433 7.67374899 251.580308 5.04186235 254.91817 5.04186235 257.335045 5.04186235 259.2943 6.3905749 260.212988 8.41191903L260.212988 5.52132794C260.212988 5.37530364 260.298073 5.28906883 260.445247 5.28906883L260.801684 5.28906883C260.950008 5.28906883 261.033943 5.37415385 261.033943 5.52132794M260.212988 11.0943968C260.212988 8.13021862 257.906494 5.81452632 254.957263 5.81452632 252.006883 5.81452632 249.701538 8.13021862 249.701538 11.0943968 249.701538 14.0597247 252.006883 16.3742672 254.957263 16.3742672 257.906494 16.3742672 260.212988 14.0597247 260.212988 11.0943968"/>
				<path d="M255.282656 21.9738964C252.341474 21.9738964 249.795822 20.164115 249.606105 17.9381069 249.599206 17.7748356 249.657846 17.6782526 249.710737 17.6242121 249.786623 17.5437263 249.893555 17.5034834 250.018883 17.5034834L250.37417 17.5034834C250.598381 17.5034834 250.754753 17.6403093 250.792696 17.8702688 250.950219 19.3029166 252.711709 20.8390462 255.282656 20.8390462 258.257182 20.8390462 260.033619 19.1292972 260.033619 16.2663012L260.033619 14.5036615C258.958559 16.2628518 257.059093 17.3287142 254.91817 17.3287142 251.429684 17.3287142 248.698915 14.5898964 248.698915 11.0956615 248.698915 7.60027692 251.429684 4.86145911 254.91817 4.86145911 257.059093 4.86145911 258.958559 5.92732146 260.033619 7.68651174L260.033619 5.52144291C260.033619 5.27423644 260.19804 5.10866559 260.445247 5.10866559L260.801684 5.10866559C261.048891 5.10866559 261.214462 5.27423644 261.214462 5.52144291L261.214462 16.2663012C261.214462 19.7340907 258.886121 21.9738964 255.282656 21.9738964L255.282656 21.9738964zM250.018883 17.86337C249.987838 17.86337 249.97404 17.8702688 249.971741 17.8725684 250.117765 19.6892486 252.19315 21.6140097 255.282656 21.6140097 258.718251 21.6140097 260.854575 19.5639206 260.854575 16.2663012L260.854575 5.52144291C260.854575 5.47315142 260.849976 5.46855223 260.801684 5.46855223L260.445247 5.46855223C260.398105 5.46855223 260.393506 5.47430121 260.393506 5.52144291L260.393506 9.24563725 260.049717 8.48677085C259.12068 6.44243077 257.201668 5.22134575 254.91817 5.22134575 251.633198 5.22134575 249.059951 7.8026413 249.059951 11.0956615 249.059951 14.3886818 251.633198 16.9676777 254.91817 16.9676777 257.201668 16.9676777 259.11953 15.7477425 260.049717 13.7034024L260.393506 12.944536 260.393506 16.2663012C260.393506 19.3546575 258.482543 21.1989328 255.282656 21.1989328 252.476 21.1989328 250.612178 19.5317263 250.435109 17.9197101 250.424761 17.86337 250.410964 17.86337 250.37417 17.86337L250.018883 17.86337zM254.957263 16.5549004C251.908 16.5549004 249.52102 14.1564227 249.52102 11.0945117 249.52102 8.03260081 251.908 5.63412308 254.957263 5.63412308 258.005377 5.63412308 260.393506 8.03260081 260.393506 11.0945117 260.393506 14.1564227 258.005377 16.5549004 254.957263 16.5549004L254.957263 16.5549004zM254.957263 5.99400972C252.110364 5.99400972 249.880907 8.23496518 249.880907 11.0945117 249.880907 13.9540583 252.110364 16.1950138 254.957263 16.1950138 257.801862 16.1950138 260.033619 13.9540583 260.033619 11.0945117 260.033619 8.23496518 257.801862 5.99400972 254.957263 5.99400972L254.957263 5.99400972zM276.78525 14.0292551C276.78525 15.8562834 275.128392 17.1498057 272.565493 17.1498057 270.096878 17.1498057 268.477963 15.8953765 268.354934 14.0832955 268.348036 13.9292227 268.440019 13.8441377 268.587194 13.8441377L268.943631 13.8441377C269.082756 13.8441377 269.159793 13.9292227 269.183938 14.0683482 269.298918 15.5469879 270.684424 16.3748421 272.565493 16.3748421 274.524748 16.3748421 275.964295 15.5619352 275.964295 14.0304049 275.964295 10.3062105 268.579145 12.5667126 268.579145 8.16068826 268.579145 6.33480972 270.157817 5.04243725 272.565493 5.04243725 274.827145 5.04243725 276.359825 6.2957166 276.482853 8.10664777 276.490902 8.26187045 276.397768 8.34695547 276.251744 8.34695547L275.895307 8.34695547C275.755032 8.34695547 275.677995 8.26187045 275.654999 8.12274494 275.53887 6.64410526 274.238449 5.81510121 272.565493 5.81510121 270.762611 5.81510121 269.398951 6.62915789 269.398951 8.16068826 269.398951 11.8078462 276.78525 9.54734413 276.78525 14.0292551"/>
				<path d="M272.565608,17.329519 C270.032604,17.329519 268.309057,16.0601425 268.175681,14.0962883 C268.167632,13.9364664 268.227422,13.8387336 268.279163,13.7846931 C268.355049,13.7042073 268.461981,13.6639644 268.587309,13.6639644 L268.943746,13.6639644 C269.166806,13.6639644 269.323179,13.8042397 269.361122,14.0387984 C269.466904,15.3737134 270.694887,16.1946688 272.565608,16.1946688 C274.122434,16.1946688 275.785041,15.625519 275.785041,14.0296 C275.785041,12.3876891 274.245462,12.0151547 272.460977,11.5828308 C270.558062,11.1217619 268.398742,10.598604 268.398742,8.1610332 C268.398742,6.2178753 270.11194,4.86111417 272.565608,4.86111417 C274.88475,4.86111417 276.53126,6.16038543 276.662337,8.09434494 C276.671535,8.253017 276.611746,8.3518996 276.560005,8.40594008 C276.484118,8.48527611 276.377187,8.52781862 276.251859,8.52781862 L275.895422,8.52781862 C275.671211,8.52781862 275.514839,8.38754332 275.476896,8.15183482 C275.372264,6.8364664 274.231665,5.99596437 272.565608,5.99596437 C271.122612,5.99596437 269.579584,6.56511417 269.579584,8.1610332 C269.579584,9.74890364 271.096167,10.1145393 272.849608,10.5376648 C274.778968,11.0033328 276.965883,11.5310899 276.965883,14.0296 C276.965883,16.0026526 275.197495,17.329519 272.565608,17.329519 L272.565608,17.329519 Z M268.587309,14.023851 C268.556264,14.023851 268.542466,14.0307498 268.540167,14.0330494 C268.656296,15.8313328 270.237268,16.9696324 272.565608,16.9696324 C274.982483,16.9696324 276.605997,15.7876405 276.605997,14.0296 C276.605997,11.8139401 274.652491,11.3425231 272.765673,10.8872032 C271.02143,10.4675271 269.219697,10.0329036 269.219697,8.1610332 C269.219697,6.62605344 270.532766,5.63492794 272.565608,5.63492794 C274.434029,5.63492794 275.716053,6.60535709 275.835632,8.10814251 C275.845981,8.16678219 275.865527,8.16678219 275.895422,8.16678219 L276.251859,8.16678219 C276.281754,8.16678219 276.295551,8.1598834 276.297851,8.15758381 C276.184021,6.38689555 274.682385,5.22215061 272.565608,5.22215061 C270.290159,5.22215061 268.758628,6.40414251 268.758628,8.1610332 C268.758628,10.314604 270.599454,10.7595757 272.547211,11.2321425 C274.3156,11.661017 276.144928,12.1036891 276.144928,14.0296 C276.144928,15.5875757 274.773219,16.5545555 272.565608,16.5545555 C270.487924,16.5545555 269.123114,15.6071223 269.002385,14.0824907 C268.993187,14.023851 268.97364,14.023851 268.943746,14.023851 L268.587309,14.023851 Z"/>
			</g>
			<path fill="#D51E39" d="M11.1714332 40.5564648L.609392713 40.5564648C.273651822 40.5564648 0 40.8301166 0 41.1658575L0 58.5186024C0 58.8554931.273651822 59.1291449.609392713 59.1291449L11.1714332 59.1291449C11.5071741 59.1291449 11.7796761 58.8554931 11.7796761 58.5186024L11.7796761 41.1658575C11.7796761 40.8301166 11.5071741 40.5564648 11.1714332 40.5564648M58.3771773-3.26792125e-14L7.55957409-3.26792125e-14C6.99042429-3.26792125e-14 6.7041247.688728745 7.10655385 1.0900081L40.2011773 34.188081C40.6139547 34.5997085 40.3219061 35.3045344 39.7389587 35.3045344L34.1267968 35.3045344C33.7795579 35.3045344 33.4990073 35.585085 33.4990073 35.9323239L33.4990073 58.5051498C33.4990073 58.8500891 33.7772583 59.1283401 34.1221976 59.1283401L58.3771773 59.1283401C58.7232664 59.1283401 59.0026672 58.8489393 59.0026672 58.5028502L59.0026672.625489879C59.0026672.280550607 58.7232664-3.26792125e-14 58.3771773-3.26792125e-14" transform="translate(223.585 72.755)"/>
		</g>
	</symbol>
</svg>
