<svg
	xmlns="http://www.w3.org/2000/svg"
	>
	<symbol
		id="logo-taylor-cole"
		viewbox="0 0 283 182"
		preserveAspectRatio="xMaxYMid meet"
		>
  <g fill="none" fill-rule="evenodd" transform="translate(.654 .891)">
    <path fill="currentColor" d="M37.9165004 3.41551582L37.9165004 2.26307278C37.9165004 1.43368038 37.3585206.876933544 36.5289984.876933544L1.38773117.876933544C.558208907.876933544.000229149798 1.43368038.000229149798 2.26307278L.000229149798 3.41551582C.000229149798 4.24490823.558208907 4.80165506 1.38773117 4.80165506L16.885132 4.80165506 16.885132 58.2642437C16.885132 59.0924905 17.441966 59.6503829 18.2714883 59.6503829L19.6440955 59.6503829C20.4747636 59.6503829 21.0315976 59.0924905 21.0315976 58.2642437L21.0315976 4.80165506 36.5289984 4.80165506C37.3585206 4.80165506 37.9165004 4.24490823 37.9165004 3.41551582M81.6115858 58.6403342C81.8670879 59.2829987 82.4032984 59.649581 83.0815818 59.649581L84.5401202 59.649581C85.1954887 59.649581 85.5094239 59.3379861 85.6388935 59.1524038 85.7695089 58.9656759 85.9528287 58.5601443 85.7225332 57.9426823L63.7436304 1.88423291C63.4881283 1.24271392 62.9507721.876131646 62.2736344.876131646L60.3751283.876131646C59.6956992.876131646 59.1594887 1.24271392 58.9016951 1.88766962L36.9262296 57.9426823C36.695934 58.5601443 36.8792538 58.9656759 37.0098692 59.1524038 37.1381931 59.3379861 37.4532741 59.649581 38.1097883 59.649581L39.567181 59.649581C40.2454644 59.649581 40.7816749 59.2829987 41.0394684 58.6368975L46.5654158 44.4421443 76.083347 44.4421443 81.6115858 58.6403342zM74.5560636 40.5162772L48.0949907 40.5162772 61.3261 6.52951772 74.5560636 40.5162772zM101.009918 32.1890171L101.009918 58.2633272C101.009918 59.1064665 101.555295 59.6494665 102.39742 59.6494665L103.771173 59.6494665C104.613299 59.6494665 105.15753 59.1064665 105.15753 58.2633272L105.15753 32.2302576 124.794521 2.74787785C125.09127 2.31256139 125.148558 1.84746013 124.951489 1.47285886 124.752129 1.09367532 124.330493.877162658 123.794283.877162658L122.268145.877162658C121.648295.877162658 121.157914 1.14064367 120.808461 1.66073228L103.097473 28.2642956 85.3841935 1.65958671C85.0370316 1.14064367 84.546651.877162658 83.9268008.877162658L82.3983717.877162658C81.8633069.877162658 81.4405255 1.09482089 81.2423109 1.47400443 81.0440964 1.84975127 81.1025296 2.31485253 81.3958413 2.74215L101.009918 32.1890171zM165.640015 58.2639L165.640015 57.111457C165.640015 56.2820646 165.083181 55.7253177 164.254804 55.7253177L137.635618 55.7253177 137.635618 2.26272911C137.635618 1.43448228 137.078784.877735443 136.250407.877735443L134.876654.877735443C134.047132.877735443 133.490298 1.43448228 133.490298 2.26272911L133.490298 58.2639C133.490298 59.0932924 134.047132 59.6500392 134.876654 59.6500392L164.254804 59.6500392C165.083181 59.6500392 165.640015 59.0932924 165.640015 58.2639M228.37825 30.2636582C228.37825 13.5761456 214.798833 0 198.107562 0 181.417436 0 167.838019 13.5761456 167.838019 30.2636582 167.838019 46.9523165 181.417436 60.528462 198.107562 60.528462 214.798833 60.528462 228.37825 46.9523165 228.37825 30.2636582M198.107562 56.5487532C183.70206 56.5487532 171.982194 44.7574051 171.982194 30.2636582 171.982194 15.7699114 183.70206 3.97741772 198.107562 3.97741772 212.51421 3.97741772 224.23293 15.7699114 224.23293 30.2636582 224.23293 44.7574051 212.51421 56.5487532 198.107562 56.5487532M275.415485 59.004969C275.795874 59.4391399 276.269068 59.6499247 276.862566 59.6499247L278.624728 59.6499247C279.185 59.6499247 279.612364 59.4196652 279.795684 59.0187158 279.983587 58.6131842 279.878178 58.1331905 279.506955 57.6990196L259.486137 35.0373614C267.289834 33.2159057 272.854736 26.2794816 272.854736 18.1837411 272.854736 8.6411462 265.08885.877620886 255.544761.877620886L237.423595.877620886C236.595218.877620886 236.037238 1.43436772 236.037238 2.26376013L236.037238 58.2637854C236.037238 59.0931778 236.595218 59.6499247 237.423595 59.6499247L238.797348 59.6499247C239.625724 59.6499247 240.182558 59.0931778 240.182558 58.2637854L240.182558 35.4932981 254.684303 35.4932981 275.415485 59.004969zM268.709417 18.1848867C268.709417 25.5646462 262.803081 31.5685766 255.544761 31.5685766L240.182558 31.5685766 240.182558 4.80234241 255.544761 4.80234241C262.803081 4.80234241 268.709417 10.8062728 268.709417 18.1848867L268.709417 18.1848867zM55.8724494 112.685101L54.2764211 112.685101C53.5958462 112.685101 53.0814049 113.012734 52.7823644 113.651962 49.1411741 122.203639 40.3578623 127.728722 30.4070324 127.728722 15.4343846 127.728722 4.14302834 116.428823 4.14302834 101.442481 4.14302834 86.4572848 15.4343846 75.1573861 30.4070324 75.1573861 40.3567166 75.1573861 49.1411741 80.6824684 52.7915304 89.2524747 53.0836964 89.8733734 53.5958462 90.2021519 54.2764211 90.2021519L55.8220364 90.2021519C56.3009595 90.2021519 56.6882227 90.023443 56.9139352 89.6992468 57.1407935 89.3750506 57.1728745 88.9488987 57.0010121 88.484943 52.9129798 78.1335759 42.2254332 71.1788228 30.4070324 71.1788228 13.0718502 71.1788228-6.51282896e-14 84.189057-6.51282896e-14 101.442481-6.51282896e-14 118.697051 13.0718502 131.707285 30.4070324 131.707285 42.4156275 131.707285 52.8900648 124.883127 57.0892348 114.327848 57.2530769 113.925753 57.2255789 113.531677 57.0147611 113.2155 56.7879028 112.878703 56.371996 112.685101 55.8724494 112.685101M94.0190162 71.1789373C77.3277449 71.1789373 63.7494737 84.7550829 63.7494737 101.442596 63.7494737 118.131254 77.3277449 131.707399 94.0190162 131.707399 110.710287 131.707399 124.288559 118.131254 124.288559 101.442596 124.288559 84.7550829 110.710287 71.1789373 94.0190162 71.1789373M94.0190162 127.727691C79.6135142 127.727691 67.8936478 115.936342 67.8936478 101.44145 67.8936478 86.9488487 79.6135142 75.1575006 94.0190162 75.1575006 108.424518 75.1575006 120.144385 86.9488487 120.144385 101.44145 120.144385 115.936342 108.424518 127.727691 94.0190162 127.727691M166.005394 126.904026L139.389645 126.904026 139.389645 73.4414373C139.389645 72.6131905 138.831665 72.0564437 138.002143 72.0564437L136.629536 72.0564437C135.801159 72.0564437 135.242034 72.6131905 135.242034 73.4414373L135.242034 129.442608C135.242034 130.272001 135.801159 130.828747 136.629536 130.828747L166.005394 130.828747C166.834916 130.828747 167.394042 130.272001 167.394042 129.442608L167.394042 128.290165C167.394042 127.461918 166.834916 126.904026 166.005394 126.904026M207.218214 126.904026L180.325194 126.904026 180.325194 103.157513 204.747979 103.157513C205.576356 103.157513 206.13319 102.600766 206.13319 101.771374L206.13319 100.617785C206.13319 99.7895386 205.576356 99.2327918 204.747979 99.2327918L180.325194 99.2327918 180.325194 75.9811652 206.804599 75.9811652C207.635267 75.9811652 208.192101 75.4232728 208.192101 74.5938804L208.192101 73.4414373C208.192101 72.6131905 207.635267 72.0564437 206.804599 72.0564437L177.56623 72.0564437C176.736708 72.0564437 176.178728 72.6131905 176.178728 73.4414373L176.178728 129.442608C176.178728 130.272001 176.736708 130.828747 177.56623 130.828747L207.218214 130.828747C208.047736 130.828747 208.603425 130.272001 208.603425 129.442608L208.603425 128.290165C208.603425 127.461918 208.047736 126.904026 207.218214 126.904026"/>
    <path fill="currentColor" d="M12.7796842 22.5299177L1.76559919 22.5299177 1.76559919 12.8395443 11.7656964 12.8395443C12.1243158 12.8395443 12.3672146 12.5978291 12.3672146 12.2381203L12.3672146 11.765C12.3672146 11.4052911 12.1243158 11.1635759 11.7656964 11.1635759L1.76559919 11.1635759 1.76559919 1.67596835 12.6124049 1.67596835C12.9710243 1.67596835 13.2116316 1.43425316 13.2116316 1.0745443L13.2116316.601424051C13.2116316.24171519 12.9710243 6.51180938e-14 12.6124049 6.51180938e-14L.60037247 6.51180938e-14C.240607287 6.51180938e-14 6.51282896e-14.24171519 6.51282896e-14.601424051L6.51282896e-14 23.604462C6.51282896e-14 23.9641709.240607287 24.2058861.60037247 24.2058861L12.7796842 24.2058861C13.1394494 24.2058861 13.3812024 23.9641709 13.3812024 23.604462L13.3812024 23.1313418C13.3812024 22.7716329 13.1394494 22.5299177 12.7796842 22.5299177M29.0959518 14.6734867C26.5409316 14.0571703 24.3330733 13.5244804 24.3330733 11.2127209 24.3330733 8.88606899 26.5810328 8.05782215 28.6834822 8.05782215 31.1090328 8.05782215 32.7726603 9.28243608 32.9238992 11.1989741 32.9800409 11.5414994 33.2080449 11.7465563 33.5334377 11.7465563L34.0524619 11.7465563C34.234636 11.7465563 34.3904579 11.6846956 34.499304 11.5701386 34.5749235 11.4899487 34.6631462 11.3478981 34.6528344 11.116493 34.4603486 8.29953734 32.0611502 6.40591076 28.6834822 6.40591076 25.1098911 6.40591076 22.6121583 8.38201835 22.6121583 11.2127209 22.6121583 14.7616956 25.7572393 15.5234994 28.5310976 16.1959487 31.1285105 16.8248665 33.371887 17.369012 33.371887 19.7609614 33.371887 22.0853222 30.9497737 22.913569 28.6834822 22.913569 25.9565996 22.913569 24.1680854 21.7187399 24.0145551 19.7735627 23.9584134 19.4310373 23.7304093 19.2271259 23.4061623 19.2271259L22.8871381 19.2271259C22.7038182 19.2271259 22.5491421 19.2866956 22.4391502 19.4023981 22.3635308 19.4814424 22.2753081 19.623493 22.2856198 19.8571892 22.4815429 22.7188222 24.9930247 24.5666259 28.6834822 24.5666259 32.5171583 24.5666259 35.092802 22.63405 35.092802 19.7598158 35.092802 16.1203411 31.9076198 15.3516639 29.0959518 14.6734867M51.8721814 6.76630696L48.5930478 6.76630696 48.5930478 1.95491456C48.5930478 1.5952057 48.3524405 1.35349051 47.9926753 1.35349051L47.473651 1.35349051C47.1150316 1.35349051 46.8721328 1.5952057 46.8721328 1.95491456L46.8721328 6.76630696 43.5838332 6.76630696C43.224068 6.76630696 42.982315 7.00802215 42.982315 7.36773101L42.982315 7.81793987C42.982315 8.17764873 43.224068 8.41936392 43.5838332 8.41936392L46.8721328 8.41936392 46.8721328 23.6038892C46.8721328 23.9635981 47.1150316 24.2053133 47.473651 24.2053133L47.9926753 24.2053133C48.3524405 24.2053133 48.5930478 23.9635981 48.5930478 23.6038892L48.5930478 8.41936392 51.8721814 8.41936392C52.2308008 8.41936392 52.4736996 8.17764873 52.4736996 7.81793987L52.4736996 7.36773101C52.4736996 7.00802215 52.2308008 6.76630696 51.8721814 6.76630696M67.3141279 6.4049943C63.7244964 6.4049943 61.1763506 8.52544367 60.9712615 11.6837791 60.9609498 11.9117475 61.0491725 12.0537981 61.1247919 12.133988 61.2347838 12.2485449 61.3894599 12.3104057 61.5727798 12.3104057L62.0906583 12.3104057C62.416051 12.3104057 62.6429093 12.1064943 62.7047798 11.7387665 62.8640389 9.50376013 64.6731765 8.05805127 67.3129822 8.05805127 69.5517757 8.05805127 71.9452453 9.28381076 71.9452453 12.7239563L71.9452453 15.6222475C70.7914761 14.3277538 68.89297 13.6003171 66.6026178 13.6003171 63.5595085 13.6003171 60.2838121 15.3152348 60.2838121 19.0818677 60.2838121 22.8507918 63.5595085 24.5657095 66.6026178 24.5657095 69.0270227 24.5657095 70.8533466 23.8818044 71.9452453 22.5770006L71.9452453 23.6045766C71.9452453 23.9642854 72.1881441 24.2060006 72.5467636 24.2060006L73.0657879 24.2060006C73.4244073 24.2060006 73.6661603 23.9642854 73.6661603 23.6045766L73.6661603 12.7228108C73.6661603 8.94357658 71.1134316 6.4049943 67.3141279 6.4049943M62.0047271 19.0818677C62.0047271 16.7071019 63.835634 15.2304627 66.7836462 15.2304627 67.9947028 15.2304627 71.9452453 15.5088361 71.9452453 19.0830133 71.9452453 22.6583361 67.9947028 22.9367095 66.7836462 22.9367095L66.7836462 22.9355639C63.835634 22.9355639 62.0047271 21.4589247 62.0047271 19.0818677M91.3591599 6.76630696L88.0800263 6.76630696 88.0800263 1.95491456C88.0800263 1.5952057 87.839419 1.35349051 87.4796538 1.35349051L86.9606296 1.35349051C86.6020101 1.35349051 86.3591113 1.5952057 86.3591113 1.95491456L86.3591113 6.76630696 83.0708117 6.76630696C82.7110466 6.76630696 82.4692935 7.00802215 82.4692935 7.36773101L82.4692935 7.81793987C82.4692935 8.17764873 82.7110466 8.41936392 83.0708117 8.41936392L86.3591113 8.41936392 86.3591113 23.6038892C86.3591113 23.9635981 86.6020101 24.2053133 86.9606296 24.2053133L87.4796538 24.2053133C87.839419 24.2053133 88.0800263 23.9635981 88.0800263 23.6038892L88.0800263 8.41936392 91.3591599 8.41936392C91.7177794 8.41936392 91.9606781 8.17764873 91.9606781 7.81793987L91.9606781 7.36773101C91.9606781 7.00802215 91.7177794 6.76630696 91.3591599 6.76630696M108.06143 6.4049943C102.996074 6.4049943 99.3182198 10.2243234 99.3182198 15.4859247 99.3182198 20.7486715 103.033884 24.5668551 108.15309 24.5668551 111.714078 24.5668551 114.635738 22.7877854 115.77805 19.9215703 115.845649 19.7543171 115.833046 19.5882095 115.743677 19.456469 115.643997 19.3075449 115.461823 19.2262095 115.232673 19.2262095L114.631155 19.2262095C114.357321 19.2262095 114.145357 19.3545133 113.990681 19.6283044 113.086685 21.6548171 110.854766 22.9137981 108.163402 22.9137981 104.272438 22.9137981 101.457333 20.3041905 101.081528 16.3909247L115.889187 16.3909247C116.24437 16.3909247 116.483831 16.1652475 116.501017 15.8009563L116.501017 15.5546589C116.501017 9.54729177 112.254872 6.4049943 108.06143 6.4049943M108.06143 8.05805127C111.72439 8.05805127 114.388256 10.7295196 114.762916 14.7378677L101.067779 14.7378677C101.38286 10.7902348 104.224317 8.05805127 108.06143 8.05805127M150.907401.4344C150.796264.158317722 150.565968.000229113924 150.273802.000229113924L149.493547.000229113924C149.200235.000229113924 148.96994.159463291 148.858802.436691139L139.831446 23.4614949C139.732911 23.7295582 139.813114 23.9071215 139.870401 23.988457 139.927689 24.0697924 140.065179 24.2061152 140.348179 24.2061152L140.947405 24.2061152C141.240717 24.2061152 141.471013 24.046881 141.581004 23.7696532L143.842713 17.9593241 155.924636 17.9593241 158.18749 23.7719443C158.298628 24.0480266 158.528923 24.2061152 158.821089 24.2061152L159.420316 24.2061152C159.70217 24.2061152 159.840806 24.0697924 159.896948 23.988457 159.954235 23.9071215 160.034438 23.7295582 159.933612 23.4569127L150.907401.4344zM155.272705 16.2833557L144.49579 16.2833557 149.884247 2.44258354 155.272705 16.2833557zM185.456087 6.76527595L184.938209 6.76642152C184.578443 6.76642152 184.33669 7.00813671 184.33669 7.36784557L184.33669 10.5215987C182.770451 7.95781392 180.003468 6.40556709 176.885885 6.40556709 171.804488 6.40556709 167.825302 10.3932949 167.825302 15.4853519 167.825302 20.5774089 171.804488 24.5662823 176.885885 24.5662823 180.003468 24.5662823 182.771597 23.0140354 184.33669 20.4502506L184.33669 23.0174722C184.33669 27.1884911 181.749589 29.6789595 177.415221 29.6789595 173.668621 29.6789595 171.103289 27.441662 170.87414 25.3544342 170.819144 25.0187823 170.59114 24.8183076 170.265747 24.8183076L169.746723 24.8183076C169.562257 24.8183076 169.407581 24.8801684 169.298735 24.9947253 169.223115 25.0749152 169.134893 25.2169658 169.147496 25.4529532 169.42133 28.6949152 173.131265 31.3320165 177.415221 31.3320165 182.665043 31.3320165 186.057605 28.0682886 186.057605 23.0174722L186.057605 7.3667C186.057605 7.00699114 185.814706 6.76527595 185.456087 6.76527595M184.33669 15.4842063C184.33669 19.6494975 181.087346 22.9132253 176.940881 22.9132253 172.795561 22.9132253 169.547362 19.6494975 169.547362 15.4842063 169.547362 11.3200608 172.795561 8.05747848 176.940881 8.05747848 181.087346 8.05747848 184.33669 11.3200608 184.33669 15.4842063M204.764249 6.4049943C199.698893 6.4049943 196.021038 10.2243234 196.021038 15.4859247 196.021038 20.7486715 199.736702 24.5668551 204.855909 24.5668551 208.416897 24.5668551 211.338557 22.7877854 212.480868 19.9215703 212.547322 19.7543171 212.535864 19.5882095 212.446496 19.456469 212.346816 19.3075449 212.164642 19.2262095 211.935492 19.2262095L211.333974 19.2262095C211.06014 19.2262095 210.848176 19.3545133 210.6935 19.6283044 209.789504 21.6548171 207.557585 22.9137981 204.866221 22.9137981 200.974111 22.9137981 198.160152 20.3041905 197.784346 16.3909247L212.592006 16.3909247C212.947188 16.3909247 213.18665 16.1652475 213.203836 15.8009563L213.203836 15.5546589C213.203836 9.54729177 208.95769 6.4049943 204.764249 6.4049943M204.764249 8.05805127C208.427209 8.05805127 211.091075 10.7295196 211.465735 14.7378677L197.770597 14.7378677C198.085678 10.7902348 200.927136 8.05805127 204.764249 8.05805127M230.209043 6.40613987L230.209043 6.4049943C227.780055 6.4049943 225.773848 7.46922848 224.562791 9.36170949L224.562791 7.36727278C224.562791 7.00870949 224.321038 6.76584873 223.961273 6.76584873L223.443395 6.76584873C223.08363 6.76584873 222.841877 7.00870949 222.841877 7.36727278L222.841877 23.6045766C222.841877 23.9642854 223.08363 24.2060006 223.443395 24.2060006L223.961273 24.2060006C224.321038 24.2060006 224.562791 23.9642854 224.562791 23.6045766L224.562791 14.4033614C224.562791 10.020412 227.332067 8.05805127 230.073844 8.05805127 232.736565 8.05805127 234.389881 9.81993734 234.389881 12.6563677L234.389881 23.6057222C234.389881 23.9642854 234.632779 24.2060006 234.991399 24.2060006L235.509277 24.2060006C235.869043 24.2060006 236.110796 23.9642854 236.110796 23.6057222L236.110796 12.6563677C236.110796 8.91837405 233.739095 6.40613987 230.209043 6.40613987M253.803795 6.76630696L250.524662 6.76630696 250.524662 1.95491456C250.524662 1.5952057 250.284054 1.35349051 249.924289 1.35349051L249.405265 1.35349051C249.046645 1.35349051 248.803747 1.5952057 248.803747 1.95491456L248.803747 6.76630696 245.515447 6.76630696C245.155682 6.76630696 244.913929 7.00802215 244.913929 7.36773101L244.913929 7.81793987C244.913929 8.17764873 245.155682 8.41936392 245.515447 8.41936392L248.803747 8.41936392 248.803747 23.6038892C248.803747 23.9635981 249.046645 24.2053133 249.405265 24.2053133L249.924289 24.2053133C250.284054 24.2053133 250.524662 23.9635981 250.524662 23.6038892L250.524662 8.41936392 253.803795 8.41936392C254.162415 8.41936392 254.405313 8.17764873 254.405313 7.81793987L254.405313 7.36773101C254.405313 7.00802215 254.162415 6.76630696 253.803795 6.76630696M269.094045 14.6734867C266.537879 14.0571703 264.331166 13.5244804 264.331166 11.2127209 264.331166 8.88606899 266.579126 8.05782215 268.681575 8.05782215 271.10598 8.05782215 272.769607 9.28243608 272.921992 11.1989741 272.978134 11.5414994 273.204992 11.7465563 273.530385 11.7465563L274.049409 11.7465563C274.232729 11.7465563 274.388551 11.6846956 274.497397 11.5701386 274.573016 11.4899487 274.661239 11.3478981 274.649781 11.116493 274.458441 8.29953734 272.059243 6.40591076 268.681575 6.40591076 265.106838 6.40591076 262.610251 8.38201835 262.610251 11.2127209 262.610251 14.7616956 265.755332 15.5234994 268.52919 16.1959487 271.126603 16.8248665 273.368834 17.369012 273.368834 19.7609614 273.368834 22.0853222 270.947866 22.913569 268.681575 22.913569 265.954692 22.913569 264.166178 21.7187399 264.012648 19.7735627 263.956506 19.4310373 263.728502 19.2271259 263.404255 19.2271259L262.885231 19.2271259C262.701911 19.2271259 262.547235 19.2866956 262.437243 19.4023981 262.361623 19.4814424 262.272255 19.623493 262.283713 19.8571892 262.479636 22.7188222 264.989972 24.5666259 268.681575 24.5666259 272.515251 24.5666259 275.089749 22.63405 275.089749 19.7598158 275.089749 16.1203411 271.905713 15.3516639 269.094045 14.6734867" transform="translate(6.655 148.872)"/>
    <path fill="#C3243A" d="M11.0839757 40.2319468L.604955466 40.2319468C.27154251 40.2319468 1.30256579e-13 40.5034468 1.30256579e-13 40.8368076L1.30256579e-13 58.0512823C1.30256579e-13 58.384643.27154251 58.656143.604955466 58.656143L11.0839757 58.656143C11.4173887 58.656143 11.6866397 58.384643 11.6866397 58.0512823L11.6866397 40.8368076C11.6866397 40.5034468 11.4173887 40.2319468 11.0839757 40.2319468M57.91933 0L7.50064575 0C6.93464575 0 6.6527915.682759494 7.05151215 1.08256329L39.8863866 33.9145886C40.295419 34.323557 40.0055445 35.0223544 39.4269413 35.0223544L33.859747 35.0223544C33.5160223 35.0223544 33.2364595 35.3007278 33.2364595 35.6455443L33.2364595 58.0379937C33.2364595 58.3793734 33.5137308 58.6554557 33.855164 58.6554557L57.91933 58.6554557C58.2619089 58.6554557 58.5403259 58.3782278 58.5403259 58.034557L58.5403259.620898734C58.5403259.278373418 58.2619089 0 57.91933 0" transform="translate(221.83 72.173)"/>
  </g>
	</symbol>
</svg>
