<svg
	xmlns="http://www.w3.org/2000/svg"
	>
	<symbol
		id="logo-fine-village"
		viewbox="0 0 283 183"
		preserveAspectRatio="xMaxYMid meet"
		>

  <g fill="none" fill-rule="evenodd" transform="translate(.252 .197)">
    <path fill="currentColor" d="M38.0704024 3.43165283L38.0704024 2.27380377C38.0704024 1.44052075 37.5124553.881162264 36.6784106.881162264L1.39314228.881162264C.56254878.881162264-6.53930388e-14 1.44052075-6.53930388e-14 2.27380377L-6.53930388e-14 3.43165283C-6.53930388e-14 4.26493585.56254878 4.82429434 1.39314228 4.82429434L16.9558415 4.82429434 16.9558415 58.5365208C16.9558415 59.3698038 17.514939 59.9303132 18.3455325 59.9303132L19.7271707 59.9303132C20.5577642 59.9303132 21.1180122 59.3698038 21.1180122 58.5365208L21.1180122 4.82429434 36.6784106 4.82429434C37.5124553 4.82429434 38.0704024 4.26493585 38.0704024 3.43165283M74.8598272 40.7064509L48.291189 40.7064509 61.5760833 6.56026226 74.8598272 40.7064509zM81.9428801 58.9155264C82.2017215 59.5612057 82.7401118 59.9295075 83.420002 59.9295075L84.8856199 59.9295075C85.542502 59.9295075 85.8588638 59.6164509 85.9888598 59.4311491 86.1188557 59.2423943 86.3017703 58.8349604 86.0728394 58.2146019L64.0034411 1.89318679C63.7469004 1.24865849 63.2085102.880356604 62.5263191.880356604L60.6212459.880356604C59.9390549.880356604 59.4006646 1.24865849 59.1429736 1.89663962L37.075876 58.2146019C36.8469451 58.8349604 37.0287093 59.2423943 37.1598557 59.4299981 37.291002 59.6164509 37.605063 59.9295075 38.2653963 59.9295075L39.7287134 59.9295075C40.4097541 59.9295075 40.9469939 59.5612057 41.2069858 58.9120736L46.7553963 44.650734 76.3933191 44.650734 81.9428801 58.9155264zM101.421448 32.3398981L101.421448 58.5376717C101.421448 59.3836151 101.969041 59.9303132 102.81459 59.9303132L104.193928 59.9303132C105.039476 59.9303132 105.584769 59.3836151 105.584769 58.5376717L105.584769 32.3813321 125.302737 2.76065283C125.601842 2.32444528 125.658212 1.85716226 125.460342 1.47965283 125.260172 1.09869057 124.836822.881162264 124.298432.881162264L122.76609.881162264C122.14372.881162264 121.650196 1.14587925 121.300472 1.66840755L103.517489 28.397917 85.7322041 1.6672566C85.3836309 1.14587925 84.8901065.881162264 84.268887.881162264L82.7342447.881162264C82.1970049.881162264 81.7725049 1.09984151 81.5734846 1.48080377 81.3744642 1.85831321 81.433135 2.32559623 81.727639 2.75489811L101.421448 32.3398981zM166.313808 58.5373264L166.313808 57.3794774C166.313808 56.5461943 165.755861 55.9868358 164.922967 55.9868358L138.196723 55.9868358 138.196723 2.27345849C138.196723 1.44132642 137.636475.881967925 136.805881.881967925L135.424243.881967925C134.59365.881967925 134.033402 1.44132642 134.033402 2.27345849L134.033402 58.5373264C134.033402 59.3706094 134.59365 59.9299679 135.424243 59.9299679L164.922967 59.9299679C165.755861 59.9299679 166.313808 59.3706094 166.313808 58.5373264M198.913913 56.8140189C184.449852 56.8140189 172.682343 44.9673585 172.682343 30.4056226 172.682343 15.8438868 184.449852 3.99607547 198.913913 3.99607547 213.377974 3.99607547 225.145482 15.8438868 225.145482 30.4056226 225.145482 44.9673585 213.377974 56.8140189 198.913913 56.8140189M229.307652 30.4056226C229.307652 13.6398302 215.671884 3.27117788e-14 198.913913 3.27117788e-14 182.155941 3.27117788e-14 168.522474 13.6398302 168.522474 30.4056226 168.522474 47.172566 182.155941 60.8123962 198.913913 60.8123962 215.671884 60.8123962 229.307652 47.172566 229.307652 30.4056226M269.802076 18.2703057C269.802076 25.684683 263.872881 31.7156264 256.583906 31.7156264L241.160406 31.7156264 241.160406 4.82498491 256.583906 4.82498491C263.872881 4.82498491 269.802076 10.8570792 269.802076 18.2703057L269.802076 18.2703057zM276.535406 59.2818717C276.918491 59.7180792 277.393609 59.9298528 277.988369 59.9298528L279.758845 59.9298528C280.321393 59.9298528 280.749345 59.6985132 280.93456 59.295683 281.123227 58.8882491 281.017389 58.4060038 280.644658 57.9697962L260.542454 35.201834C268.377873 33.371834 273.965398 26.4028717 273.965398 18.2691547 273.965398 8.68179623 266.166792.88185283 256.583906.88185283L238.390227.88185283C237.558483.88185283 236.997085 1.44121132 236.997085 2.27449434L236.997085 58.5372113C236.997085 59.3704943 237.558483 59.9298528 238.390227 59.9298528L239.768414 59.9298528C240.601308 59.9298528 241.160406 59.3704943 241.160406 58.5372113L241.160406 35.6599094 255.721101 35.6599094 276.535406 59.2818717zM56.1006085 113.213583L54.4957915 113.213583C53.8147508 113.213583 53.2982183 113.542753 52.9991126 114.18613 49.3431207 122.776772 40.5229541 128.327772 30.5293728 128.327772 15.4981614 128.327772 4.16205569 116.974866 4.16205569 101.918225 4.16205569 86.8638849 15.4981614 75.5098283 30.5293728 75.5098283 40.5218037 75.5098283 49.3419703 81.0608283 53.0071654 89.6710358 53.3005191 90.2959981 53.8147508 90.6251679 54.4957915 90.6251679L56.0499907 90.6251679C56.5297102 90.6251679 56.919698 90.4456208 57.146328 90.1199038 57.3729581 89.7941868 57.4063199 89.3660358 57.2337589 88.8999038 53.1302589 78.4999792 42.3981167 71.5126019 30.5293728 71.5126019 13.1260232 71.5126019.00103536585 84.583866.00103536585 101.918225.00103536585 119.253734 13.1260232 132.324998 30.5293728 132.324998 42.5890841 132.324998 53.10495 125.469979 57.3211898 114.864036 57.4868484 114.461206 57.4592386 114.06413 57.2487142 113.747621 57.0197833 113.408092 56.6021858 113.213583 56.1006085 113.213583M94.4021276 128.326736C79.9380667 128.326736 68.1705585 116.480075 68.1705585 101.91834 68.1705585 87.3566038 79.9380667 75.5099434 94.4021276 75.5099434 108.866189 75.5099434 120.632546 87.3566038 120.632546 101.91834 120.632546 116.480075 108.866189 128.326736 94.4021276 128.326736M94.4021276 71.512717C77.6430057 71.512717 64.0106886 85.1525472 64.0106886 101.91834 64.0106886 118.685283 77.6430057 132.325113 94.4021276 132.325113 111.160099 132.325113 124.794717 118.685283 124.794717 101.91834 124.794717 85.1525472 111.160099 71.512717 94.4021276 71.512717M166.681133 127.499553L139.95719 127.499553 139.95719 73.7873264C139.95719 72.9540434 139.395791 72.393534 138.564048 72.393534L137.185861 72.393534C136.354117 72.393534 135.792718 72.9540434 135.792718 73.7873264L135.792718 130.050043C135.792718 130.883326 136.354117 131.442685 137.185861 131.442685L166.681133 131.442685C167.515178 131.442685 168.075426 130.883326 168.075426 130.050043L168.075426 128.892194C168.075426 128.058911 167.515178 127.499553 166.681133 127.499553M208.06206 127.499553L181.059719 127.499553 181.059719 103.641647 205.580633 103.641647C206.412377 103.641647 206.971475 103.082289 206.971475 102.249006L206.971475 101.090006C206.971475 100.257874 206.412377 99.6985151 205.580633 99.6985151L181.059719 99.6985151 181.059719 76.337817 207.646763 76.337817C208.479658 76.337817 209.039906 75.7773075 209.039906 74.9451755L209.039906 73.7873264C209.039906 72.9540434 208.479658 72.393534 207.646763 72.393534L178.288389 72.393534C177.456646 72.393534 176.896398 72.9540434 176.896398 73.7873264L176.896398 130.050043C176.896398 130.883326 177.456646 131.442685 178.288389 131.442685L208.06206 131.442685C208.893804 131.442685 209.452902 130.883326 209.452902 130.050043L209.452902 128.892194C209.452902 128.058911 208.893804 127.499553 208.06206 127.499553"/>
    <path fill="#A9822D" d="M11.1290325 40.4207868L.607414634 40.4207868C.271495935 40.4207868 0 40.6935604 0 41.027334L0 58.3237113C0 58.6586358.271495935 58.9314094.607414634 58.9314094L11.1290325 58.9314094C11.4638008 58.9314094 11.7352967 58.6586358 11.7352967 58.3237113L11.7352967 41.027334C11.7352967 40.6935604 11.4638008 40.4207868 11.1290325 40.4207868M58.156385 0L7.53044593 0C6.96444593 0 6.68029553.685962264 7.0817874 1.08649057L40.050137 34.0736792C40.4596817 34.484566 40.1686289 35.1866415 39.5876736 35.1866415L33.9978484 35.1866415C33.651576 35.1866415 33.3720272 35.4663208 33.3720272 35.8127547L33.3720272 58.3102453C33.3720272 58.6532264 33.6504256 58.9306038 33.9932467 58.9306038L58.156385 58.9306038C58.5003565 58.9306038 58.7799053 58.6509245 58.7799053 58.3067925L58.7799053.623811321C58.7799053.279679245 58.5003565 0 58.156385 0" transform="translate(222.733 72.512)"/>
    <g fill="currentColor" transform="translate(6.643 149.482)">
      <path d="M13.4095984,1.32243396 L13.4095984,1.81273585 C13.4095984,2.03486792 13.2819033,2.16262264 13.0587244,2.16262264 L1.55465935,2.16262264 L1.55465935,13.4510755 L12.7665211,13.4510755 C12.9897,13.4510755 13.1173951,13.5788302 13.1173951,13.8009623 L13.1173951,14.2924151 C13.1173951,14.5133962 12.9897,14.6423019 12.7665211,14.6423019 L1.55465935,14.6423019 L1.55465935,25.1584717 C1.55465935,25.3806038 1.42696423,25.5095094 1.20493577,25.5095094 L0.621679675,25.5095094 C0.398500813,25.5095094 0.270805691,25.3806038 0.270805691,25.1584717 L0.270805691,1.32243396 C0.270805691,1.10030189 0.398500813,0.971396226 0.621679675,0.971396226 L1.55465935,0.971396226 L13.0587244,0.971396226 C13.2819033,0.971396226 13.4095984,1.10030189 13.4095984,1.32243396"/>
      <path d="M1.20447561 25.7799811L.621219512 25.7799811C.249638211 25.7799811 0 25.5302264 0 25.1584717L0 1.32243396C0 .950679245.249638211.700924528.621219512.700924528L13.0594146.700924528C13.4309959.700924528 13.6806341.950679245 13.6806341 1.32243396L13.6806341 1.81273585C13.6806341 2.18449057 13.4309959 2.43424528 13.0594146 2.43424528L1.82569512 2.43424528 1.82569512 13.1806038 12.7672114 13.1806038C13.1387927 13.1806038 13.3884309 13.4303585 13.3884309 13.8009623L13.3884309 14.2924151C13.3884309 14.6641698 13.1387927 14.9139245 12.7672114 14.9139245L1.82569512 14.9139245 1.82569512 25.1584717C1.82569512 25.5302264 1.57605691 25.7799811 1.20447561 25.7799811L1.20447561 25.7799811zM.621219512 1.24301887C.548743902 1.24301887.541841463 1.24992453.541841463 1.32243396L.541841463 25.1584717C.541841463 25.2309811.548743902 25.2378868.621219512 25.2378868L1.20447561 25.2378868C1.27695122 25.2378868 1.28385366 25.2309811 1.28385366 25.1584717L1.28385366 14.3718302 12.7672114 14.3718302C12.8385366 14.3718302 12.8465894 14.3637736 12.8465894 14.2924151L12.8465894 13.8009623C12.8465894 13.7307547 12.8419878 13.7215472 12.7672114 13.7215472L1.28385366 13.7215472 1.28385366 1.89215094 13.0594146 1.89215094C13.1318902 1.89215094 13.1387927 1.88524528 13.1387927 1.81273585L13.1387927 1.32243396C13.1387927 1.24992453 13.1318902 1.24301887 13.0594146 1.24301887L.621219512 1.24301887zM24.023939 4.12670755L24.023939 1.32185849C24.023939 1.09972642 24.1516341.971971698 24.374813.971971698L24.9109024.971971698C25.1329309.971971698 25.2617764 1.09972642 25.2617764 1.32185849L25.2617764 4.12670755C25.2617764 4.34768868 25.1329309 4.47774528 24.9109024 4.47774528L24.374813 4.47774528C24.1516341 4.47774528 24.023939 4.34768868 24.023939 4.12670755M24.023939 25.1578962L24.023939 8.33225472C24.023939 8.11127358 24.1516341 7.98236792 24.374813 7.98236792L24.9109024 7.98236792C25.1329309 7.98236792 25.2617764 8.11127358 25.2617764 8.33225472L25.2617764 25.1578962C25.2617764 25.3811792 25.1329309 25.508934 24.9109024 25.508934L24.374813 25.508934C24.1516341 25.508934 24.023939 25.3811792 24.023939 25.1578962"/>
      <path d="M24.9114776 25.7799811L24.3742378 25.7799811C24.0026565 25.7799811 23.7530183 25.5302264 23.7530183 25.1584717L23.7530183 8.33283019C23.7530183 7.96107547 24.0026565 7.71132075 24.3742378 7.71132075L24.9114776 7.71132075C25.2830589 7.71132075 25.5326972 7.96107547 25.5326972 8.33283019L25.5326972 25.1584717C25.5326972 25.5302264 25.2830589 25.7799811 24.9114776 25.7799811L24.9114776 25.7799811zM24.3742378 8.25226415C24.3029126 8.25226415 24.2948598 8.26032075 24.2948598 8.33283019L24.2948598 25.1584717C24.2948598 25.2309811 24.3017622 25.2378868 24.3742378 25.2378868L24.9114776 25.2378868C24.9828028 25.2378868 24.9908557 25.2298302 24.9908557 25.1584717L24.9908557 8.33283019C24.9908557 8.2614717 24.9828028 8.25226415 24.9114776 8.25226415L24.3742378 8.25226415zM24.9114776 4.74879245L24.3742378 4.74879245C24.0026565 4.74879245 23.7530183 4.49903774 23.7530183 4.12728302L23.7530183 1.32243396C23.7530183.950679245 24.0026565.700924528 24.3742378.700924528L24.9114776.700924528C25.2830589.700924528 25.5326972.950679245 25.5326972 1.32243396L25.5326972 4.12728302C25.5326972 4.49903774 25.2830589 4.74879245 24.9114776 4.74879245L24.9114776 4.74879245zM24.3742378 1.24301887C24.3017622 1.24301887 24.2948598 1.24992453 24.2948598 1.32243396L24.2948598 4.12728302C24.2948598 4.19864151 24.3029126 4.20669811 24.3742378 4.20669811L24.9114776 4.20669811C24.9828028 4.20669811 24.9908557 4.19749057 24.9908557 4.12728302L24.9908557 1.32243396C24.9908557 1.25107547 24.9828028 1.24301887 24.9114776 1.24301887L24.3742378 1.24301887zM44.7659984 7.6087717C48.0239496 7.6087717 50.6054618 9.78175283 50.6054618 13.8135075L50.6054618 25.1583566C50.6054618 25.3804887 50.4766163 25.5093943 50.2545878 25.5093943L49.7184984 25.5093943C49.4953195 25.5093943 49.3676244 25.3804887 49.3676244 25.1583566L49.3676244 13.8135075C49.3676244 10.6000736 47.416535 8.77697925 44.6256488 8.77697925 41.5414089 8.77697925 38.6458358 10.9959981 38.6458358 15.6239415L38.6458358 25.1583566C38.6458358 25.3804887 38.5169902 25.5093943 38.2949618 25.5093943L37.757722 25.5093943C37.5368439 25.5093943 37.4079984 25.3804887 37.4079984 25.1583566L37.4079984 8.33271509C37.4079984 8.11173396 37.5368439 7.98167736 37.757722 7.98167736L38.2949618 7.98167736C38.5169902 7.98167736 38.6458358 8.11173396 38.6458358 8.33271509L38.6458358 11.4805453C39.8997789 8.66879057 42.3674008 7.60762075 44.764848 7.60762075L44.7659984 7.6087717z"/>
      <path d="M50.255163 25.7799811L49.7179232 25.7799811C49.3463419 25.7799811 49.0967037 25.5302264 49.0967037 25.1584717L49.0967037 13.8136226C49.0967037 10.8741132 47.3837484 9.04756604 44.6250736 9.04756604 41.7847199 9.04756604 38.9167565 11.081283 38.9167565 15.6240566L38.9167565 25.1584717C38.9167565 25.5302264 38.6671183 25.7799811 38.295537 25.7799811L37.7582972 25.7799811C37.3855654 25.7799811 37.1370776 25.5302264 37.1370776 25.1584717L37.1370776 8.33283019C37.1370776 7.96107547 37.3855654 7.71132075 37.7582972 7.71132075L38.295537 7.71132075C38.6671183 7.71132075 38.9167565 7.96107547 38.9167565 8.33283019L38.9167565 10.4045283C40.1695492 8.44101887 42.2483337 7.33726415 44.7654232 7.33726415L44.8793134 7.33841509C48.4708825 7.39135849 50.8763825 9.97983019 50.8763825 13.8136226L50.8763825 25.1584717C50.8763825 25.5302264 50.6267443 25.7799811 50.255163 25.7799811M44.6250736 8.5054717C47.67135 8.5054717 49.6385451 10.5886792 49.6385451 13.8136226L49.6385451 25.1584717C49.6385451 25.2309811 49.6454476 25.2378868 49.7179232 25.2378868L50.255163 25.2378868C50.3264882 25.2378868 50.3345411 25.2298302 50.3345411 25.1584717L50.3345411 13.8136226C50.3345411 10.2088679 48.1487687 7.87935849 44.7665736 7.87935849L44.6538337 7.87935849C43.0582199 7.90237736 40.2995451 8.43641509 38.892598 11.5911509L38.374915 12.7547547 38.374915 8.33283019C38.374915 8.26032075 38.3668622 8.25226415 38.295537 8.25226415L37.7582972 8.25226415C37.686972 8.25226415 37.6777687 8.2614717 37.6777687 8.33283019L37.6777687 25.1584717C37.6777687 25.2298302 37.6858215 25.2378868 37.7582972 25.2378868L38.295537 25.2378868C38.3680126 25.2378868 38.374915 25.2309811 38.374915 25.1584717L38.374915 15.6240566C38.374915 10.7060755 41.513224 8.5054717 44.6250736 8.5054717M78.2121118 16.8163189L78.2121118 17.0729792C78.1994573 17.300866 78.0660102 17.4125075 77.8508841 17.4125075L76.9972825 17.4125075 62.2214614 17.4125075C62.5079126 21.7987528 65.622063 24.7140925 69.8498069 24.7140925 72.8339614 24.7140925 75.1807907 23.2823189 76.1321768 21.1496208 76.2276606 20.981583 76.3519045 20.8941113 76.5474736 20.8941113L77.1709939 20.8941113C77.4321362 20.8941113 77.5655833 21.0322245 77.4816037 21.2405453 76.3726118 24.0281302 73.4804898 25.8834509 69.8394533 25.8834509 64.59475 25.8834509 60.9629167 22.0381491 60.9629167 16.7449604 60.9629167 11.5933377 64.4785589 7.60762075 69.7451199 7.60762075 75.0588476 7.60762075 78.2121118 12.0134321 78.2121118 16.8163189M62.2122581 16.2431491L76.978876 16.2431491C76.6740183 11.6221113 73.5978313 8.77697925 69.7451199 8.77697925 65.4679085 8.77697925 62.4273841 11.8569038 62.2122581 16.2431491"/>
      <path d="M69.8391081 26.1542679C64.5391854 26.1542679 60.692226 22.1973245 60.692226 16.7453057 60.692226 11.2932868 64.4989211 7.3363434 69.7447748 7.3363434 74.0864089 7.3363434 78.4832626 10.5923623 78.4832626 16.8166642L78.4832626 17.0721736C78.4625553 17.449683 78.2152179 17.6833245 77.850539 17.6833245L62.5144699 17.6833245C62.9044577 21.7392491 65.8195878 24.443966 69.8506122 24.443966 72.6368967 24.443966 74.9480634 23.1387962 75.8856447 21.0394755 76.0455512 20.7551925 76.2641285 20.622834 76.5471285 20.622834L77.1706488 20.622834C77.4076325 20.622834 77.5951488 20.7080038 77.6986854 20.8599283 77.7907179 20.9980415 77.8033724 21.1683811 77.7331976 21.3421736 76.5528805 24.3093057 73.5273114 26.1542679 69.8391081 26.1542679L69.8391081 26.1542679zM69.7447748 7.87843774C64.8129821 7.87843774 61.2340675 11.6074943 61.2340675 16.7453057 61.2340675 21.9659849 64.7727179 25.6121736 69.8391081 25.6121736 73.2891772 25.6121736 76.1145756 23.9099283 77.2189659 21.1672302 77.2074618 21.1660792 77.1913561 21.1649283 77.1706488 21.1649283L76.5471285 21.1649283C76.4689008 21.1649283 76.4263358 21.1821925 76.3688154 21.2846264 75.3553073 23.5577396 72.8531732 24.9849094 69.8506122 24.9849094 65.4203967 24.9849094 62.2452748 21.9498717 61.9507707 17.430117L61.9312138 17.1412302 77.850539 17.1412302C77.9333683 17.1412302 77.9379699 17.1308717 77.9414211 17.0583623L77.9414211 16.8166642C77.9414211 12.3740226 75.1263764 7.87843774 69.7447748 7.87843774L69.7447748 7.87843774zM77.2684333 16.513966L61.9277626 16.513966 61.9415675 16.229683C62.1647463 11.6823057 65.3732301 8.50570189 69.7447748 8.50570189 73.9299537 8.50570189 76.9451691 11.6074943 77.2488764 16.2250792L77.2684333 16.513966zM62.500665 15.9718717L76.6851772 15.9718717C76.2974902 11.818117 73.5388154 9.04779623 69.7447748 9.04779623 65.7689699 9.04779623 62.8262301 11.8802679 62.500665 15.9718717L62.500665 15.9718717zM108.219315 5.69014906C108.781864 5.91458302 109.289193 6.19656415 109.710242 6.56256415 110.132441 6.92856415 110.4419 7.35096038 110.69499 7.82975283 110.948079 8.30739434 111.06197 8.81496038 111.089579 9.35014906 110.948079 9.3777717 110.8641 9.40654528 110.75136 9.43416792 110.52703 9.49056415 110.35677 9.49056415 110.245181 9.49056415 110.160051 9.49056415 110.076071 9.46179057 110.019701 9.40654528 109.964482 9.35014906 109.908112 9.29375283 109.879352 9.18096038 109.822982 8.92775283 109.710242 8.6457717 109.541132 8.33616792 109.373173 8.02656415 109.175303 7.71696038 108.894604 7.43613019 108.612754 7.15299811 108.275685 6.90094151 107.881096 6.70413019 107.460047 6.50616792 107.009087 6.42214906 106.446539 6.42214906 105.88399 6.42214906 105.349051 6.50616792 104.898091 6.6753566 104.448283 6.84454528 104.054843 7.09775283 103.716624 7.4073566 103.379555 7.71696038 103.125315 8.11173396 102.957356 8.53413019 102.788246 8.95537547 102.676657 9.43416792 102.676657 9.94058302 102.676657 10.7013566 102.873376 11.4621302 103.266815 12.1653566 103.660254 12.868583 104.279173 13.600583 105.095961 14.4177528L111.370278 20.6109792C111.792478 19.9353755 112.129547 19.2321491 112.383787 18.4989981 112.636876 17.7669981 112.777226 17.0637717 112.861205 16.3881679 112.891116 16.2753755 112.918726 16.162583 112.975096 16.1061868 113.031465 16.0497906 113.143055 15.9933943 113.255795 15.9933943L114.015063 15.9933943C113.987453 16.8669604 113.818343 17.7957717 113.510035 18.724583 113.199425 19.6533943 112.777226 20.554583 112.185917 21.3982245L116.350388 25.5093943 115.112551 25.5093943C114.944591 25.5093943 114.804242 25.4806208 114.691502 25.4529981 114.577612 25.4242245 114.466022 25.3402057 114.325673 25.1986396L111.455409 22.3558094C111.032059 22.8346019 110.55464 23.2846208 110.048461 23.707017 109.541132 24.1294132 109.007343 24.4954132 108.416035 24.7773943 107.824726 25.0582245 107.178197 25.312583 106.502909 25.4806208 105.82762 25.6498094 105.124722 25.7338283 104.391913 25.7338283 103.689014 25.7338283 102.984965 25.6210358 102.309677 25.3966019 101.634388 25.171017 101.01547 24.805017 100.48053 24.3549981 99.9467419 23.9038283 99.4957825 23.341017 99.1587134 22.6654132 98.8204939 21.9898094 98.6801443 21.2578094 98.6801443 20.4141679 98.6801443 19.7374132 98.764124 19.090583 99.0172134 18.4702245 99.2714533 17.851017 99.6085224 17.2882057 100.030722 16.7817906 100.452921 16.2753755 100.9591 15.8253566 101.550409 15.430583 102.141717 15.0369604 102.731876 14.6709604 103.407165 14.4177528 102.731876 13.6569792 102.253307 12.9537528 101.916238 12.2493755 101.579169 11.5461491 101.436518 10.7853755 101.436518 9.9693566 101.436518 9.32137547 101.550409 8.70216792 101.774738 8.1393566 102.000217 7.57654528 102.338437 7.12537547 102.788246 6.70413019 103.238055 6.28173396 103.772994 5.9433566 104.391913 5.7177717 105.010831 5.49333774 105.68727 5.3517717 106.446539 5.3517717 107.065457 5.3517717 107.656766 5.46571509 108.219315 5.69014906M100.452921 22.2153943C100.73362 22.7494321 101.071839 23.2006019 101.522799 23.5666019 101.971457 23.9326019 102.450026 24.1858094 102.984965 24.3549981 103.519904 24.5230358 104.054843 24.6369792 104.589783 24.6369792 105.236311 24.6369792 105.85523 24.5518094 106.446539 24.4113943 107.037848 24.2709792 107.600396 24.0741679 108.106575 23.7921868 108.612754 23.5102057 109.091323 23.2006019 109.513522 22.8346019 109.935722 22.4686019 110.301551 22.0738283 110.66738 21.6249604L104.222803 15.2613943C104.167583 15.2061491 104.111213 15.1773755 104.054843 15.1209792 103.435925 15.3741868 102.900986 15.6849415 102.394807 16.0497906 101.887478 16.4157906 101.436518 16.8393377 101.1006 17.2882057 100.76238 17.7393755 100.509291 18.2181679 100.312571 18.724583 100.114701 19.2321491 100.030722 19.7650358 100.030722 20.3289981 100.030722 21.0609981 100.171071 21.6813566 100.452921 22.2153943"/>
      <path d="M104.391683 26.0148887C103.651971 26.0148887 102.922613 25.8963415 102.220865 25.6638509 101.535223 25.4336623 100.888695 25.0665113 100.299687 24.5693038 99.7210321 24.0824547 99.2528167 23.4839642 98.9065443 22.7910962 98.560272 22.0993792 98.399215 21.3432094 98.399215 20.4143981 98.399215 19.6133415 98.5131053 18.9630585 98.7569915 18.3645679 99.021585 17.7188887 99.3770606 17.1261528 99.814215 16.6013226 100.25252 16.0753415 100.784008 15.6034547 101.394874 15.1971717 101.842382 14.8979264 102.356613 14.5676057 102.93987 14.3063415 102.389975 13.6491528 101.971227 13.0138321 101.661768 12.3716057 101.321248 11.6603226 101.155589 10.8742283 101.155589 9.96958679 101.155589 9.28132264 101.276382 8.63103962 101.513365 8.03485094 101.741146 7.46513396 102.085117 6.97598302 102.595898 6.49834151 103.087122 6.03681321 103.658874 5.68462453 104.296199 5.45443585 105.631821 4.96873774 107.056024 4.9227 108.323772 5.42796415 108.958796 5.68232264 109.471878 5.98386981 109.894077 6.34986981 110.311674 6.71126604 110.653345 7.15207736 110.943248 7.69877547 111.198638 8.17986981 111.337837 8.71505849 111.370048 9.33541698L111.382703 9.57826604 111.144569 9.62660566C111.057138 9.64271887 110.993865 9.66113396 110.930593 9.67839811L110.820154 9.7071717C110.561313 9.77162453 110.362292 9.77162453 110.244951 9.77162453 110.081593 9.77162453 109.927439 9.71062453 109.821601 9.60473774 109.754878 9.53913396 109.653642 9.43785094 109.606475 9.25024717 109.553557 9.01545472 109.44887 8.75534151 109.294715 8.47105849 109.162418 8.22820943 108.974902 7.91400189 108.695353 7.63432264 108.418105 7.35694528 108.101743 7.12905849 107.755471 6.95526604 107.386191 6.78147358 106.980097 6.70320943 106.446309 6.70320943 105.907918 6.70320943 105.407491 6.78492642 104.996796 6.93915283 104.601057 7.08877547 104.232926 7.31551132 103.906211 7.61590755 103.617459 7.87947358 103.379325 8.23396415 103.218268 8.63794528 103.044557 9.0707 102.957126 9.50920943 102.957126 9.94081321 102.957126 10.6578509 103.149243 11.3794925 103.511622 12.0286245 103.864796 12.6593415 104.430796 13.3545113 105.294752 14.2188698L111.314829 20.1588887C111.639243 19.5972283 111.909589 19.0090962 112.117813 18.4071528 112.33639 17.772983 112.489394 17.1008321 112.582577 16.3527189 112.627443 16.1697189 112.666557 16.0154925 112.775845 15.9073038 112.894337 15.7887566 113.083004 15.7127943 113.255565 15.7127943L114.305886 15.7127943 114.295532 16.0028321C114.266772 16.918983 114.09191 17.8650585 113.776699 18.8134358 113.459187 19.765266 113.056544 20.6020019 112.551516 21.3639264L117.0358 25.7904547 115.112321 25.7904547C114.906398 25.7904547 114.733837 25.7536245 114.623398 25.7260019 114.423227 25.6765113 114.258719 25.5314925 114.125272 25.3968321L111.465532 22.7634736C111.105455 23.1490396 110.691309 23.5380585 110.227695 23.9236245 109.661695 24.3966623 109.108349 24.7580585 108.537748 25.031983 107.856707 25.3553981 107.195223 25.5982472 106.571703 25.7536245 105.876857 25.927417 105.142898 26.0148887 104.391683 26.0148887L104.391683 26.0148887zM106.446309 5.63283208C105.775622 5.63283208 105.134845 5.74792642 104.487166 5.98271887 103.924617 6.18758679 103.416138 6.49949245 102.980134 6.90807736 102.532626 7.32932264 102.23237 7.75286981 102.0368 8.24432264 101.826276 8.77260566 101.718138 9.35268113 101.718138 9.96958679 101.718138 10.7890585 101.86654 11.4945868 102.169097 12.1287566 102.500414 12.8181717 102.975532 13.5064358 103.617459 14.2315302L103.888955 14.5376811 103.50587 14.6803981C102.825979 14.9359075 102.219715 15.3226245 101.706634 15.6644547 101.141784 16.0419642 100.650561 16.4781717 100.245617 16.9627189 99.8464264 17.4426623 99.5208614 17.9859075 99.2781256 18.5774925 99.0618492 19.1057755 98.9606134 19.6893038 98.9606134 20.4143981 98.9606134 21.2522849 99.1032638 21.9278887 99.4104224 22.5390396 99.7210321 23.1628509 100.143231 23.7014925 100.662065 24.1400019 101.197004 24.5900208 101.78026 24.9226434 102.399178 25.1298132 103.712943 25.5660208 105.161304 25.5268887 106.433654 25.2080774 107.021512 25.0619075 107.648483 24.8317189 108.296162 24.523266 108.824199 24.2712094 109.33843 23.9328321 109.868768 23.4920208 110.396804 23.0512094 110.859268 22.6057943 111.243504 22.1695868L111.441374 21.9474547 114.523313 24.9986057C114.6303 25.1067943 114.709678 25.1677943 114.759146 25.1793038 114.848878 25.2023226 114.96852 25.2276434 115.112321 25.2276434L115.665666 25.2276434 111.819857 21.432983 111.955605 21.2373226C112.493996 20.4696434 112.915044 19.6167943 113.24291 18.6361906 113.507504 17.8385868 113.66741 17.0455868 113.719178 16.2744547L113.255565 16.2744547C113.225654 16.2744547 113.18539 16.2951717 113.172735 16.3055302 113.171585 16.3147377 113.149727 16.3953038 113.137073 16.4470962 113.042739 17.2101717 112.881683 17.9191528 112.650451 18.5913038 112.389309 19.3417189 112.038435 20.0725679 111.608183 20.7608321L111.422967 21.0577755 104.897861 14.6182472C103.995943 13.7147566 103.400032 12.9804547 103.021548 12.3025491 102.612004 11.5705491 102.395727 10.7545302 102.395727 9.94081321 102.395727 9.43785094 102.496963 8.92798302 102.695983 8.42962453 102.888101 7.94737925 103.174552 7.52268113 103.526577 7.19926604 103.906211 6.85168113 104.335313 6.58581321 104.798926 6.41202075 105.271743 6.23362453 105.841195 6.14039811 106.446309 6.14039811 107.057174 6.14039811 107.551849 6.2382283 108.000508 6.44885094 108.406601 6.65256792 108.773581 6.91498302 109.093394 7.23724717 109.423561 7.56756792 109.638687 7.92551132 109.788239 8.20058679 109.971154 8.53666226 110.090796 8.83705849 110.154069 9.11903962 110.162122 9.14896415 110.171325 9.15932264 110.218491 9.20651132 110.359991 9.20881321 110.493439 9.20881321 110.683256 9.16047358L110.782191 9.13515283C110.785642 9.13400189 110.787943 9.13285094 110.790243 9.13285094 110.743077 8.69319057 110.630337 8.30877547 110.447422 7.96119057 110.18628 7.47203962 109.894077 7.09453019 109.525947 6.77456792 109.152065 6.45115283 108.689601 6.18183208 108.114398 5.9516434 107.586361 5.74102075 107.024963 5.63283208 106.446309 5.63283208L106.446309 5.63283208zM104.589552 24.9180396C104.076471 24.9180396 103.539231 24.8248132 102.900756 24.6233981 102.323252 24.4415491 101.814772 24.1676245 101.345406 23.7855113 100.893296 23.4172094 100.520565 22.9476245 100.204203 22.3468321 99.8981947 21.7667566 99.7497923 21.1061151 99.7497923 20.3292283 99.7497923 19.7008132 99.8475768 19.1414547 100.051199 18.6223792 100.268626 18.0595679 100.537821 17.5681151 100.87489 17.1192472 101.21541 16.6646245 101.683626 16.2157566 102.228918 15.822134 102.785715 15.4204547 103.349414 15.1050962 103.947626 14.8610962L104.121337 14.7897377 104.253634 14.9220962C104.345666 14.9957566 104.38363 15.0245302 104.421593 15.0625113L111.046784 21.6044736 110.885727 21.8024358C110.477333 22.3030962 110.1 22.6990208 109.697357 23.0477566 109.302768 23.3907377 108.8265 23.7141528 108.244394 24.0375679 107.747418 24.3137943 107.181418 24.5255679 106.511882 24.6855491 105.851548 24.8409264 105.222276 24.9180396 104.589552 24.9180396L104.589552 24.9180396zM104.007447 15.4469264C103.50587 15.6656057 103.030752 15.9372283 102.557935 16.2779075 102.059809 16.6393038 101.633008 17.0467377 101.324699 17.4564736 101.018691 17.8639075 100.773654 18.3127755 100.574634 18.8272472 100.397471 19.2795679 100.311191 19.7710208 100.311191 20.3292283 100.311191 21.0117377 100.438886 21.5860585 100.701178 22.084417L100.702329 22.084417C100.985329 22.6242094 101.301691 23.0247377 101.699731 23.3493038 102.113878 23.6853792 102.561386 23.9270774 103.069865 24.0859075 103.651971 24.2700585 104.133991 24.3563792 104.589552 24.3563792 105.17741 24.3563792 105.762967 24.2838698 106.380735 24.1365491 106.999654 23.9903792 107.519638 23.7958698 107.969447 23.5449642 108.519341 23.2411151 108.964548 22.938417 109.329227 22.6230585 109.652491 22.3422283 109.9608 22.0268698 110.286365 21.6436057L104.007447 15.4469264zM144.679493 25.2291396L135.679863 1.37468679C135.591282 1.13068679 135.721278.971856604 135.972067.971856604L136.593286.971856604C136.788855.971856604 136.924603 1.0593283 136.994778 1.25038491L145.485928 23.9780642 153.977079 1.25038491C154.047254 1.0593283 154.184152.971856604 154.379721.971856604L155.000941.971856604C155.250579.971856604 155.381725 1.13068679 155.291993 1.37468679L146.291213 25.2291396C146.221038 25.4086868 146.08529 25.5088189 145.889721 25.5088189L145.083286 25.5088189C144.886567 25.5088189 144.750819 25.4086868 144.679493 25.2291396"/>
      <path d="M145.889491 25.7799811L145.083056 25.7799811C144.779349 25.7799811 144.540064 25.6153962 144.427324 25.3276604L144.426174 25.3242075 135.425393 1.47090566C135.352918 1.26833962 135.369024 1.07843396 135.47141.932264151 135.576097.782641509 135.753259.700924528 135.971837.700924528L136.593056.700924528C136.907117.700924528 137.14065.863207547 137.248788 1.15554717L145.485698 23.2041698 153.723759 1.15554717C153.829597.863207547 154.063129.700924528 154.379491.700924528L155.000711.700924528C155.218137.700924528 155.39645.782641509 155.499987.932264151 155.602373 1.07958491 155.618479 1.26949057 155.547154 1.46860377L146.545223 25.3242075C146.431333 25.6153962 146.193198 25.7799811 145.889491 25.7799811L145.889491 25.7799811zM144.932353 25.132C144.968015 25.2217736 145.012881 25.2378868 145.083056 25.2378868L145.889491 25.2378868C145.958515 25.2378868 146.004532 25.2206226 146.040194 25.1308491L155.037524 1.27984906 154.379491 1.24301887C154.29206 1.24301887 154.259849 1.26373585 154.232239 1.34430189L145.485698 24.7521887 136.741459 1.34545283C136.710398 1.26488679 136.679337 1.24301887 136.593056 1.24301887L135.971837 1.24301887 144.932353 25.132zM164.532979 4.12670755L164.532979 1.32185849C164.532979 1.09972642 164.660674.971971698 164.883853.971971698L165.419942.971971698C165.641971.971971698 165.770816 1.09972642 165.770816 1.32185849L165.770816 4.12670755C165.770816 4.34768868 165.641971 4.47774528 165.419942 4.47774528L164.883853 4.47774528C164.660674 4.47774528 164.532979 4.34768868 164.532979 4.12670755M164.532979 25.1578962L164.532979 8.33225472C164.532979 8.11127358 164.660674 7.98236792 164.883853 7.98236792L165.419942 7.98236792C165.641971 7.98236792 165.770816 8.11127358 165.770816 8.33225472L165.770816 25.1578962C165.770816 25.3811792 165.641971 25.508934 165.419942 25.508934L164.883853 25.508934C164.660674 25.508934 164.532979 25.3811792 164.532979 25.1578962"/>
      <path d="M165.420517 25.7799811L164.883278 25.7799811C164.511696 25.7799811 164.262058 25.5302264 164.262058 25.1584717L164.262058 8.33283019C164.262058 7.96107547 164.511696 7.71132075 164.883278 7.71132075L165.420517 7.71132075C165.792099 7.71132075 166.041737 7.96107547 166.041737 8.33283019L166.041737 25.1584717C166.041737 25.5302264 165.792099 25.7799811 165.420517 25.7799811L165.420517 25.7799811zM164.883278 8.25226415C164.811952 8.25226415 164.8039 8.26032075 164.8039 8.33283019L164.8039 25.1584717C164.8039 25.2309811 164.810802 25.2378868 164.883278 25.2378868L165.420517 25.2378868C165.491843 25.2378868 165.499896 25.2298302 165.499896 25.1584717L165.499896 8.33283019C165.499896 8.2614717 165.491843 8.25226415 165.420517 8.25226415L164.883278 8.25226415zM165.420517 4.74879245L164.883278 4.74879245C164.511696 4.74879245 164.262058 4.49903774 164.262058 4.12728302L164.262058 1.32243396C164.262058.950679245 164.511696.700924528 164.883278.700924528L165.420517.700924528C165.792099.700924528 166.041737.950679245 166.041737 1.32243396L166.041737 4.12728302C166.041737 4.49903774 165.792099 4.74879245 165.420517 4.74879245L165.420517 4.74879245zM164.883278 1.24301887C164.810802 1.24301887 164.8039 1.24992453 164.8039 1.32243396L164.8039 4.12728302C164.8039 4.19864151 164.811952 4.20669811 164.883278 4.20669811L165.420517 4.20669811C165.491843 4.20669811 165.499896 4.19749057 165.499896 4.12728302L165.499896 1.32243396C165.499896 1.25107547 165.491843 1.24301887 165.420517 1.24301887L164.883278 1.24301887zM177.916578 25.1583566L177.916578.62139434C177.916578.398111321 178.044273.270356604 178.267452.270356604L178.803541.270356604C179.02557.270356604 179.154415.398111321 179.154415.62139434L179.154415 25.1583566C179.154415 25.3804887 179.02557 25.5093943 178.803541 25.5093943L178.267452 25.5093943C178.044273 25.5093943 177.916578 25.3804887 177.916578 25.1583566"/>
      <path d="M178.804117 25.7799811L178.266877 25.7799811C177.895296 25.7799811 177.645657 25.5302264 177.645657 25.1584717L177.645657.621509434C177.645657.248603774 177.895296 0 178.266877 0L178.804117 0C179.175698 0 179.425336.248603774 179.425336.621509434L179.425336 25.1584717C179.425336 25.5302264 179.175698 25.7799811 178.804117 25.7799811L178.804117 25.7799811zM178.266877.540943396C178.194401.540943396 178.187499.547849057 178.187499.621509434L178.187499 25.1584717C178.187499 25.2309811 178.194401 25.2378868 178.266877 25.2378868L178.804117 25.2378868C178.875442 25.2378868 178.883495 25.2298302 178.883495 25.1584717L178.883495.621509434C178.883495.549 178.875442.540943396 178.804117.540943396L178.266877.540943396zM191.299027 25.1583566L191.299027.62139434C191.299027.398111321 191.426722.270356604 191.649901.270356604L192.18599.270356604C192.408019.270356604 192.536864.398111321 192.536864.62139434L192.536864 25.1583566C192.536864 25.3804887 192.408019 25.5093943 192.18599 25.5093943L191.649901 25.5093943C191.426722 25.5093943 191.299027 25.3804887 191.299027 25.1583566"/>
      <path d="M192.186565 25.7799811L191.649326 25.7799811C191.277744 25.7799811 191.028106 25.5302264 191.028106 25.1584717L191.028106.621509434C191.028106.248603774 191.277744 0 191.649326 0L192.186565 0C192.558147 0 192.807785.248603774 192.807785.621509434L192.807785 25.1584717C192.807785 25.5302264 192.558147 25.7799811 192.186565 25.7799811L192.186565 25.7799811zM191.649326.540943396C191.57685.540943396 191.569948.547849057 191.569948.621509434L191.569948 25.1584717C191.569948 25.2309811 191.57685 25.2378868 191.649326 25.2378868L192.186565 25.2378868C192.257891 25.2378868 192.265943 25.2298302 192.265943 25.1584717L192.265943.621509434C192.265943.549 192.257891.540943396 192.186565.540943396L191.649326.540943396zM216.829308 13.8826792L216.829308 25.1584717C216.829308 25.3794528 216.700463 25.5095094 216.478434 25.5095094L215.942345 25.5095094C215.720316 25.5095094 215.591471 25.3794528 215.591471 25.1584717L215.591471 23.2145283C214.529646 25.1354528 212.308211 25.8824151 209.78652 25.8824151 206.468747 25.8824151 203.514503 24.0259434 203.514503 20.4729811 203.514503 16.9211698 206.468747 15.0623962 209.78652 15.0623962 212.33352 15.0623962 214.506637 15.9578302 215.59032 17.7038113L215.59032 13.8826792C215.59032 10.4943019 213.348178 8.7759434 210.52278 8.7759434 207.789414 8.7759434 205.663463 10.2376415 205.477097 12.8433774 205.441434 13.0528491 205.325243 13.1829057 205.113568 13.1829057L204.577479 13.1829057C204.35545 13.1829057 204.215101 13.0528491 204.226605 12.8192075 204.425625 9.74618868 206.9013 7.60773585 210.52278 7.60773585 214.049926 7.60773585 216.829308 9.81639623 216.829308 13.8826792M215.591471 20.4741321C215.591471 17.4229811 212.892617 16.2087358 209.972885 16.2087358 206.690776 16.2087358 204.753491 17.9374528 204.753491 20.4729811 204.753491 23.0085094 206.690776 24.7383774 209.972885 24.7383774 213.009959 24.7383774 215.591471 23.4757925 215.591471 20.4741321"/>
      <path d="M209.78652 26.153117C206.635556 26.153117 203.244158 24.3760604 203.244158 20.4720604 203.244158 16.5692113 206.635556 14.7921547 209.78652 14.7921547 212.159808 14.7921547 214.124702 15.5471736 215.319975 16.8891736L215.319975 13.8829094C215.319975 10.3172868 212.840849 9.04779623 210.52278 9.04779623 207.788263 9.04779623 205.913101 10.5440226 205.747442 12.8620226 205.68417 13.241834 205.448337 13.4536075 205.113568 13.4536075L204.577479 13.4536075C204.388812 13.4536075 204.227755 13.3903057 204.113865 13.2717585 204.035637 13.1888906 203.944755 13.0415698 203.956259 12.8056264 204.167934 9.53349434 206.805816 7.3363434 210.52278 7.3363434 214.45717 7.3363434 217.099654 9.9674 217.099654 13.8829094L217.099654 25.1587019C217.099654 25.5304566 216.851166 25.7802113 216.478434 25.7802113L215.942345 25.7802113C215.569613 25.7802113 215.321125 25.5304566 215.321125 25.1587019L215.321125 24.0894755C214.190276 25.4441358 212.299007 26.153117 209.78652 26.153117M209.78652 15.3342491C206.798914 15.3342491 203.784849 16.9225509 203.784849 20.4720604 203.784849 24.0215698 206.798914 25.6110226 209.78652 25.6110226 211.689292 25.6110226 214.199479 25.1725132 215.354487 23.0835509L215.861816 22.1639472 215.861816 25.1587019C215.861816 25.2289094 215.87102 25.238117 215.942345 25.238117L216.478434 25.238117C216.549759 25.238117 216.558963 25.2289094 216.558963 25.1587019L216.558963 13.8829094C216.558963 10.2355698 214.189125 7.87843774 210.52278 7.87843774 207.110674 7.87843774 204.689068 9.8718717 204.49695 12.8378528 204.509605 12.9000038 204.530312 12.9115132 204.577479 12.9115132L205.113568 12.9115132C205.160735 12.9115132 205.190646 12.9115132 205.209052 12.7975698 205.394267 10.2010415 207.481105 8.50570189 210.52278 8.50570189 213.765776 8.50570189 215.860666 10.6165321 215.860666 13.8829094L215.860666 18.6558717 215.360239 17.8467585C214.369739 16.2504 212.338121 15.3342491 209.78652 15.3342491M209.972885 25.0090792C206.637857 25.0090792 204.483146 23.2285698 204.483146 20.4720604 204.483146 17.7178528 206.637857 15.9373434 209.972885 15.9373434 212.820141 15.9373434 215.861816 17.1285698 215.861816 20.4732113 215.861816 23.3137396 213.661089 25.0090792 209.972885 25.0090792M209.972885 16.4794377C206.920857 16.4794377 205.023837 18.0101925 205.023837 20.4720604 205.023837 22.9362302 206.920857 24.4669849 209.972885 24.4669849 211.227979 24.4669849 215.321125 24.1792491 215.321125 20.4732113 215.321125 16.7683245 211.227979 16.4794377 209.972885 16.4794377M245.75582 8.3326L245.75582 24.5505434C245.75582 29.7389962 242.287344 32.8937321 237.078303 32.8937321 232.523844 32.8937321 229.043864 30.0773736 228.786173 27.0515434 228.774669 26.8179019 228.915019 26.6878453 229.137047 26.6878453L229.674287 26.6878453C229.883661 26.6878453 230.001002 26.8052415 230.035515 27.0147132 230.281702 29.2475434 232.955246 31.7243736 237.078303 31.7243736 241.854791 31.7243736 244.517982 28.9206755 244.517982 24.5505434L244.517982 20.7938642C243.131742 23.846166 240.174047 25.8821849 236.528409 25.8821849 231.49538 25.8821849 227.41949 21.9102792 227.41949 16.7459962 227.41949 11.5805623 231.49538 7.60750566 236.528409 7.60750566 240.174047 7.60750566 243.131742 9.64467547 244.517982 12.6958264L244.517982 8.3326C244.517982 8.11161887 244.645677 7.98156226 244.868856 7.98156226L245.404946 7.98156226C245.628124 7.98156226 245.75582 8.11046792 245.75582 8.3326M244.517982 16.7448453C244.517982 12.2688264 241.036852 8.77571321 236.58708 8.77571321 232.138458 8.77571321 228.658478 12.2688264 228.658478 16.7448453 228.658478 21.2197132 232.138458 24.7128264 236.58708 24.7128264 241.036852 24.7128264 244.517982 21.2197132 244.517982 16.7448453"/>
      <path d="M237.078303 33.164434C232.643486 33.164434 228.802279 30.4320943 228.516978 27.0736415 228.504324 26.8284906 228.595206 26.6811698 228.673433 26.5994528 228.787324 26.4797547 228.94838 26.4176038 229.137047 26.4176038L229.673137 26.4176038C230.010206 26.4176038 230.246039 26.6236226 230.302409 26.9712075 230.541693 29.1338302 233.199133 31.4541321 237.078303 31.4541321 241.566039 31.4541321 244.246486 28.872566 244.246486 24.5507736L244.246486 21.8840377C242.625563 24.5438679 239.75875 26.1528868 236.528409 26.1528868 231.26875 26.1528868 227.147994 22.021 227.147994 16.7450755 227.147994 11.4691509 231.26875 7.33726415 236.528409 7.33726415 239.75875 7.33726415 242.625563 8.94628302 244.246486 11.6061132L244.246486 8.33283019C244.246486 7.96107547 244.496124 7.71132075 244.867706 7.71132075L245.404946 7.71132075C245.777677 7.71132075 246.026165 7.96107547 246.026165 8.33283019L246.026165 24.5507736C246.026165 29.7829623 242.515124 33.164434 237.078303 33.164434L237.078303 33.164434zM229.137047 26.9585472C229.08988 26.9585472 229.069173 26.9700566 229.065722 26.9735094 229.28545 29.7185094 232.416856 32.6223396 237.078303 32.6223396 242.264336 32.6223396 245.485474 29.5297547 245.485474 24.5507736L245.485474 8.33283019C245.485474 8.25916981 245.478572 8.25226415 245.404946 8.25226415L244.867706 8.25226415C244.79638 8.25226415 244.788328 8.26032075 244.788328 8.33283019L244.788328 13.948283 244.270645 12.8076981C242.868299 9.72201887 239.975027 7.87820755 236.528409 7.87820755 231.572458 7.87820755 227.689836 11.773 227.689836 16.7450755 227.689836 21.7171509 231.572458 25.6119434 236.528409 25.6119434 239.975027 25.6119434 242.868299 23.7681321 244.270645 20.6813019L244.788328 19.5418679 244.788328 24.5507736C244.788328 29.2120943 241.906559 31.9950755 237.078303 31.9950755 232.842507 31.9950755 230.034364 29.4791132 229.76632 27.0448679 229.751364 26.9585472 229.729507 26.9585472 229.673137 26.9585472L229.137047 26.9585472zM236.58708 24.9846792C231.988905 24.9846792 228.386982 21.3649623 228.386982 16.7439245 228.386982 12.1240377 231.988905 8.50432075 236.58708 8.50432075 241.186405 8.50432075 244.788328 12.1240377 244.788328 16.7439245 244.788328 21.3649623 241.186405 24.9846792 236.58708 24.9846792L236.58708 24.9846792zM236.58708 9.04641509C232.293763 9.04641509 228.928824 12.4278868 228.928824 16.7439245 228.928824 21.0599623 232.293763 24.4425849 236.58708 24.4425849 240.882698 24.4425849 244.246486 21.0599623 244.246486 16.7439245 244.246486 12.4278868 240.882698 9.04641509 236.58708 9.04641509L236.58708 9.04641509zM273.864277 16.8163189L273.864277 17.0729792C273.851622 17.300866 273.718175 17.4125075 273.503049 17.4125075L272.649448 17.4125075 257.873626 17.4125075C258.160078 21.7987528 261.274228 24.7140925 265.501972 24.7140925 268.486126 24.7140925 270.832956 23.2823189 271.784342 21.1496208 271.879826 20.981583 272.00407 20.8941113 272.199639 20.8941113L272.823159 20.8941113C273.084301 20.8941113 273.217748 21.0322245 273.133769 21.2405453 272.024777 24.0281302 269.132655 25.8834509 265.491618 25.8834509 260.246915 25.8834509 256.615082 22.0381491 256.615082 16.7449604 256.615082 11.5933377 260.130724 7.60762075 265.397285 7.60762075 270.711013 7.60762075 273.864277 12.0134321 273.864277 16.8163189M257.864423 16.2431491L272.631041 16.2431491C272.326183 11.6221113 269.249996 8.77697925 265.397285 8.77697925 261.120074 8.77697925 258.079549 11.8569038 257.864423 16.2431491"/>
      <path d="M265.491273,26.1542679 C260.19135,26.1542679 256.344391,22.1973245 256.344391,16.7453057 C256.344391,11.2932868 260.151086,7.3363434 265.39694,7.3363434 C269.738574,7.3363434 274.135428,10.5923623 274.135428,16.8166642 L274.135428,17.0721736 C274.11472,17.449683 273.867383,17.6833245 273.502704,17.6833245 L258.166635,17.6833245 C258.556623,21.7392491 261.471753,24.443966 265.502777,24.443966 C268.289062,24.443966 270.600228,23.1387962 271.53781,21.0394755 C271.697716,20.7551925 271.916293,20.622834 272.199293,20.622834 L272.822814,20.622834 C273.059798,20.622834 273.247314,20.7080038 273.35085,20.8599283 C273.442883,20.9980415 273.455537,21.1683811 273.385363,21.3421736 C272.205046,24.3093057 269.179476,26.1542679 265.491273,26.1542679 L265.491273,26.1542679 Z M265.39694,7.87843774 C260.465147,7.87843774 256.886233,11.6074943 256.886233,16.7453057 C256.886233,21.9659849 260.424883,25.6121736 265.491273,25.6121736 C268.941342,25.6121736 271.766741,23.9099283 272.871131,21.1672302 C272.859627,21.1660792 272.843521,21.1649283 272.822814,21.1649283 L272.199293,21.1649283 C272.121066,21.1649283 272.078501,21.1821925 272.02098,21.2846264 C271.007472,23.5577396 268.505338,24.9849094 265.502777,24.9849094 C261.072562,24.9849094 257.89744,21.9498717 257.602936,17.430117 L257.583379,17.1412302 L273.502704,17.1412302 C273.585533,17.1412302 273.590135,17.1308717 273.593586,17.0583623 L273.593586,16.8166642 C273.593586,12.3740226 270.778541,7.87843774 265.39694,7.87843774 L265.39694,7.87843774 Z M272.920598,16.513966 L257.579928,16.513966 L257.593733,16.229683 C257.816911,11.6823057 261.025395,8.50570189 265.39694,8.50570189 C269.582119,8.50570189 272.597334,11.6074943 272.901041,16.2250792 L272.920598,16.513966 Z M258.15283,15.9718717 L272.337342,15.9718717 C271.949655,11.818117 269.19098,9.04779623 265.39694,9.04779623 C261.421135,9.04779623 258.478395,11.8802679 258.15283,15.9718717 L258.15283,15.9718717 Z"/>
    </g>
  </g>
	</symbol>
</svg>
