<?xml version="1.0" encoding="UTF-8"?>
<svg width="187px" height="167px" viewBox="0 0 187 167" version="1.1" xmlns="http://www.w3.org/2000/svg" xmlns:xlink="http://www.w3.org/1999/xlink">
    <title>5</title>
    <defs>
        <polygon id="path-1" points="0 2.13162821e-14 121 2.13162821e-14 121 119.155977 0 119.155977"></polygon>
    </defs>
    <g id="5" stroke="none" stroke-width="1" fill="none" fill-rule="evenodd">
        <circle id="Oval" stroke="#143055" fill="#FFFFFF" cx="93.5" cy="83.5" r="76"></circle>
        <g id="Group-9" transform="translate(33.000000, 24.000000)">
            <circle id="Oval" fill="#FFFFFF" cx="60.264" cy="60.912" r="51.84"></circle>
            <g id="Group-8">
                <path d="M113.4,59.6160327 C113.4,89.3201149 89.3201552,113.4 59.6159673,113.4 C29.9119102,113.4 5.832,89.3201149 5.832,59.6160327 C5.832,29.9120159 29.9119102,5.832 59.6159673,5.832 C89.3201552,5.832 113.4,29.9120159 113.4,59.6160327" id="Fill-1"></path>
                <path d="M60.052,111.213688 C31.4988061,111.213688 8.26896233,88.1172551 8.26896233,59.728 C8.26896233,31.3386797 31.4988061,8.24224712 60.052,8.24224712 C88.6053906,8.24224712 111.835103,31.3386797 111.835103,59.728 C111.835103,88.1172551 88.6053906,111.213688 60.052,111.213688 M111.698575,38.0357883 C108.875355,31.399543 104.834136,25.4400267 99.687184,20.3227563 C94.5401663,15.2053555 88.5459137,11.1874031 81.8710534,8.38046015 C74.9591378,5.47375096 67.6181619,4 60.052,4 C52.4859036,4 45.1448622,5.47375096 38.2330122,8.38046015 C31.5580863,11.1874031 25.5638993,15.2053555 20.4168815,20.3227563 C15.2699294,25.4400267 11.2287106,31.399543 8.40555601,38.0357883 C5.48220208,44.9075366 4,52.205849 4,59.728 C4,67.250151 5.48220208,74.5483983 8.40555601,81.4200814 C11.2287106,88.0563919 15.2699294,94.0159733 20.4168815,99.1332437 C25.5638993,104.250645 31.5580863,108.268532 38.2330122,111.07554 C45.1448622,113.982119 52.4859036,115.456 60.052,115.456 C67.6181619,115.456 74.9591378,113.982119 81.8710534,111.07554 C88.5459137,108.268532 94.5401663,104.250645 99.687184,99.1332437 C104.834136,94.0159733 108.875355,88.0563919 111.698575,81.4200814 C114.621863,74.5483983 116.104,67.250151 116.104,59.728 C116.104,52.205849 114.621863,44.9075366 111.698575,38.0357883" id="Fill-3" fill="#143055"></path>
                <g id="Group-7">
                    <mask id="mask-2" fill="white">
                        <use xlink:href="#path-1"></use>
                    </mask>
                    <g id="Clip-6"></g>
                    <path d="M114.086,60.043 C114.086,89.89 89.89,114.085 60.043,114.085 C30.196,114.085 6,89.89 6,60.043 C6,30.196 30.196,6 60.043,6 C89.89,6 114.086,30.196 114.086,60.043 Z" id="Stroke-1" stroke="#D4223B" stroke-width="11" mask="url(#mask-2)"></path>
                </g>
            </g>
        </g>
        <g id="Group" transform="translate(72.000000, 76.000000)" fill="#143055" fill-rule="nonzero">
            <g id="Group-2">
                <path d="M16.9969998,28.0656011 C23.8009998,28.0656011 29.8489998,24.0336011 29.8489998,16.2720011 C29.8489998,8.51040109 24.3049998,4.47840109 17.5009998,4.47840109 L14.3761998,4.47840109 L14.7289998,-0.359998913 L26.8249998,-0.359998913 C27.6313998,-0.359998913 28.0849998,-0.813598913 28.0849998,-1.61999891 L28.0849998,-6.65999891 C28.0849998,-7.46639891 27.6313998,-7.91999891 26.8249998,-7.91999891 L8.37859975,-7.91999891 C7.62259975,-7.91999891 7.11859975,-7.46639891 7.06819975,-6.71039891 L5.80819975,11.0304011 C5.75779975,11.8368011 6.21139975,12.3408011 7.01779975,12.3408011 L16.9969998,12.3408011 C20.3233998,12.3408011 21.7849998,14.1048011 21.7849998,16.2720011 C21.7849998,18.4392011 20.3233998,20.2032011 16.9969998,20.2032011 C14.2753998,20.2032011 12.8137998,19.0440011 12.3601998,17.4312011 C12.1585998,16.6752011 11.8057998,16.2720011 11.0497998,16.2720011 L5.45539975,16.2720011 C4.64899975,16.2720011 4.14499975,16.7256011 4.19539975,17.5824011 C4.85059975,24.4872011 10.5961998,28.0656011 16.9969998,28.0656011 Z" id="5"></path>
            </g>
        </g>
        <polygon id="Star" fill="#143055" points="112 79.5 106.709933 82.2811529 107.720246 76.3905765 103.440491 72.2188471 109.354966 71.3594235 112 66 114.645034 71.3594235 120.559509 72.2188471 116.279754 76.3905765 117.290067 82.2811529"></polygon>
    </g>
</svg>