<?xml version="1.0" encoding="UTF-8"?>
<svg width="187px" height="167px" viewBox="0 0 187 167" version="1.1" xmlns="http://www.w3.org/2000/svg" xmlns:xlink="http://www.w3.org/1999/xlink">
    <title>99</title>
    <defs>
        <polygon id="path-1" points="0 0.0106550526 119.231457 0.0106550526 119.231457 119.166632 0 119.166632"></polygon>
        <polygon id="path-3" points="0.0003 0.0002 119.086 0.0002 119.086 119.052 0.0003 119.052"></polygon>
        <polygon id="path-5" points="0 0 119.0859 0 119.0859 119.052 0 119.052"></polygon>
    </defs>
    <g id="99" stroke="none" stroke-width="1" fill="none" fill-rule="evenodd">
        <g id="Group" transform="translate(17.000000, 7.000000)">
            <circle id="Oval" stroke="#143055" fill="#FFFFFF" cx="76.5" cy="76.5" r="76"></circle>
            <g id="Group-9" transform="translate(16.000000, 16.000000)">
                <circle id="Oval" fill="#FFFFFF" cx="60.264" cy="60.912" r="51.84"></circle>
                <g id="Group-8">
                    <path d="M114.568,60.7840327 C114.568,90.4881149 90.4881552,114.568 60.7839673,114.568 C31.0799102,114.568 7,90.4881149 7,60.7840327 C7,31.0800159 31.0799102,7 60.7839673,7 C90.4881552,7 114.568,31.0800159 114.568,60.7840327" id="Fill-1"></path>
                    <path d="M60.052,112.213688 C31.4988061,112.213688 8.26896233,89.1172551 8.26896233,60.728 C8.26896233,32.3386797 31.4988061,9.24224712 60.052,9.24224712 C88.6053906,9.24224712 111.835103,32.3386797 111.835103,60.728 C111.835103,89.1172551 88.6053906,112.213688 60.052,112.213688 M111.698575,39.0357883 C108.875355,32.399543 104.834136,26.4400267 99.687184,21.3227563 C94.5401663,16.2053555 88.5459137,12.1874031 81.8710534,9.38046015 C74.9591378,6.47375096 67.6181619,5 60.052,5 C52.4859036,5 45.1448622,6.47375096 38.2330122,9.38046015 C31.5580863,12.1874031 25.5638993,16.2053555 20.4168815,21.3227563 C15.2699294,26.4400267 11.2287106,32.399543 8.40555601,39.0357883 C5.48220208,45.9075366 4,53.205849 4,60.728 C4,68.250151 5.48220208,75.5483983 8.40555601,82.4200814 C11.2287106,89.0563919 15.2699294,95.0159733 20.4168815,100.133244 C25.5638993,105.250645 31.5580863,109.268532 38.2330122,112.07554 C45.1448622,114.982119 52.4859036,116.456 60.052,116.456 C67.6181619,116.456 74.9591378,114.982119 81.8710534,112.07554 C88.5459137,109.268532 94.5401663,105.250645 99.687184,100.133244 C104.834136,95.0159733 108.875355,89.0563919 111.698575,82.4200814 C114.621863,75.5483983 116.104,68.250151 116.104,60.728 C116.104,53.205849 114.621863,45.9075366 111.698575,39.0357883" id="Fill-3" fill="#143055"></path>
                    <g id="Group-7">
                        <mask id="mask-2" fill="white">
                            <use xlink:href="#path-1"></use>
                        </mask>
                        <g id="Clip-6"></g>
                        <g id="Group-3" mask="url(#mask-2)">
                            <g transform="translate(1.000000, 1.000000)">
                                <mask id="mask-4" fill="white">
                                    <use xlink:href="#path-3"></use>
                                </mask>
                                <g id="Clip-2" stroke="none" fill="none"></g>
                                <g id="Group-3" stroke="none" stroke-width="1" fill="none" fill-rule="evenodd" mask="url(#mask-4)">
                                    <mask id="mask-6" fill="white">
                                        <use xlink:href="#path-5"></use>
                                    </mask>
                                    <g id="Clip-2"></g>
                                    <path d="M61.4256672,1.02948292 L61.0366038,11.8221953 C86.623415,12.6388721 107.192684,33.6945872 107.192684,59.483293 C107.192684,85.7889326 85.7981291,107.189598 59.5,107.189598 C33.2018709,107.189598 11.8073157,85.7889326 11.8073157,59.483293 C11.8073157,33.6140006 32.5043078,12.5022679 58.2021396,11.8104022 L58.2021396,1 C26.5445644,1.69481403 1,27.6525552 1,59.483293 C1,91.7493952 27.24311,118 59.5,118 C91.75689,118 118,91.7493952 118,59.483293 C118,27.8648322 92.7914448,2.05352283 61.4256672,1.02948292" id="Fill-1" fill="#D4223B" mask="url(#mask-6)"></path>
                                </g>
                            </g>
                        </g>
                    </g>
                </g>
            </g>
            <path d="M52.6763983,93.3600003 C53.3315983,93.3600003 53.8355983,93.1080003 54.1883983,92.5536003 L64.4195987,76.9799997 L64.4019584,76.9699198 C65.7425988,74.9962556 66.4859988,72.5619353 66.4859988,69.8231994 C66.4859988,62.5151999 61.1939994,57.3743997 53.3819991,57.3743997 C45.6203988,57.3743997 40.2779985,62.5151999 40.2779985,69.8232002 C40.2779985,76.6932243 44.9994704,81.6480484 52.0136385,82.2170641 L45.418798,91.8480003 C44.864398,92.7048003 45.217198,93.3600003 46.225198,93.3600003 L52.6763983,93.3600003 Z M53.3819983,74.7119996 C50.7107982,74.7119996 48.3419981,72.8975995 48.3419981,69.8231994 C48.3419981,66.7487993 50.7107982,64.9343992 53.3819983,64.9343992 C56.1035984,64.9343992 58.4219985,66.6983993 58.4219985,69.8231994 C58.4219985,72.9479995 56.1035984,74.7119996 53.3819983,74.7119996 Z M77.9063998,93.3600003 C78.5615998,93.3600003 79.0655998,93.1080003 79.4183998,92.5536003 L89.6496002,76.9799997 L89.6319599,76.9699198 C90.9726003,74.9962556 91.7160003,72.5619353 91.7160003,69.8231994 C91.7160003,62.5151999 86.4240009,57.3743997 78.6120006,57.3743997 C70.8504003,57.3743997 65.508,62.5151999 65.508,69.8232002 C65.508,76.6932243 70.2294719,81.6480484 77.24364,82.2170641 L70.6487995,91.8480003 C70.0943995,92.7048003 70.4471995,93.3600003 71.4551995,93.3600003 L77.9063998,93.3600003 Z M78.6119998,74.7119996 C75.9407997,74.7119996 73.5719996,72.8975995 73.5719996,69.8231994 C73.5719996,66.7487993 75.9407997,64.9343992 78.6119998,64.9343992 C81.3335999,64.9343992 83.652,66.6983993 83.652,69.8231994 C83.652,72.9479995 81.3335999,74.7119996 78.6119998,74.7119996 Z" id="99" fill="#143055" fill-rule="nonzero"></path>
            <path d="M94.6835447,85.892725 C96.0238767,85.892725 97.0565916,85.4514408 97.7816893,84.5688725 C98.506787,83.6863041 98.8693358,82.4393558 98.8693358,80.8280276 C98.8693358,79.2826174 98.4921386,78.0594728 97.737744,77.1585938 C96.9833494,76.2577149 95.965283,75.8072754 94.6835447,75.8072754 C93.3871579,75.8072754 92.3800778,76.2412354 91.6623043,77.1091554 C90.9445308,77.9770753 90.5856441,79.2166994 90.5856441,80.8280276 C90.5856441,82.380762 90.9536861,83.6130619 91.6897701,84.5249271 C92.4258541,85.4367924 93.423779,85.892725 94.6835447,85.892725 Z M97.9684569,92.1000007 L106.878369,76.0379883 L103.61543,76.0379883 L94.7055173,92.1000007 L97.9684569,92.1000007 Z M94.72749,83.2560062 C94.4491696,83.2560062 94.2404294,83.0692386 94.1012692,82.6957034 C93.9621091,82.3221683 93.892529,81.7142581 93.892529,80.8719729 C93.892529,80.0443361 93.960278,79.4400881 94.0957761,79.0592287 C94.2312741,78.6783693 94.4418454,78.4879396 94.72749,78.4879396 C95.0058103,78.4879396 95.2127195,78.6747072 95.3482175,79.0482423 C95.4837156,79.4217775 95.5514646,80.0296877 95.5514646,80.8719729 C95.5514646,81.7289065 95.4837156,82.3404788 95.3482175,82.7066898 C95.2127195,83.0729007 95.0058103,83.2560062 94.72749,83.2560062 Z M106.900342,92.2757819 C108.23335,92.2757819 109.264234,91.8344977 109.992994,90.9519293 C110.721753,90.069361 111.086133,88.8260748 111.086133,87.2220708 C111.086133,85.6766606 110.708936,84.453516 109.954541,83.5526371 C109.200147,82.6517581 108.18208,82.2013186 106.900342,82.2013186 C105.603955,82.2013186 104.596875,82.6352786 103.879102,83.5031986 C103.161328,84.3711185 102.802441,85.6107426 102.802441,87.2220708 C102.802441,88.767481 103.170483,89.9961188 103.906567,90.907984 C104.642651,91.8198493 105.640576,92.2757819 106.900342,92.2757819 Z M106.944287,89.6500494 C106.665967,89.6500494 106.457227,89.4632818 106.318067,89.0897467 C106.178906,88.7162115 106.109326,88.1083013 106.109326,87.2660161 C106.109326,86.4383794 106.177075,85.8341313 106.312573,85.4532719 C106.448071,85.0724125 106.658643,84.8819828 106.944287,84.8819828 C107.259229,84.8819828 107.477124,85.0962162 107.597974,85.524683 C107.718823,85.9531498 107.779248,86.5335942 107.779248,87.2660161 C107.779248,87.998438 107.718823,88.5788824 107.597974,89.0073492 C107.477124,89.435816 107.259229,89.6500494 106.944287,89.6500494 Z" id="%" fill="#143055" fill-rule="nonzero"></path>
        </g>
    </g>
</svg>