<?xml version="1.0" encoding="UTF-8"?>
<svg width="187px" height="167px" viewBox="0 0 187 167" version="1.1" xmlns="http://www.w3.org/2000/svg" xmlns:xlink="http://www.w3.org/1999/xlink">
    <title>97</title>
    <defs>
        <polygon id="path-1" points="0 0.0106550526 119.231457 0.0106550526 119.231457 119.166632 0 119.166632"></polygon>
        <polygon id="path-3" points="0.0001 0.0001 119.086 0.0001 119.086 119.052 0.0001 119.052"></polygon>
    </defs>
    <g id="97" stroke="none" stroke-width="1" fill="none" fill-rule="evenodd">
        <g id="Group" transform="translate(17.000000, 7.000000)">
            <circle id="Oval" stroke="#143055" fill="#FFFFFF" cx="76.5" cy="76.5" r="76"></circle>
            <g id="Group-9" transform="translate(16.000000, 16.000000)">
                <circle id="Oval" fill="#FFFFFF" cx="60.264" cy="60.912" r="51.84"></circle>
                <g id="Group-8">
                    <path d="M113.4,59.6160327 C113.4,89.3201149 89.3201552,113.4 59.6159673,113.4 C29.9119102,113.4 5.832,89.3201149 5.832,59.6160327 C5.832,29.9120159 29.9119102,5.832 59.6159673,5.832 C89.3201552,5.832 113.4,29.9120159 113.4,59.6160327" id="Fill-1"></path>
                    <path d="M59.94,111.101688 C31.3868061,111.101688 8.15696233,88.0052551 8.15696233,59.616 C8.15696233,31.2266797 31.3868061,8.13024712 59.94,8.13024712 C88.4933906,8.13024712 111.723103,31.2266797 111.723103,59.616 C111.723103,88.0052551 88.4933906,111.101688 59.94,111.101688 M111.586575,37.9237883 C108.763355,31.287543 104.722136,25.3280267 99.575184,20.2107563 C94.4281663,15.0933555 88.4339137,11.0754031 81.7590534,8.26846015 C74.8471378,5.36175096 67.5061619,3.888 59.94,3.888 C52.3739036,3.888 45.0328622,5.36175096 38.1210122,8.26846015 C31.4460863,11.0754031 25.4518993,15.0933555 20.3048815,20.2107563 C15.1579294,25.3280267 11.1167106,31.287543 8.29355601,37.9237883 C5.37020208,44.7955366 3.888,52.093849 3.888,59.616 C3.888,67.138151 5.37020208,74.4363983 8.29355601,81.3080814 C11.1167106,87.9443919 15.1579294,93.9039733 20.3048815,99.0212437 C25.4518993,104.138645 31.4460863,108.156532 38.1210122,110.96354 C45.0328622,113.870119 52.3739036,115.344 59.94,115.344 C67.5061619,115.344 74.8471378,113.870119 81.7590534,110.96354 C88.4339137,108.156532 94.4281663,104.138645 99.575184,99.0212437 C104.722136,93.9039733 108.763355,87.9443919 111.586575,81.3080814 C114.509863,74.4363983 115.992,67.138151 115.992,59.616 C115.992,52.093849 114.509863,44.7955366 111.586575,37.9237883" id="Fill-3" fill="#143055"></path>
                    <g id="Group-7">
                        <mask id="mask-2" fill="white">
                            <use xlink:href="#path-1"></use>
                        </mask>
                        <g id="Clip-6"></g>
                    </g>
                </g>
                <g id="Group-3" transform="translate(1.000000, 1.000000)">
                    <mask id="mask-4" fill="white">
                        <use xlink:href="#path-3"></use>
                    </mask>
                    <g id="Clip-2"></g>
                    <path d="M65.7991,11.3861 C89.6201,14.4651 108.0861,34.8641 108.0861,59.5101 C108.0861,86.2751 86.3091,108.0521 59.5431,108.0521 C32.7761,108.0521 11.0001,86.2751 11.0001,59.5101 C11.0001,33.1861 32.0651,11.7041 58.2211,11.0001 L58.2211,0.0001 C26.0001,0.7071 0.0001,27.1201 0.0001,59.5101 C0.0001,92.3411 26.7111,119.0521 59.5431,119.0521 C92.3751,119.0521 119.0861,92.3411 119.0861,59.5101 C119.0861,29.3331 96.5081,4.3761 67.3641,0.5311 L65.7991,11.3861 Z" id="Fill-1" fill="#D4223B" mask="url(#mask-4)"></path>
                </g>
            </g>
            <g id="Group-2" transform="translate(41.000000, 66.000000)" fill="#143055" fill-rule="nonzero">
                <path d="M14.1883983,27.3600003 C14.8435984,27.3600003 15.3475984,27.1080003 15.7003984,26.5536003 L25.9315988,10.9799997 L25.9139585,10.9699198 C27.2545988,8.99625556 27.9979989,6.56193531 27.9979989,3.82319938 C27.9979989,-3.48480014 22.7059994,-8.62560034 14.8939991,-8.62560034 C7.13239881,-8.62560034 1.7899986,-3.48480014 1.7899986,3.82320015 C1.7899986,10.6932243 6.51147042,15.6480484 13.5256386,16.2170641 L6.93079804,25.8480003 C6.37639802,26.7048003 6.72919803,27.3600003 7.73719807,27.3600003 L14.1883983,27.3600003 Z M14.8939984,8.71199958 C12.2227982,8.71199958 9.85399815,6.89759951 9.85399815,3.82319938 C9.85399815,0.748799261 12.2227982,-1.06560081 14.8939984,-1.06560081 C17.6155985,-1.06560081 19.9339986,0.698399259 19.9339986,3.82319938 C19.9339986,6.94799951 17.6155985,8.71199958 14.8939984,8.71199958 Z M37.6544005,27.3600011 C38.3600006,27.3600011 38.8640006,27.0576011 39.1160006,26.402401 L49.901601,-0.410400016 C50.103201,-0.964800038 50.204001,-1.41840006 50.204001,-1.97280008 L50.204001,-6.66000026 C50.204001,-7.4664003 49.750401,-7.92000031 48.944001,-7.92000031 L28.2800002,-7.92000031 C27.4736001,-7.92000031 27.0200001,-7.4664003 27.0200001,-6.66000026 L27.0200001,-1.41840006 C27.0200001,-0.612000024 27.4736001,-0.158400006 28.2800002,-0.158400006 L41.2328007,-0.158400006 L30.7496002,25.898401 C30.3968002,26.8056011 30.8000003,27.3600011 31.7072003,27.3600011 L37.6544005,27.3600011 Z" id="97"></path>
                <path d="M54.6835447,19.892725 C56.0238767,19.892725 57.0565916,19.4514408 57.7816893,18.5688725 C58.506787,17.6863041 58.8693358,16.4393558 58.8693358,14.8280276 C58.8693358,13.2826174 58.4921386,12.0594728 57.737744,11.1585938 C56.9833494,10.2577149 55.965283,9.80727542 54.6835447,9.80727542 C53.3871579,9.80727542 52.3800778,10.2412354 51.6623043,11.1091554 C50.9445308,11.9770753 50.5856441,13.2166994 50.5856441,14.8280276 C50.5856441,16.380762 50.9536861,17.6130619 51.6897701,18.5249271 C52.4258541,19.4367924 53.423779,19.892725 54.6835447,19.892725 Z M57.9684569,26.1000007 L66.8783694,10.0379883 L63.6154298,10.0379883 L54.7055173,26.1000007 L57.9684569,26.1000007 Z M54.72749,17.2560062 C54.4491696,17.2560062 54.2404294,17.0692386 54.1012692,16.6957034 C53.9621091,16.3221683 53.892529,15.7142581 53.892529,14.8719729 C53.892529,14.0443361 53.960278,13.4400881 54.0957761,13.0592287 C54.2312741,12.6783693 54.4418454,12.4879396 54.72749,12.4879396 C55.0058103,12.4879396 55.2127195,12.6747072 55.3482175,13.0482423 C55.4837156,13.4217775 55.5514646,14.0296877 55.5514646,14.8719729 C55.5514646,15.7289065 55.4837156,16.3404788 55.3482175,16.7066898 C55.2127195,17.0729007 55.0058103,17.2560062 54.72749,17.2560062 Z M66.900342,26.2757819 C68.2333499,26.2757819 69.2642337,25.8344977 69.9929935,24.9519293 C70.7217533,24.069361 71.0861332,22.8260748 71.0861332,21.2220708 C71.0861332,19.6766606 70.7089359,18.453516 69.9545414,17.5526371 C69.2001468,16.6517581 68.1820803,16.2013186 66.900342,16.2013186 C65.6039552,16.2013186 64.5968751,16.6352786 63.8791017,17.5031986 C63.1613282,18.3711185 62.8024415,19.6107426 62.8024415,21.2220708 C62.8024415,22.767481 63.1704835,23.9961188 63.9065675,24.907984 C64.6426515,25.8198493 65.6405763,26.2757819 66.900342,26.2757819 Z M66.9442873,23.6500494 C66.665967,23.6500494 66.4572268,23.4632818 66.3180666,23.0897467 C66.1789064,22.7162115 66.1093264,22.1083013 66.1093264,21.2660161 C66.1093264,20.4383794 66.1770754,19.8341313 66.3125734,19.4532719 C66.4480715,19.0724125 66.6586428,18.8819828 66.9442873,18.8819828 C67.2592287,18.8819828 67.4771243,19.0962162 67.5979739,19.524683 C67.7188235,19.9531498 67.7792483,20.5335942 67.7792483,21.2660161 C67.7792483,21.998438 67.7188235,22.5788824 67.5979739,23.0073492 C67.4771243,23.435816 67.2592287,23.6500494 66.9442873,23.6500494 Z" id="%"></path>
            </g>
        </g>
    </g>
</svg>