<?xml version="1.0" encoding="UTF-8"?>
<svg width="187px" height="167px" viewBox="0 0 187 167" version="1.1" xmlns="http://www.w3.org/2000/svg" xmlns:xlink="http://www.w3.org/1999/xlink">
    <title>100</title>
    <defs>
        <polygon id="path-1" points="0 0.0106550526 119.231457 0.0106550526 119.231457 119.166632 0 119.166632"></polygon>
    </defs>
    <g id="100" stroke="none" stroke-width="1" fill="none" fill-rule="evenodd">
        <g id="Group" transform="translate(17.000000, 7.000000)">
            <circle id="Oval" stroke="#143055" fill="#FFFFFF" cx="76.5" cy="76.5" r="76"></circle>
            <g id="Group-9" transform="translate(16.000000, 16.000000)">
                <circle id="Oval" fill="#FFFFFF" cx="60.264" cy="60.912" r="51.84"></circle>
                <g id="Group-8">
                    <path d="M113.4,59.6160327 C113.4,89.3201149 89.3201552,113.4 59.6159673,113.4 C29.9119102,113.4 5.832,89.3201149 5.832,59.6160327 C5.832,29.9120159 29.9119102,5.832 59.6159673,5.832 C89.3201552,5.832 113.4,29.9120159 113.4,59.6160327" id="Fill-1"></path>
                    <path d="M59.94,111.101688 C31.3868061,111.101688 8.15696233,88.0052551 8.15696233,59.616 C8.15696233,31.2266797 31.3868061,8.13024712 59.94,8.13024712 C88.4933906,8.13024712 111.723103,31.2266797 111.723103,59.616 C111.723103,88.0052551 88.4933906,111.101688 59.94,111.101688 M111.586575,37.9237883 C108.763355,31.287543 104.722136,25.3280267 99.575184,20.2107563 C94.4281663,15.0933555 88.4339137,11.0754031 81.7590534,8.26846015 C74.8471378,5.36175096 67.5061619,3.888 59.94,3.888 C52.3739036,3.888 45.0328622,5.36175096 38.1210122,8.26846015 C31.4460863,11.0754031 25.4518993,15.0933555 20.3048815,20.2107563 C15.1579294,25.3280267 11.1167106,31.287543 8.29355601,37.9237883 C5.37020208,44.7955366 3.888,52.093849 3.888,59.616 C3.888,67.138151 5.37020208,74.4363983 8.29355601,81.3080814 C11.1167106,87.9443919 15.1579294,93.9039733 20.3048815,99.0212437 C25.4518993,104.138645 31.4460863,108.156532 38.1210122,110.96354 C45.0328622,113.870119 52.3739036,115.344 59.94,115.344 C67.5061619,115.344 74.8471378,113.870119 81.7590534,110.96354 C88.4339137,108.156532 94.4281663,104.138645 99.575184,99.0212437 C104.722136,93.9039733 108.763355,87.9443919 111.586575,81.3080814 C114.509863,74.4363983 115.992,67.138151 115.992,59.616 C115.992,52.093849 114.509863,44.7955366 111.586575,37.9237883" id="Fill-3" fill="#143055"></path>
                    <g id="Group-7">
                        <mask id="mask-2" fill="white">
                            <use xlink:href="#path-1"></use>
                        </mask>
                        <g id="Clip-6"></g>
                        <path d="M114.086,60.043 C114.086,89.89 89.89,114.085 60.043,114.085 C30.196,114.085 6,89.89 6,60.043 C6,30.196 30.196,6 60.043,6 C89.89,6 114.086,30.196 114.086,60.043 Z" id="Stroke-1" stroke="#D4223B" stroke-width="11" mask="url(#mask-2)"></path>
                    </g>
                </g>
            </g>
            <path d="M102.683545,85.892725 C104.023877,85.892725 105.056592,85.4514408 105.781689,84.5688725 C106.506787,83.6863041 106.869336,82.4393558 106.869336,80.8280276 C106.869336,79.2826174 106.492139,78.0594728 105.737744,77.1585938 C104.983349,76.2577149 103.965283,75.8072754 102.683545,75.8072754 C101.387158,75.8072754 100.380078,76.2412354 99.6623043,77.1091554 C98.9445308,77.9770753 98.5856441,79.2166994 98.5856441,80.8280276 C98.5856441,82.380762 98.9536861,83.6130619 99.6897701,84.5249271 C100.425854,85.4367924 101.423779,85.892725 102.683545,85.892725 Z M105.968457,92.1000007 L114.878369,76.0379883 L111.61543,76.0379883 L102.705517,92.1000007 L105.968457,92.1000007 Z M102.72749,83.2560062 C102.44917,83.2560062 102.240429,83.0692386 102.101269,82.6957034 C101.962109,82.3221683 101.892529,81.7142581 101.892529,80.8719729 C101.892529,80.0443361 101.960278,79.4400881 102.095776,79.0592287 C102.231274,78.6783693 102.441845,78.4879396 102.72749,78.4879396 C103.00581,78.4879396 103.212719,78.6747072 103.348218,79.0482423 C103.483716,79.4217775 103.551465,80.0296877 103.551465,80.8719729 C103.551465,81.7289065 103.483716,82.3404788 103.348218,82.7066898 C103.212719,83.0729007 103.00581,83.2560062 102.72749,83.2560062 Z M114.900342,92.2757819 C116.23335,92.2757819 117.264234,91.8344977 117.992994,90.9519293 C118.721753,90.069361 119.086133,88.8260748 119.086133,87.2220708 C119.086133,85.6766606 118.708936,84.453516 117.954541,83.5526371 C117.200147,82.6517581 116.18208,82.2013186 114.900342,82.2013186 C113.603955,82.2013186 112.596875,82.6352786 111.879102,83.5031986 C111.161328,84.3711185 110.802441,85.6107426 110.802441,87.2220708 C110.802441,88.767481 111.170483,89.9961188 111.906567,90.907984 C112.642651,91.8198493 113.640576,92.2757819 114.900342,92.2757819 Z M114.944287,89.6500494 C114.665967,89.6500494 114.457227,89.4632818 114.318067,89.0897467 C114.178906,88.7162115 114.109326,88.1083013 114.109326,87.2660161 C114.109326,86.4383794 114.177075,85.8341313 114.312573,85.4532719 C114.448071,85.0724125 114.658643,84.8819828 114.944287,84.8819828 C115.259229,84.8819828 115.477124,85.0962162 115.597974,85.524683 C115.718823,85.9531498 115.779248,86.5335942 115.779248,87.2660161 C115.779248,87.998438 115.718823,88.5788824 115.597974,89.0073492 C115.477124,89.435816 115.259229,89.6500494 114.944287,89.6500494 Z" id="%" fill="#143055" fill-rule="nonzero"></path>
            <path d="M43.8848208,93.3600011 C44.6048208,93.3600011 45.0098208,92.9550011 45.0098208,92.2350011 L45.0098208,62.9850011 C45.0098208,62.2650011 44.6048208,61.8600011 43.8848208,61.8600011 L38.5748208,61.8600011 C38.0348208,61.8600011 37.6298208,61.9500011 37.1798208,62.2200011 L31.3748208,65.4150011 C30.8348208,65.7300011 30.6098208,66.1800011 30.6098208,66.7650011 L30.6098208,71.4900011 C30.6098208,72.3450011 31.1948208,72.7050011 31.9598208,72.2550011 L37.8098208,69.0150011 L37.8098208,92.2350011 C37.8098208,92.9550011 38.2148208,93.3600011 38.9348208,93.3600011 L43.8848208,93.3600011 Z M59.6616069,93.9900011 C67.8066069,93.9900011 72.4866069,87.3300011 72.4866069,77.6100011 C72.4866069,67.8900011 67.8066069,61.2300011 59.6616069,61.2300011 C51.5166069,61.2300011 46.8366069,67.8900011 46.8366069,77.6100011 C46.8366069,87.3300011 51.5166069,93.9900011 59.6616069,93.9900011 Z M59.6616069,86.9700011 C55.8816069,86.9700011 54.0366069,83.6850011 54.0366069,77.6100011 C54.0366069,71.5350011 55.8816069,68.2500011 59.6616069,68.2500011 C63.4416069,68.2500011 65.2866069,71.5350011 65.2866069,77.6100011 C65.2866069,83.6850011 63.4416069,86.9700011 59.6616069,86.9700011 Z M85.3383931,93.9900011 C93.4833931,93.9900011 98.1633931,87.3300011 98.1633931,77.6100011 C98.1633931,67.8900011 93.4833931,61.2300011 85.3383931,61.2300011 C77.1933931,61.2300011 72.5133931,67.8900011 72.5133931,77.6100011 C72.5133931,87.3300011 77.1933931,93.9900011 85.3383931,93.9900011 Z M85.3383931,86.9700011 C81.5583931,86.9700011 79.7133931,83.6850011 79.7133931,77.6100011 C79.7133931,71.5350011 81.5583931,68.2500011 85.3383931,68.2500011 C89.1183931,68.2500011 90.9633931,71.5350011 90.9633931,77.6100011 C90.9633931,83.6850011 89.1183931,86.9700011 85.3383931,86.9700011 Z" id="100" fill="#143055" fill-rule="nonzero"></path>
        </g>
    </g>
</svg>