<?xml version="1.0" encoding="UTF-8"?>
<svg width="187px" height="167px" viewBox="0 0 187 167" version="1.1" xmlns="http://www.w3.org/2000/svg" xmlns:xlink="http://www.w3.org/1999/xlink">
    <title>95</title>
    <defs>
        <polygon id="path-1" points="0 0.0106550526 119.231457 0.0106550526 119.231457 119.166632 0 119.166632"></polygon>
    </defs>
    <g id="95" stroke="none" stroke-width="1" fill="none" fill-rule="evenodd">
        <circle id="Oval" stroke="#143055" fill="#FFFFFF" cx="93.5" cy="83.5" r="76"></circle>
        <g id="Group-9" transform="translate(34.000000, 24.000000)">
            <circle id="Oval" fill="#FFFFFF" cx="59.264" cy="59.912" r="51.84"></circle>
            <g id="Group-8">
                <path d="M112.4,58.6160327 C112.4,88.3201149 88.3201552,112.4 58.6159673,112.4 C28.9119102,112.4 4.832,88.3201149 4.832,58.6160327 C4.832,28.9120159 28.9119102,4.832 58.6159673,4.832 C88.3201552,4.832 112.4,28.9120159 112.4,58.6160327" id="Fill-1"></path>
                <path d="M60.052,111.213688 C31.4988061,111.213688 8.26896233,88.1172551 8.26896233,59.728 C8.26896233,31.3386797 31.4988061,8.24224712 60.052,8.24224712 C88.6053906,8.24224712 111.835103,31.3386797 111.835103,59.728 C111.835103,88.1172551 88.6053906,111.213688 60.052,111.213688 M111.698575,38.0357883 C108.875355,31.399543 104.834136,25.4400267 99.687184,20.3227563 C94.5401663,15.2053555 88.5459137,11.1874031 81.8710534,8.38046015 C74.9591378,5.47375096 67.6181619,4 60.052,4 C52.4859036,4 45.1448622,5.47375096 38.2330122,8.38046015 C31.5580863,11.1874031 25.5638993,15.2053555 20.4168815,20.3227563 C15.2699294,25.4400267 11.2287106,31.399543 8.40555601,38.0357883 C5.48220208,44.9075366 4,52.205849 4,59.728 C4,67.250151 5.48220208,74.5483983 8.40555601,81.4200814 C11.2287106,88.0563919 15.2699294,94.0159733 20.4168815,99.1332437 C25.5638993,104.250645 31.5580863,108.268532 38.2330122,111.07554 C45.1448622,113.982119 52.4859036,115.456 60.052,115.456 C67.6181619,115.456 74.9591378,113.982119 81.8710534,111.07554 C88.5459137,108.268532 94.5401663,104.250645 99.687184,99.1332437 C104.834136,94.0159733 108.875355,88.0563919 111.698575,81.4200814 C114.621863,74.5483983 116.104,67.250151 116.104,59.728 C116.104,52.205849 114.621863,44.9075366 111.698575,38.0357883" id="Fill-3" fill="#143055"></path>
                <g id="Group-7">
                    <mask id="mask-2" fill="white">
                        <use xlink:href="#path-1"></use>
                    </mask>
                    <g id="Clip-6"></g>
                    <path d="M114.544651,82.7691679 C111.541863,89.8643217 107.244341,96.2351934 101.771449,101.704896 C96.298425,107.174795 89.923374,111.470088 82.8236384,114.471218 C75.4698641,117.579813 67.6616733,119.155977 59.6157382,119.155977 C51.5698686,119.155977 43.7616123,117.579813 36.407838,114.471218 C29.3080371,111.470088 22.9331169,107.174795 17.4600278,101.704896 C11.9871351,96.2351934 7.68961328,89.8643217 4.68689082,82.7691679 C1.57691191,75.4206461 0,67.6179445 0,59.5780209 C0,51.5379666 1.57691191,43.7352651 4.68689082,36.3867433 C7.68961328,29.2916548 11.9871351,22.9207178 17.4600278,17.4510152 C22.9331169,11.9811164 29.3080371,7.68588821 36.407838,4.68469326 C43.7616123,1.576098 51.5698686,0 59.6157382,0 L59.6157382,11.6060978 C33.1502261,11.6060978 11.6189032,33.1262318 11.6189032,59.5780209 C11.6189032,86.0298101 33.1502261,107.549813 59.6157382,107.549813 C86.0813158,107.549813 107.612639,86.0298101 107.612639,59.5780209 C107.612639,36.4071382 91.092201,16.5633774 68.3307336,12.393918 L70.4265207,0.978173053 C77.2631213,2.23043589 83.7726519,4.65213979 89.7744321,8.17588989 C95.6444159,11.6223745 100.848284,16.0140865 105.241349,21.2292445 C109.668311,26.4847348 113.123029,32.4009692 115.509108,38.8135459 C117.979082,45.4513168 119.231476,52.4375668 119.231476,59.5780209 C119.231476,67.6179445 117.654565,75.4206461 114.544651,82.7691679 Z" id="Fill-5" fill="#D51E39" mask="url(#mask-2)"></path>
                </g>
            </g>
        </g>
        <path d="M111.683545,92.892725 C113.023877,92.892725 114.056592,92.4514408 114.781689,91.5688725 C115.506787,90.6863041 115.869336,89.4393558 115.869336,87.8280276 C115.869336,86.2826174 115.492139,85.0594728 114.737744,84.1585938 C113.983349,83.2577149 112.965283,82.8072754 111.683545,82.8072754 C110.387158,82.8072754 109.380078,83.2412354 108.662304,84.1091554 C107.944531,84.9770753 107.585644,86.2166994 107.585644,87.8280276 C107.585644,89.380762 107.953686,90.6130619 108.68977,91.5249271 C109.425854,92.4367924 110.423779,92.892725 111.683545,92.892725 Z M114.968457,99.1000007 L123.878369,83.0379883 L120.61543,83.0379883 L111.705517,99.1000007 L114.968457,99.1000007 Z M111.72749,90.2560062 C111.44917,90.2560062 111.240429,90.0692386 111.101269,89.6957034 C110.962109,89.3221683 110.892529,88.7142581 110.892529,87.8719729 C110.892529,87.0443361 110.960278,86.4400881 111.095776,86.0592287 C111.231274,85.6783693 111.441845,85.4879396 111.72749,85.4879396 C112.00581,85.4879396 112.212719,85.6747072 112.348218,86.0482423 C112.483716,86.4217775 112.551465,87.0296877 112.551465,87.8719729 C112.551465,88.7289065 112.483716,89.3404788 112.348218,89.7066898 C112.212719,90.0729007 112.00581,90.2560062 111.72749,90.2560062 Z M123.900342,99.2757819 C125.23335,99.2757819 126.264234,98.8344977 126.992994,97.9519293 C127.721753,97.069361 128.086133,95.8260748 128.086133,94.2220708 C128.086133,92.6766606 127.708936,91.453516 126.954541,90.5526371 C126.200147,89.6517581 125.18208,89.2013186 123.900342,89.2013186 C122.603955,89.2013186 121.596875,89.6352786 120.879102,90.5031986 C120.161328,91.3711185 119.802441,92.6107426 119.802441,94.2220708 C119.802441,95.767481 120.170483,96.9961188 120.906567,97.907984 C121.642651,98.8198493 122.640576,99.2757819 123.900342,99.2757819 Z M123.944287,96.6500494 C123.665967,96.6500494 123.457227,96.4632818 123.318067,96.0897467 C123.178906,95.7162115 123.109326,95.1083013 123.109326,94.2660161 C123.109326,93.4383794 123.177075,92.8341313 123.312573,92.4532719 C123.448071,92.0724125 123.658643,91.8819828 123.944287,91.8819828 C124.259229,91.8819828 124.477124,92.0962162 124.597974,92.524683 C124.718823,92.9531498 124.779248,93.5335942 124.779248,94.2660161 C124.779248,94.998438 124.718823,95.5788824 124.597974,96.0073492 C124.477124,96.435816 124.259229,96.6500494 123.944287,96.6500494 Z" id="%" fill="#143055" fill-rule="nonzero"></path>
        <path d="M68.9283987,100.36 C69.5835987,100.36 70.0875987,100.108 70.4403987,99.5536003 L80.6715987,83.9800003 L80.6539584,83.9699205 C81.9945987,81.9962563 82.7379987,79.5619361 82.7379987,76.8232003 C82.7379987,69.5152011 77.4459995,64.3744011 69.6339995,64.3744011 C61.8723995,64.3744011 56.5299995,69.5152011 56.5299995,76.8232011 C56.5299995,83.693225 61.2514711,88.6480488 68.265639,89.2170645 L61.6707987,98.8480003 C61.1163987,99.7048003 61.4691987,100.36 62.4771987,100.36 L68.9283987,100.36 Z M69.6339987,81.7120003 C66.9627987,81.7120003 64.5939987,79.8976003 64.5939987,76.8232003 C64.5939987,73.7488003 66.9627987,71.9344003 69.6339987,71.9344003 C72.3555987,71.9344003 74.6739987,73.6984003 74.6739987,76.8232003 C74.6739987,79.9480003 72.3555987,81.7120003 69.6339987,81.7120003 Z M94.36,101.065601 C101.164,101.065601 107.212,97.0336011 107.212,89.2720011 C107.212,81.5104011 101.668,77.4784011 94.864,77.4784011 L91.7392,77.4784011 L92.092,72.6400011 L104.188,72.6400011 C104.9944,72.6400011 105.448,72.1864011 105.448,71.3800011 L105.448,66.3400011 C105.448,65.5336011 104.9944,65.0800011 104.188,65.0800011 L85.7416,65.0800011 C84.9856,65.0800011 84.4816,65.5336011 84.4312,66.2896011 L83.1712,84.0304011 C83.1208,84.8368011 83.5744,85.3408011 84.3808,85.3408011 L94.36,85.3408011 C97.6864,85.3408011 99.148,87.1048011 99.148,89.2720011 C99.148,91.4392011 97.6864,93.2032011 94.36,93.2032011 C91.6384,93.2032011 90.1768,92.0440011 89.7232,90.4312011 C89.5216,89.6752011 89.1688,89.2720011 88.4128,89.2720011 L82.8184,89.2720011 C82.012,89.2720011 81.508,89.7256011 81.5584,90.5824011 C82.2136,97.4872011 87.9592,101.065601 94.36,101.065601 Z" fill="#143055" fill-rule="nonzero"></path>
    </g>
</svg>