<svg xmlns="http://www.w3.org/2000/svg" xmlns:xlink="http://www.w3.org/1999/xlink" width="60" height="40" viewBox="0 0 60 40">
  <defs>
    <path id="number-7-small-a" d="M14.45,39 C16.95,39 19.1,38.2166667 20.9,36.65 C22.7,35.0833333 24.0666667,32.8333333 25,29.9 C25.9333333,26.9666667 26.4,23.4833333 26.4,19.45 C26.4,15.4166667 25.9333333,11.9333333 25,9 C24.0666667,6.06666667 22.7,3.81666667 20.9,2.25 C19.1,0.683333333 16.95,-0.1 14.45,-0.1 C10.65,-0.1 7.70833333,1.61666667 5.625,5.05 C3.54166667,8.48333333 2.5,13.2833333 2.5,19.45 C2.5,25.6166667 3.54166667,30.4166667 5.625,33.85 C7.70833333,37.2833333 10.65,39 14.45,39 Z M14.45,33.8 C12.25,33.8 10.5666667,32.4916667 9.4,29.875 C8.23333333,27.2583333 7.65,23.7833333 7.65,19.45 C7.65,15.15 8.225,11.675 9.375,9.025 C10.525,6.375 12.2166667,5.05 14.45,5.05 C16.65,5.05 18.3333333,6.38333333 19.5,9.05 C20.6666667,11.7166667 21.25,15.1833333 21.25,19.45 C21.25,23.75 20.675,27.2166667 19.525,29.85 C18.375,32.4833333 16.6833333,33.8 14.45,33.8 Z M36.05,39 C36.5166667,39 36.9666667,38.875 37.4,38.625 C37.8333333,38.375 38.1666667,38.0333333 38.4,37.6 L38.4,37.6 L54.4,3.85 C54.6333333,3.31666667 54.75,2.86666667 54.75,2.5 C54.75,1.8 54.5,1.2 54,0.7 C53.5,0.2 52.9,-0.05 52.2,-0.05 L52.2,-0.05 L33.15,-0.05 C32.4166667,-0.05 31.8083333,0.191666667 31.325,0.675 C30.8416667,1.15833333 30.6,1.76666667 30.6,2.5 C30.6,3.23333333 30.8416667,3.84166667 31.325,4.325 C31.8083333,4.80833333 32.4166667,5.05 33.15,5.05 L33.15,5.05 L48.35,5.05 L34,34.85 C33.7,35.45 33.55,35.9833333 33.55,36.45 C33.55,37.15 33.8,37.75 34.3,38.25 C34.8,38.75 35.3833333,39 36.05,39 Z"/>
  </defs>
  <g fill="none">
    <use fill="#FFF" xlink:href="#number-7-small-a"/>
    <use fill="#D51E39" xlink:href="#number-7-small-a"/>
  </g>
</svg>
