<svg xmlns="http://www.w3.org/2000/svg" width="60" height="40" viewBox="0 0 60 40">
  <path fill="#D51E39" d="M11.95,39.1 C14.45,39.1 16.6,38.3166667 18.4,36.75 C20.2,35.1833333 21.5666667,32.9333333 22.5,30 C23.4333333,27.0666667 23.9,23.5833333 23.9,19.55 C23.9,15.5166667 23.4333333,12.0333333 22.5,9.1 C21.5666667,6.16666667 20.2,3.91666667 18.4,2.35 C16.6,0.783333333 14.45,0 11.95,0 C8.15,0 5.20833333,1.71666667 3.125,5.15 C1.04166667,8.58333333 -3.69482223e-13,13.3833333 -3.69482223e-13,19.55 C-3.69482223e-13,25.7166667 1.04166667,30.5166667 3.125,33.95 C5.20833333,37.3833333 8.15,39.1 11.95,39.1 Z M11.95,33.9 C9.75,33.9 8.06666667,32.5916667 6.9,29.975 C5.73333333,27.3583333 5.15,23.8833333 5.15,19.55 C5.15,15.25 5.725,11.775 6.875,9.125 C8.025,6.475 9.71666667,5.15 11.95,5.15 C14.15,5.15 15.8333333,6.48333333 17,9.15 C18.1666667,11.8166667 18.75,15.2833333 18.75,19.55 C18.75,23.85 18.175,27.3166667 17.025,29.95 C15.875,32.5833333 14.1833333,33.9 11.95,33.9 Z M50.7,39.1 C51.4333333,39.1 52.05,38.85 52.55,38.35 C53.05,37.85 53.3,37.25 53.3,36.55 C53.3,35.85 53.05,35.25 52.55,34.75 C52.05,34.25 51.4333333,34 50.7,34 L50.7,34 L36.7,34 L48.15,21 C49.4166667,19.5666667 50.475,18.0583333 51.325,16.475 C52.175,14.8916667 52.6,13.3666667 52.6,11.9 C52.6,9.5 52.1416667,7.40833333 51.225,5.625 C50.3083333,3.84166667 49.0083333,2.46666667 47.325,1.5 C45.6416667,0.533333333 43.6833333,0.05 41.45,0.05 C39.2166667,0.05 37.2083333,0.566666667 35.425,1.6 C33.6416667,2.63333333 32.2333333,4.05 31.2,5.85 C30.1666667,7.65 29.65,9.66666667 29.65,11.9 C29.65,12.5666667 29.9,13.15 30.4,13.65 C30.9,14.15 31.5,14.4 32.2,14.4 C32.9333333,14.4 33.5416667,14.15 34.025,13.65 C34.5083333,13.15 34.75,12.5666667 34.75,11.9 C34.75,10.6333333 35.0416667,9.45 35.625,8.35 C36.2083333,7.25 37.0166667,6.375 38.05,5.725 C39.0833333,5.075 40.2166667,4.75 41.45,4.75 C43.3833333,4.75 44.9083333,5.4 46.025,6.7 C47.1416667,8 47.7,9.73333333 47.7,11.9 C47.7,13.6666667 46.65,15.75 44.55,18.15 L44.55,18.15 L30.35,34.75 C29.8833333,35.2166667 29.65,35.8166667 29.65,36.55 C29.65,37.25 29.8916667,37.85 30.375,38.35 C30.8583333,38.85 31.4666667,39.1 32.2,39.1 L32.2,39.1 L50.7,39.1 Z"/>
</svg>
