<svg xmlns="http://www.w3.org/2000/svg" width="60" height="40" viewBox="0 0 60 40">
  <path fill="#D51E39" d="M11.95,39.1 C14.45,39.1 16.6,38.3166667 18.4,36.75 C20.2,35.1833333 21.5666667,32.9333333 22.5,30 C23.4333333,27.0666667 23.9,23.5833333 23.9,19.55 C23.9,15.5166667 23.4333333,12.0333333 22.5,9.1 C21.5666667,6.16666667 20.2,3.91666667 18.4,2.35 C16.6,0.783333333 14.45,0 11.95,0 C8.15,0 5.20833333,1.71666667 3.125,5.15 C1.04166667,8.58333333 1.70530257e-13,13.3833333 1.70530257e-13,19.55 C1.70530257e-13,25.7166667 1.04166667,30.5166667 3.125,33.95 C5.20833333,37.3833333 8.15,39.1 11.95,39.1 Z M11.95,33.9 C9.75,33.9 8.06666667,32.5916667 6.9,29.975 C5.73333333,27.3583333 5.15,23.8833333 5.15,19.55 C5.15,15.25 5.725,11.775 6.875,9.125 C8.025,6.475 9.71666667,5.15 11.95,5.15 C14.15,5.15 15.8333333,6.48333333 17,9.15 C18.1666667,11.8166667 18.75,15.2833333 18.75,19.55 C18.75,23.85 18.175,27.3166667 17.025,29.95 C15.875,32.5833333 14.1833333,33.9 11.95,33.9 Z M42,39.1 C44.1666667,39.1 46.175,38.6083333 48.025,37.625 C49.875,36.6416667 51.35,35.2833333 52.45,33.55 C53.55,31.8166667 54.1,29.8833333 54.1,27.75 C54.1,25.3166667 53.4833333,23.2083333 52.25,21.425 C51.0166667,19.6416667 49.1333333,18.3166667 46.6,17.45 C48.3,16.6833333 49.7166667,15.6416667 50.85,14.325 C51.9833333,13.0083333 52.55,11.45 52.55,9.65 C52.55,7.85 52.0916667,6.21666667 51.175,4.75 C50.2583333,3.28333333 49,2.125 47.4,1.275 C45.8,0.425 44.0333333,0 42.1,0 C39.9666667,0 38.0333333,0.441666667 36.3,1.325 C34.5666667,2.20833333 33.2,3.425 32.2,4.975 C31.2,6.525 30.7,8.25 30.7,10.15 C30.7,10.8833333 30.9166667,11.4916667 31.35,11.975 C31.7833333,12.4583333 32.3333333,12.7 33,12.7 C33.6666667,12.7 34.2166667,12.4416667 34.65,11.925 C35.0833333,11.4083333 35.3,10.7666667 35.3,10 C35.3,8.96666667 35.6083333,8.03333333 36.225,7.2 C36.8416667,6.36666667 37.675,5.7 38.725,5.2 C39.775,4.7 40.9333333,4.45 42.2,4.45 C43.8666667,4.45 45.2333333,4.95 46.3,5.95 C47.3666667,6.95 47.9,8.18333333 47.9,9.65 C47.9,10.65 47.625,11.5666667 47.075,12.4 C46.525,13.2333333 45.8083333,13.8916667 44.925,14.375 C44.0416667,14.8583333 43.1333333,15.1 42.2,15.1 C41.4666667,15.1 40.8583333,15.3416667 40.375,15.825 C39.8916667,16.3083333 39.65,16.9166667 39.65,17.65 C39.65,18.3833333 39.8916667,19 40.375,19.5 C40.8583333,20 41.4666667,20.25 42.2,20.25 C43.4666667,20.25 44.625,20.575 45.675,21.225 C46.725,21.875 47.55,22.775 48.15,23.925 C48.75,25.075 49.05,26.3333333 49.05,27.7 C49.05,29.8666667 48.3833333,31.5666667 47.05,32.8 C45.7166667,34.0333333 43.9333333,34.65 41.7,34.65 C40.2333333,34.65 38.8916667,34.3083333 37.675,33.625 C36.4583333,32.9416667 35.5,32.025 34.8,30.875 C34.1,29.725 33.75,28.4666667 33.75,27.1 C33.75,26.3666667 33.5333333,25.75 33.1,25.25 C32.6666667,24.75 32.1166667,24.5 31.45,24.5 C30.7833333,24.5 30.2333333,24.75 29.8,25.25 C29.3666667,25.75 29.15,26.3666667 29.15,27.1 C29.15,29.3666667 29.7,31.4083333 30.8,33.225 C31.9,35.0416667 33.425,36.475 35.375,37.525 C37.325,38.575 39.5333333,39.1 42,39.1 Z"/>
</svg>
