<svg xmlns="http://www.w3.org/2000/svg" width="60" height="40" viewBox="0 0 60 40">
  <path fill="#D51E39" d="M14.45,39 C16.95,39 19.1,38.2166667 20.9,36.65 C22.7,35.0833333 24.0666667,32.8333333 25,29.9 C25.9333333,26.9666667 26.4,23.4833333 26.4,19.45 C26.4,15.4166667 25.9333333,11.9333333 25,9 C24.0666667,6.06666667 22.7,3.81666667 20.9,2.25 C19.1,0.683333333 16.95,-0.1 14.45,-0.1 C10.65,-0.1 7.70833333,1.61666667 5.625,5.05 C3.54166667,8.48333333 2.5,13.2833333 2.5,19.45 C2.5,25.6166667 3.54166667,30.4166667 5.625,33.85 C7.70833333,37.2833333 10.65,39 14.45,39 Z M14.45,33.8 C12.25,33.8 10.5666667,32.4916667 9.4,29.875 C8.23333333,27.2583333 7.65,23.7833333 7.65,19.45 C7.65,15.15 8.225,11.675 9.375,9.025 C10.525,6.375 12.2166667,5.05 14.45,5.05 C16.65,5.05 18.3333333,6.38333333 19.5,9.05 C20.6666667,11.7166667 21.25,15.1833333 21.25,19.45 C21.25,23.75 20.675,27.2166667 19.525,29.85 C18.375,32.4833333 16.6833333,33.8 14.45,33.8 Z M43.95,39 C46.2166667,39 48.2416667,38.4916667 50.025,37.475 C51.8083333,36.4583333 53.2,35.05 54.2,33.25 C55.2,31.45 55.7,29.4166667 55.7,27.15 C55.7,24.85 55.2,22.8 54.2,21 C53.2,19.2 51.8083333,17.7916667 50.025,16.775 C48.2416667,15.7583333 46.2166667,15.25 43.95,15.25 L43.95,15.25 L43.1,15.25 L49.95,3.9 C50.2166667,3.5 50.35,3.05 50.35,2.55 C50.35,1.85 50.1,1.25 49.6,0.75 C49.1,0.25 48.4666667,0 47.7,0 C46.7666667,0 46,0.466666667 45.4,1.4 L45.4,1.4 L34.05,20.3 C32.7833333,22.3 32.15,24.5833333 32.15,27.15 C32.15,29.4166667 32.65,31.45 33.65,33.25 C34.65,35.05 36.0416667,36.4583333 37.825,37.475 C39.6083333,38.4916667 41.65,39 43.95,39 Z M43.9,34.5 C41.8333333,34.5 40.1583333,33.8166667 38.875,32.45 C37.5916667,31.0833333 36.95,29.3166667 36.95,27.15 C36.95,24.9833333 37.6,23.2083333 38.9,21.825 C40.2,20.4416667 41.8666667,19.75 43.9,19.75 C45.9666667,19.75 47.65,20.4416667 48.95,21.825 C50.25,23.2083333 50.9,24.9833333 50.9,27.15 C50.9,29.3166667 50.25,31.0833333 48.95,32.45 C47.65,33.8166667 45.9666667,34.5 43.9,34.5 Z"/>
</svg>
