<svg xmlns="http://www.w3.org/2000/svg" width="60" height="40" viewBox="0 0 60 40">
  <path fill="#D51E39" d="M11.95,39.1 C14.45,39.1 16.6,38.3166667 18.4,36.75 C20.2,35.1833333 21.5666667,32.9333333 22.5,30 C23.4333333,27.0666667 23.9,23.5833333 23.9,19.55 C23.9,15.5166667 23.4333333,12.0333333 22.5,9.1 C21.5666667,6.16666667 20.2,3.91666667 18.4,2.35 C16.6,0.783333333 14.45,-2.27373675e-13 11.95,-2.27373675e-13 C8.15,-2.27373675e-13 5.20833333,1.71666667 3.125,5.15 C1.04166667,8.58333333 -3.69482223e-13,13.3833333 -3.69482223e-13,19.55 C-3.69482223e-13,25.7166667 1.04166667,30.5166667 3.125,33.95 C5.20833333,37.3833333 8.15,39.1 11.95,39.1 Z M11.95,33.9 C9.75,33.9 8.06666667,32.5916667 6.9,29.975 C5.73333333,27.3583333 5.15,23.8833333 5.15,19.55 C5.15,15.25 5.725,11.775 6.875,9.125 C8.025,6.475 9.71666667,5.15 11.95,5.15 C14.15,5.15 15.8333333,6.48333333 17,9.15 C18.1666667,11.8166667 18.75,15.2833333 18.75,19.55 C18.75,23.85 18.175,27.3166667 17.025,29.95 C15.875,32.5833333 14.1833333,33.9 11.95,33.9 Z M49,39.1 C49.7,39.1 50.2916667,38.85 50.775,38.35 C51.2583333,37.85 51.5,37.25 51.5,36.55 L51.5,36.55 L51.5,30.25 L54.5,30.25 C55.2,30.25 55.8,30.025 56.3,29.575 C56.8,29.125 57.05,28.5833333 57.05,27.95 C57.05,27.15 56.8166667,26.5666667 56.35,26.2 C55.8833333,25.8333333 55.2666667,25.65 54.5,25.65 L54.5,25.65 L51.5,25.65 L51.5,2.65 C51.5,1.91666667 51.2833333,1.3 50.85,0.8 C50.4166667,0.3 49.85,0.05 49.15,0.05 C48.3166667,0.05 47.6166667,0.416666667 47.05,1.15 L47.05,1.15 L27.9,26.25 C27.5666667,26.6833333 27.4,27.1833333 27.4,27.75 C27.4,28.4166667 27.6333333,29 28.1,29.5 C28.5666667,30 29.1833333,30.25 29.95,30.25 L29.95,30.25 L46.6,30.25 L46.6,36.55 C46.6,37.25 46.8333333,37.85 47.3,38.35 C47.7666667,38.85 48.3333333,39.1 49,39.1 Z M46.6,25.65 L34,25.65 L46.6,9.1 L46.6,25.65 Z"/>
</svg>
