<svg xmlns="http://www.w3.org/2000/svg" width="60" height="40" viewBox="0 0 60 40">
  <path fill="#D51E39" d="M11.95,39.1 C14.45,39.1 16.6,38.3166667 18.4,36.75 C20.2,35.1833333 21.5666667,32.9333333 22.5,30 C23.4333333,27.0666667 23.9,23.5833333 23.9,19.55 C23.9,15.5166667 23.4333333,12.0333333 22.5,9.1 C21.5666667,6.16666667 20.2,3.91666667 18.4,2.35 C16.6,0.783333333 14.45,-2.27373675e-13 11.95,-2.27373675e-13 C8.15,-2.27373675e-13 5.20833333,1.71666667 3.125,5.15 C1.04166667,8.58333333 1.70530257e-13,13.3833333 1.70530257e-13,19.55 C1.70530257e-13,25.7166667 1.04166667,30.5166667 3.125,33.95 C5.20833333,37.3833333 8.15,39.1 11.95,39.1 Z M11.95,33.9 C9.75,33.9 8.06666667,32.5916667 6.9,29.975 C5.73333333,27.3583333 5.15,23.8833333 5.15,19.55 C5.15,15.25 5.725,11.775 6.875,9.125 C8.025,6.475 9.71666667,5.15 11.95,5.15 C14.15,5.15 15.8333333,6.48333333 17,9.15 C18.1666667,11.8166667 18.75,15.2833333 18.75,19.55 C18.75,23.85 18.175,27.3166667 17.025,29.95 C15.875,32.5833333 14.1833333,33.9 11.95,33.9 Z M42.35,39.1 C44.7166667,39.1 46.875,38.5416667 48.825,37.425 C50.775,36.3083333 52.3083333,34.775 53.425,32.825 C54.5416667,30.875 55.1,28.7166667 55.1,26.35 C55.1,23.9833333 54.5416667,21.825 53.425,19.875 C52.3083333,17.925 50.775,16.3916667 48.825,15.275 C46.875,14.1583333 44.7166667,13.6 42.35,13.6 L42.35,13.6 L36.55,13.6 L36.55,5.15 L50.7,5.15 C51.4333333,5.15 52.0416667,4.9 52.525,4.4 C53.0083333,3.9 53.25,3.31666667 53.25,2.65 C53.25,1.95 53,1.34166667 52.5,0.825 C52,0.308333333 51.4,0.05 50.7,0.05 L50.7,0.05 L34,0.05 C33.2666667,0.05 32.6666667,0.3 32.2,0.8 C31.7333333,1.3 31.5,1.91666667 31.5,2.65 L31.5,2.65 L31.5,16.15 C31.5,16.8833333 31.7333333,17.4916667 32.2,17.975 C32.6666667,18.4583333 33.2666667,18.7 34,18.7 L34,18.7 L42.35,18.7 C43.7833333,18.7 45.0833333,19.0333333 46.25,19.7 C47.4166667,20.3666667 48.3333333,21.2833333 49,22.45 C49.6666667,23.6166667 50,24.9166667 50,26.35 C50,27.7833333 49.6666667,29.0833333 49,30.25 C48.3333333,31.4166667 47.4166667,32.3333333 46.25,33 C45.0833333,33.6666667 43.7833333,34 42.35,34 C40.9166667,34 39.625,33.6666667 38.475,33 C37.325,32.3333333 36.4166667,31.4166667 35.75,30.25 C35.0833333,29.0833333 34.75,27.7833333 34.75,26.35 C34.75,25.6166667 34.5,25.0083333 34,24.525 C33.5,24.0416667 32.8833333,23.8 32.15,23.8 C31.4166667,23.8 30.8166667,24.0416667 30.35,24.525 C29.8833333,25.0083333 29.65,25.6166667 29.65,26.35 C29.65,28.75 30.2,30.9166667 31.3,32.85 C32.4,34.7833333 33.925,36.3083333 35.875,37.425 C37.825,38.5416667 39.9833333,39.1 42.35,39.1 Z"/>
</svg>
