<svg xmlns="http://www.w3.org/2000/svg" width="60" height="40" viewBox="0 0 60 40">
  <path fill="#D51E39" d="M11.95,39.1 C14.45,39.1 16.6,38.3166667 18.4,36.75 C20.2,35.1833333 21.5666667,32.9333333 22.5,30 C23.4333333,27.0666667 23.9,23.5833333 23.9,19.55 C23.9,15.5166667 23.4333333,12.0333333 22.5,9.1 C21.5666667,6.16666667 20.2,3.91666667 18.4,2.35 C16.6,0.783333333 14.45,5.68434189e-14 11.95,5.68434189e-14 C8.15,5.68434189e-14 5.20833333,1.71666667 3.125,5.15 C1.04166667,8.58333333 -3.41060513e-13,13.3833333 -3.41060513e-13,19.55 C-3.41060513e-13,25.7166667 1.04166667,30.5166667 3.125,33.95 C5.20833333,37.3833333 8.15,39.1 11.95,39.1 Z M11.95,33.9 C9.75,33.9 8.06666667,32.5916667 6.9,29.975 C5.73333333,27.3583333 5.15,23.8833333 5.15,19.55 C5.15,15.25 5.725,11.775 6.875,9.125 C8.025,6.475 9.71666667,5.15 11.95,5.15 C14.15,5.15 15.8333333,6.48333333 17,9.15 C18.1666667,11.8166667 18.75,15.2833333 18.75,19.55 C18.75,23.85 18.175,27.3166667 17.025,29.95 C15.875,32.5833333 14.1833333,33.9 11.95,33.9 Z M38.45,39.1 C39.1833333,39.1 39.8,38.85 40.3,38.35 C40.8,37.85 41.05,37.25 41.05,36.55 L41.05,36.55 L41.05,2.65 C41.05,1.88333333 40.8166667,1.25833333 40.35,0.775 C39.8833333,0.291666667 39.2833333,0.05 38.55,0.05 C38.3166667,0.05 38,0.116666667 37.6,0.25 L37.6,0.25 L29.8,3.05 C29.2333333,3.25 28.8166667,3.55833333 28.55,3.975 C28.2833333,4.39166667 28.15,4.88333333 28.15,5.45 C28.15,6.18333333 28.3916667,6.78333333 28.875,7.25 C29.3583333,7.71666667 29.9666667,7.95 30.7,7.95 C31.2,7.95 31.7333333,7.83333333 32.3,7.6 L32.3,7.6 L35.95,6.05 L35.95,36.55 C35.95,37.25 36.2,37.85 36.7,38.35 C37.2,38.85 37.7833333,39.1 38.45,39.1 Z"/>
</svg>
